M48
; DRILL file {KiCad 8.0.8} date 2025-01-21T13:57:35+0000
; FORMAT={-:-/ absolute / inch / decimal}
; #@! TF.CreationDate,2025-01-21T13:57:35+00:00
; #@! TF.GenerationSoftware,Kicad,Pcbnew,8.0.8
; #@! TF.FileFunction,Plated,1,2,PTH
FMAT,2
INCH
; #@! TA.AperFunction,Plated,PTH,ComponentDrill
T1C0.0197
; #@! TA.AperFunction,Plated,PTH,ComponentDrill
T2C0.0315
; #@! TA.AperFunction,Plated,PTH,ComponentDrill
T3C0.0402
; #@! TA.AperFunction,Plated,PTH,ComponentDrill
T4C0.0512
; #@! TA.AperFunction,Plated,PTH,ComponentDrill
T5C0.0551
; #@! TA.AperFunction,Plated,PTH,ComponentDrill
T6C0.1378
%
G90
G05
T1
X2.4232Y-2.5659
X2.4535Y-2.4929
X2.4535Y-2.639
X2.5266Y-2.4626
X2.5266Y-2.6693
X2.5997Y-2.4929
X2.5997Y-2.639
X2.6299Y-2.5659
X5.1732Y-2.5659
X5.2035Y-2.4929
X5.2035Y-2.639
X5.2766Y-2.4626
X5.2766Y-2.6693
X5.3497Y-2.4929
X5.3497Y-2.639
X5.3799Y-2.5659
T2
X7.6466Y-4.4988
X7.6466Y-4.7988
X7.9094Y-4.4992
X7.9094Y-4.5992
X7.9094Y-4.6992
X7.9094Y-4.7992
X7.9094Y-4.8992
X7.9094Y-4.9992
X7.9094Y-5.0992
X8.2094Y-4.4992
X8.2094Y-4.5992
X8.2094Y-4.6992
X8.2094Y-4.7992
X8.2094Y-4.8992
X8.2094Y-4.9992
X8.2094Y-5.0992
T3
X3.9527Y-2.1878
X4.0527Y-2.1878
X4.1527Y-2.1878
T4
X5.7874Y-2.4409
X5.7874Y-3.622
X5.9843Y-2.4409
X5.9843Y-3.622
X6.1811Y-2.4409
X6.1811Y-3.622
X6.378Y-2.4409
X6.378Y-3.622
X6.5748Y-2.4409
X6.5748Y-3.622
X6.7717Y-2.4409
X6.7717Y-3.622
X6.9685Y-2.4409
X6.9685Y-3.622
T5
X5.5384Y-4.8244
X5.5384Y-5.0409
X5.7038Y-4.8244
X5.7038Y-5.0409
X5.8691Y-4.8244
X5.8691Y-5.0409
X6.0345Y-4.8244
X6.0345Y-5.0409
X6.1998Y-4.8244
X6.1998Y-5.0409
X6.3652Y-4.8244
X6.3652Y-5.0409
X6.5306Y-4.8244
X6.5306Y-5.0409
X6.6959Y-4.8244
X6.6959Y-5.0409
X6.8613Y-4.8244
X6.8613Y-5.0409
X7.0266Y-4.8244
X7.0266Y-5.0409
X7.192Y-4.8244
X7.192Y-5.0409
X7.3573Y-4.8244
X7.3573Y-5.0409
T6
X2.5266Y-2.5659
X5.2766Y-2.5659
M30
