G04 #@! TF.GenerationSoftware,KiCad,Pcbnew,8.0.8*
G04 #@! TF.CreationDate,2025-01-21T13:57:33+00:00*
G04 #@! TF.ProjectId,X6800 PicoPSU v2.kicad_pcb_24pinATX,58363830-3020-4506-9963-6f5053552076,rev?*
G04 #@! TF.SameCoordinates,Original*
G04 #@! TF.FileFunction,Copper,L1,Top*
G04 #@! TF.FilePolarity,Positive*
%FSLAX46Y46*%
G04 Gerber Fmt 4.6, Leading zero omitted, Abs format (unit mm)*
G04 Created by KiCad (PCBNEW 8.0.8) date 2025-01-21 13:57:33*
%MOMM*%
%LPD*%
G01*
G04 APERTURE LIST*
G04 Aperture macros list*
%AMRoundRect*
0 Rectangle with rounded corners*
0 $1 Rounding radius*
0 $2 $3 $4 $5 $6 $7 $8 $9 X,Y pos of 4 corners*
0 Add a 4 corners polygon primitive as box body*
4,1,4,$2,$3,$4,$5,$6,$7,$8,$9,$2,$3,0*
0 Add four circle primitives for the rounded corners*
1,1,$1+$1,$2,$3*
1,1,$1+$1,$4,$5*
1,1,$1+$1,$6,$7*
1,1,$1+$1,$8,$9*
0 Add four rect primitives between the rounded corners*
20,1,$1+$1,$2,$3,$4,$5,0*
20,1,$1+$1,$4,$5,$6,$7,0*
20,1,$1+$1,$6,$7,$8,$9,0*
20,1,$1+$1,$8,$9,$2,$3,0*%
G04 Aperture macros list end*
G04 #@! TA.AperFunction,ComponentPad*
%ADD10R,1.600000X1.600000*%
G04 #@! TD*
G04 #@! TA.AperFunction,ComponentPad*
%ADD11O,1.600000X1.600000*%
G04 #@! TD*
G04 #@! TA.AperFunction,ComponentPad*
%ADD12C,1.600000*%
G04 #@! TD*
G04 #@! TA.AperFunction,ComponentPad*
%ADD13R,2.600000X2.600000*%
G04 #@! TD*
G04 #@! TA.AperFunction,ComponentPad*
%ADD14C,2.600000*%
G04 #@! TD*
G04 #@! TA.AperFunction,ComponentPad*
%ADD15C,0.800000*%
G04 #@! TD*
G04 #@! TA.AperFunction,ComponentPad*
%ADD16C,7.000000*%
G04 #@! TD*
G04 #@! TA.AperFunction,ComponentPad*
%ADD17RoundRect,0.250001X1.099999X1.399999X-1.099999X1.399999X-1.099999X-1.399999X1.099999X-1.399999X0*%
G04 #@! TD*
G04 #@! TA.AperFunction,ComponentPad*
%ADD18O,2.700000X3.300000*%
G04 #@! TD*
G04 #@! TA.AperFunction,ComponentPad*
%ADD19R,1.730000X2.030000*%
G04 #@! TD*
G04 #@! TA.AperFunction,ComponentPad*
%ADD20O,1.730000X2.030000*%
G04 #@! TD*
G04 #@! TA.AperFunction,Conductor*
%ADD21C,3.500000*%
G04 #@! TD*
G04 #@! TA.AperFunction,Conductor*
%ADD22C,3.800000*%
G04 #@! TD*
G04 #@! TA.AperFunction,Conductor*
%ADD23C,0.800000*%
G04 #@! TD*
G04 #@! TA.AperFunction,Conductor*
%ADD24C,0.250000*%
G04 #@! TD*
G04 APERTURE END LIST*
D10*
X200900000Y-114280000D03*
D11*
X200900000Y-116820000D03*
X200900000Y-119360000D03*
X200900000Y-121900000D03*
X200900000Y-124440000D03*
X200900000Y-126980000D03*
X200900000Y-129520000D03*
X208520000Y-129520000D03*
X208520000Y-126980000D03*
X208520000Y-124440000D03*
X208520000Y-121900000D03*
X208520000Y-119360000D03*
X208520000Y-116820000D03*
X208520000Y-114280000D03*
D12*
X194223555Y-121890562D03*
D11*
X194223555Y-114270562D03*
D13*
X147000000Y-62000000D03*
D14*
X152000000Y-62000000D03*
X157000000Y-62000000D03*
X162000000Y-62000000D03*
X167000000Y-62000000D03*
X172000000Y-62000000D03*
X177000000Y-62000000D03*
D13*
X147000000Y-92000000D03*
D14*
X152000000Y-92000000D03*
X157000000Y-92000000D03*
X162000000Y-92000000D03*
X167000000Y-92000000D03*
X172000000Y-92000000D03*
X177000000Y-92000000D03*
D15*
X61550000Y-65175000D03*
X62318845Y-63318845D03*
X62318845Y-67031155D03*
X64175000Y-62550000D03*
D16*
X64175000Y-65175000D03*
D15*
X64175000Y-67800000D03*
X66031155Y-63318845D03*
X66031155Y-67031155D03*
X66800000Y-65175000D03*
X131400000Y-65175000D03*
X132168845Y-63318845D03*
X132168845Y-67031155D03*
X134025000Y-62550000D03*
D16*
X134025000Y-65175000D03*
D15*
X134025000Y-67800000D03*
X135881155Y-63318845D03*
X135881155Y-67031155D03*
X136650000Y-65175000D03*
D17*
X186876097Y-128039793D03*
D18*
X182676097Y-128039793D03*
X178476097Y-128039793D03*
X174276097Y-128039793D03*
X170076097Y-128039793D03*
X165876097Y-128039793D03*
X161676097Y-128039793D03*
X157476097Y-128039793D03*
X153276097Y-128039793D03*
X149076097Y-128039793D03*
X144876097Y-128039793D03*
X140676097Y-128039793D03*
X186876097Y-122539793D03*
X182676097Y-122539793D03*
X178476097Y-122539793D03*
X174276097Y-122539793D03*
X170076097Y-122539793D03*
X165876097Y-122539793D03*
X161676097Y-122539793D03*
X157476097Y-122539793D03*
X153276097Y-122539793D03*
X149076097Y-122539793D03*
X144876097Y-122539793D03*
X140676097Y-122539793D03*
D19*
X100397570Y-55569064D03*
D20*
X102937570Y-55569064D03*
X105477570Y-55569064D03*
D21*
X157000000Y-58800000D02*
X147000000Y-58800000D01*
X123000000Y-58900000D02*
X157000000Y-58900000D01*
D22*
X170084284Y-118766944D02*
X161684284Y-118766944D01*
D23*
X153276097Y-126789522D02*
X154615619Y-125450000D01*
X194223555Y-124287015D02*
X194223555Y-121890562D01*
D22*
X170034358Y-116270638D02*
X170023706Y-116281290D01*
X125700000Y-132875920D02*
X125700000Y-123960096D01*
D23*
X172000000Y-98765422D02*
X177127769Y-103893191D01*
D22*
X157000000Y-62000000D02*
X147000000Y-62000000D01*
D24*
X147000000Y-55900000D02*
X146900000Y-55800000D01*
D23*
X107474049Y-51845665D02*
X109537344Y-53908960D01*
D22*
X157000000Y-62000000D02*
X157000000Y-53000000D01*
D23*
X109537344Y-53908960D02*
X122091040Y-53908960D01*
D22*
X125700000Y-123960096D02*
X134848707Y-133108803D01*
D23*
X204556615Y-103893191D02*
X208520000Y-107856576D01*
D22*
X141016640Y-116281290D02*
X140676097Y-116621833D01*
D21*
X123000000Y-55800000D02*
X157000000Y-55800000D01*
D24*
X151900000Y-54900000D02*
X152000000Y-55000000D01*
D22*
X134848707Y-133108803D02*
X143463840Y-133108803D01*
D23*
X176650778Y-116820000D02*
X174276097Y-119194681D01*
D22*
X146819675Y-134695652D02*
X149076097Y-132439230D01*
D23*
X194232993Y-114280000D02*
X194223555Y-114270562D01*
D22*
X161676097Y-122539793D02*
X161657867Y-122521563D01*
X149076097Y-132439230D02*
X149076097Y-128039793D01*
D23*
X153276097Y-128039793D02*
X153276097Y-126789522D01*
D21*
X125700000Y-132875920D02*
X125700000Y-53000000D01*
D22*
X147000000Y-62000000D02*
X147000000Y-53000000D01*
D21*
X152000000Y-53000000D02*
X152000000Y-62000000D01*
D22*
X170076097Y-116312377D02*
X170034358Y-116270638D01*
X165876097Y-122539793D02*
X165896038Y-122519852D01*
D23*
X177127769Y-103893191D02*
X204556615Y-103893191D01*
D22*
X144876097Y-128039793D02*
X144876097Y-131696546D01*
X123002913Y-125451763D02*
X132151620Y-134600470D01*
D23*
X174276097Y-119194681D02*
X174276097Y-122539793D01*
D22*
X170076097Y-122539793D02*
X170076097Y-116312377D01*
D23*
X200900000Y-116820000D02*
X176650778Y-116820000D01*
D22*
X170076097Y-122539793D02*
X161676097Y-122539793D01*
X149076097Y-128039793D02*
X144876097Y-128039793D01*
X140676097Y-116621833D02*
X140676097Y-122539793D01*
X170023706Y-116281290D02*
X141016640Y-116281290D01*
X134025000Y-88642716D02*
X134025000Y-65175000D01*
X162000000Y-92000000D02*
X137382284Y-92000000D01*
D23*
X103684185Y-51845665D02*
X107474049Y-51845665D01*
X102937570Y-55569064D02*
X102937570Y-52592280D01*
X172000000Y-92000000D02*
X172000000Y-98765422D01*
D22*
X123000000Y-53000000D02*
X123000000Y-134695332D01*
X157000000Y-53000000D02*
X123000000Y-53000000D01*
X128140712Y-53140712D02*
X128000000Y-53000000D01*
X165896038Y-122519852D02*
X165896038Y-116281290D01*
X137382284Y-92000000D02*
X134025000Y-88642716D01*
X144876097Y-131696546D02*
X148333413Y-131696546D01*
D23*
X102937570Y-52592280D02*
X103684185Y-51845665D01*
D22*
X143463840Y-133108803D02*
X144876097Y-131696546D01*
X161657867Y-122521563D02*
X161657867Y-116281290D01*
X123000000Y-134695332D02*
X123000320Y-134695652D01*
D21*
X127384497Y-133420018D02*
X127384497Y-53544098D01*
D23*
X200900000Y-114280000D02*
X194232993Y-114280000D01*
D24*
X193200000Y-125400000D02*
X193228734Y-125371266D01*
D23*
X208520000Y-107856576D02*
X208520000Y-114280000D01*
X193060570Y-125450000D02*
X194223555Y-124287015D01*
X154615619Y-125450000D02*
X193060570Y-125450000D01*
D22*
X123000320Y-134695652D02*
X146819675Y-134695652D01*
M02*
