G04 #@! TF.GenerationSoftware,KiCad,Pcbnew,8.0.8*
G04 #@! TF.CreationDate,2025-01-21T13:57:33+00:00*
G04 #@! TF.ProjectId,X6800 PicoPSU v2.kicad_pcb_24pinATX,58363830-3020-4506-9963-6f5053552076,rev?*
G04 #@! TF.SameCoordinates,Original*
G04 #@! TF.FileFunction,Copper,L2,Bot*
G04 #@! TF.FilePolarity,Positive*
%FSLAX46Y46*%
G04 Gerber Fmt 4.6, Leading zero omitted, Abs format (unit mm)*
G04 Created by KiCad (PCBNEW 8.0.8) date 2025-01-21 13:57:33*
%MOMM*%
%LPD*%
G01*
G04 APERTURE LIST*
G04 Aperture macros list*
%AMRoundRect*
0 Rectangle with rounded corners*
0 $1 Rounding radius*
0 $2 $3 $4 $5 $6 $7 $8 $9 X,Y pos of 4 corners*
0 Add a 4 corners polygon primitive as box body*
4,1,4,$2,$3,$4,$5,$6,$7,$8,$9,$2,$3,0*
0 Add four circle primitives for the rounded corners*
1,1,$1+$1,$2,$3*
1,1,$1+$1,$4,$5*
1,1,$1+$1,$6,$7*
1,1,$1+$1,$8,$9*
0 Add four rect primitives between the rounded corners*
20,1,$1+$1,$2,$3,$4,$5,0*
20,1,$1+$1,$4,$5,$6,$7,0*
20,1,$1+$1,$6,$7,$8,$9,0*
20,1,$1+$1,$8,$9,$2,$3,0*%
G04 Aperture macros list end*
G04 #@! TA.AperFunction,ComponentPad*
%ADD10R,1.600000X1.600000*%
G04 #@! TD*
G04 #@! TA.AperFunction,ComponentPad*
%ADD11O,1.600000X1.600000*%
G04 #@! TD*
G04 #@! TA.AperFunction,ComponentPad*
%ADD12C,1.600000*%
G04 #@! TD*
G04 #@! TA.AperFunction,ComponentPad*
%ADD13R,2.600000X2.600000*%
G04 #@! TD*
G04 #@! TA.AperFunction,ComponentPad*
%ADD14C,2.600000*%
G04 #@! TD*
G04 #@! TA.AperFunction,ComponentPad*
%ADD15C,0.800000*%
G04 #@! TD*
G04 #@! TA.AperFunction,ComponentPad*
%ADD16C,7.000000*%
G04 #@! TD*
G04 #@! TA.AperFunction,ComponentPad*
%ADD17RoundRect,0.250001X1.099999X1.399999X-1.099999X1.399999X-1.099999X-1.399999X1.099999X-1.399999X0*%
G04 #@! TD*
G04 #@! TA.AperFunction,ComponentPad*
%ADD18O,2.700000X3.300000*%
G04 #@! TD*
G04 #@! TA.AperFunction,ComponentPad*
%ADD19R,1.730000X2.030000*%
G04 #@! TD*
G04 #@! TA.AperFunction,ComponentPad*
%ADD20O,1.730000X2.030000*%
G04 #@! TD*
G04 #@! TA.AperFunction,Conductor*
%ADD21C,3.500000*%
G04 #@! TD*
G04 #@! TA.AperFunction,Conductor*
%ADD22C,3.800000*%
G04 #@! TD*
G04 #@! TA.AperFunction,Conductor*
%ADD23C,0.250000*%
G04 #@! TD*
G04 #@! TA.AperFunction,Conductor*
%ADD24C,0.800000*%
G04 #@! TD*
G04 APERTURE END LIST*
D10*
X200900000Y-114280000D03*
D11*
X200900000Y-116820000D03*
X200900000Y-119360000D03*
X200900000Y-121900000D03*
X200900000Y-124440000D03*
X200900000Y-126980000D03*
X200900000Y-129520000D03*
X208520000Y-129520000D03*
X208520000Y-126980000D03*
X208520000Y-124440000D03*
X208520000Y-121900000D03*
X208520000Y-119360000D03*
X208520000Y-116820000D03*
X208520000Y-114280000D03*
D12*
X194223555Y-121890562D03*
D11*
X194223555Y-114270562D03*
D13*
X147000000Y-62000000D03*
D14*
X152000000Y-62000000D03*
X157000000Y-62000000D03*
X162000000Y-62000000D03*
X167000000Y-62000000D03*
X172000000Y-62000000D03*
X177000000Y-62000000D03*
D13*
X147000000Y-92000000D03*
D14*
X152000000Y-92000000D03*
X157000000Y-92000000D03*
X162000000Y-92000000D03*
X167000000Y-92000000D03*
X172000000Y-92000000D03*
X177000000Y-92000000D03*
D15*
X61550000Y-65175000D03*
X62318845Y-63318845D03*
X62318845Y-67031155D03*
X64175000Y-62550000D03*
D16*
X64175000Y-65175000D03*
D15*
X64175000Y-67800000D03*
X66031155Y-63318845D03*
X66031155Y-67031155D03*
X66800000Y-65175000D03*
X131400000Y-65175000D03*
X132168845Y-63318845D03*
X132168845Y-67031155D03*
X134025000Y-62550000D03*
D16*
X134025000Y-65175000D03*
D15*
X134025000Y-67800000D03*
X135881155Y-63318845D03*
X135881155Y-67031155D03*
X136650000Y-65175000D03*
D17*
X186876097Y-128039793D03*
D18*
X182676097Y-128039793D03*
X178476097Y-128039793D03*
X174276097Y-128039793D03*
X170076097Y-128039793D03*
X165876097Y-128039793D03*
X161676097Y-128039793D03*
X157476097Y-128039793D03*
X153276097Y-128039793D03*
X149076097Y-128039793D03*
X144876097Y-128039793D03*
X140676097Y-128039793D03*
X186876097Y-122539793D03*
X182676097Y-122539793D03*
X178476097Y-122539793D03*
X174276097Y-122539793D03*
X170076097Y-122539793D03*
X165876097Y-122539793D03*
X161676097Y-122539793D03*
X157476097Y-122539793D03*
X153276097Y-122539793D03*
X149076097Y-122539793D03*
X144876097Y-122539793D03*
X140676097Y-122539793D03*
D19*
X100397570Y-55569064D03*
D20*
X102937570Y-55569064D03*
X105477570Y-55569064D03*
D21*
X162000000Y-64900000D02*
X177000000Y-64900000D01*
X125700000Y-83200000D02*
X125700000Y-135200000D01*
X131400000Y-77200000D02*
X131400000Y-92300000D01*
X139000000Y-74200000D02*
X139000000Y-89300000D01*
X139000000Y-71200000D02*
X176500000Y-71200000D01*
D22*
X141100000Y-100700000D02*
X126100000Y-100700000D01*
D21*
X136600000Y-74300000D02*
X136600000Y-89400000D01*
D22*
X178476097Y-117094423D02*
X162000000Y-100618326D01*
D23*
X139500000Y-69000000D02*
X139600000Y-69100000D01*
D24*
X195994046Y-121890562D02*
X194223555Y-121890562D01*
D21*
X139500000Y-69757726D02*
X141057726Y-68200000D01*
D22*
X177000000Y-83000000D02*
X177000000Y-62000000D01*
X170076097Y-128039793D02*
X170074026Y-128037722D01*
X162000000Y-68200000D02*
X162000000Y-62000000D01*
X165876097Y-114237474D02*
X152000000Y-100361377D01*
X170054639Y-122518335D02*
X170076097Y-122539793D01*
X135320385Y-130499211D02*
X135320385Y-118088510D01*
D24*
X205980000Y-124440000D02*
X200900000Y-124440000D01*
X100368100Y-55598534D02*
X100368100Y-65143100D01*
D22*
X147198226Y-99271637D02*
X161874328Y-99271637D01*
X182676097Y-110061050D02*
X182676097Y-122539793D01*
X144876097Y-122539793D02*
X144876097Y-116424232D01*
D21*
X174262746Y-136725461D02*
X172237285Y-134700000D01*
D22*
X167000000Y-94384953D02*
X182676097Y-110061050D01*
D24*
X198681094Y-109900000D02*
X197000000Y-111581094D01*
X208520000Y-121900000D02*
X205980000Y-124440000D01*
D22*
X142230834Y-108787039D02*
X142230834Y-105794709D01*
X182676097Y-114349321D02*
X182719949Y-114305469D01*
X144876097Y-133943221D02*
X142119318Y-136700000D01*
X147148300Y-95527179D02*
X161824402Y-95527179D01*
X144604970Y-118921565D02*
X153274006Y-118921565D01*
D21*
X138600000Y-74100000D02*
X176100000Y-74100000D01*
X172237285Y-134700000D02*
X123000000Y-134700000D01*
D22*
X123000000Y-136700000D02*
X123000000Y-86000000D01*
X161502055Y-115023323D02*
X174138906Y-115023323D01*
X141026513Y-115343108D02*
X140291575Y-114608170D01*
D24*
X208520000Y-114280000D02*
X210876560Y-114280000D01*
D22*
X178476097Y-117430038D02*
X178476097Y-119117263D01*
X140826883Y-102941062D02*
X125826883Y-102941062D01*
X149076097Y-122539793D02*
X149076097Y-116758876D01*
X153274006Y-118921565D02*
X153276097Y-118923656D01*
X161676097Y-128039793D02*
X161676097Y-122539793D01*
X172000091Y-136700000D02*
X123000000Y-136700000D01*
X140600000Y-91800000D02*
X125600000Y-91800000D01*
X174138906Y-115023323D02*
X175104144Y-114058085D01*
X162986456Y-136700000D02*
X165876097Y-133810359D01*
D21*
X139100000Y-79900000D02*
X176600000Y-79900000D01*
D22*
X153276097Y-116839972D02*
X142100000Y-105663875D01*
D23*
X122500000Y-132200000D02*
X123000000Y-132700000D01*
D22*
X161676097Y-114905268D02*
X147000000Y-100229171D01*
D24*
X199514842Y-133000000D02*
X179928928Y-133000000D01*
D22*
X142119318Y-136700000D02*
X141931975Y-136700000D01*
X123000000Y-86000000D02*
X140800000Y-68200000D01*
X174262746Y-136725461D02*
X172025552Y-136725461D01*
X147000000Y-92000000D02*
X147161949Y-91838051D01*
X158408798Y-136700000D02*
X162986456Y-136700000D01*
X161676097Y-122539793D02*
X161697555Y-122518335D01*
X100400000Y-65175000D02*
X134025000Y-65175000D01*
X162000000Y-62000000D02*
X177000000Y-62000000D01*
X147000000Y-100229171D02*
X147000000Y-92000000D01*
X175104144Y-114058085D02*
X178476097Y-117430038D01*
X127724232Y-116424232D02*
X126700000Y-115400000D01*
D24*
X205980000Y-129520000D02*
X200900000Y-129520000D01*
D22*
X182719949Y-114305469D02*
X182719949Y-110704015D01*
X178053666Y-117852469D02*
X178476097Y-117430038D01*
X161697555Y-122518335D02*
X170054639Y-122518335D01*
X140800000Y-68200000D02*
X141057726Y-68200000D01*
D21*
X133800000Y-75200000D02*
X133800000Y-90300000D01*
D24*
X211900000Y-111036871D02*
X210763129Y-109900000D01*
D22*
X174262746Y-136725461D02*
X174276097Y-136712110D01*
X144876097Y-116424232D02*
X127724232Y-116424232D01*
D24*
X194223555Y-114270562D02*
X193001172Y-114270562D01*
D22*
X140400000Y-97400000D02*
X125400000Y-97400000D01*
D24*
X211900000Y-113233620D02*
X211900000Y-111036871D01*
D22*
X157000000Y-100718248D02*
X157000000Y-92000000D01*
D24*
X179928928Y-133000000D02*
X178476097Y-131547169D01*
X197000000Y-120879878D02*
X197002365Y-120882243D01*
X200900000Y-129520000D02*
X200900000Y-131614842D01*
D22*
X170074026Y-122541864D02*
X170076097Y-122539793D01*
X167000000Y-92000000D02*
X167000000Y-94384953D01*
X165876097Y-133810359D02*
X165876097Y-128039793D01*
D24*
X210763129Y-109900000D02*
X198681094Y-109900000D01*
X205980000Y-119360000D02*
X200900000Y-119360000D01*
D22*
X140291575Y-114608170D02*
X144604970Y-118921565D01*
X170076097Y-122539793D02*
X170076097Y-113794345D01*
X174276097Y-136712110D02*
X174276097Y-128039793D01*
D23*
X208520000Y-114280000D02*
X209651370Y-114280000D01*
D22*
X126700000Y-115400000D02*
X127111083Y-114988917D01*
X168877871Y-118740044D02*
X170076097Y-117541818D01*
X142382230Y-109437696D02*
X142482083Y-109537549D01*
X132175040Y-130574100D02*
X132175040Y-118163399D01*
D21*
X138500000Y-77200000D02*
X176000000Y-77200000D01*
D22*
X152000000Y-100361377D02*
X152000000Y-92000000D01*
X165876097Y-122539793D02*
X165876097Y-114237474D01*
D24*
X208520000Y-116820000D02*
X205980000Y-119360000D01*
D22*
X178476097Y-128039793D02*
X178461612Y-128025308D01*
D24*
X208520000Y-119515952D02*
X208520000Y-119360000D01*
D22*
X178476097Y-117430038D02*
X178033142Y-116987083D01*
D24*
X178476097Y-131547169D02*
X178476097Y-128039793D01*
D22*
X167000000Y-98428968D02*
X182676097Y-114105065D01*
X178461612Y-128025308D02*
X178461612Y-122554278D01*
X182676097Y-114105065D02*
X182676097Y-114349321D01*
X140291575Y-103476370D02*
X140826883Y-102941062D01*
X162000000Y-100618326D02*
X162000000Y-92000000D01*
D21*
X129020757Y-81274456D02*
X129020757Y-96374456D01*
X123300387Y-132681446D02*
X174300478Y-132681446D01*
D22*
X147161949Y-91838051D02*
X161838051Y-91838051D01*
X142482083Y-109537549D02*
X142482083Y-114030218D01*
X161676097Y-122539793D02*
X161676097Y-114905268D01*
X142482083Y-114030218D02*
X144876097Y-116424232D01*
D24*
X177000000Y-98269390D02*
X177000000Y-92000000D01*
D22*
X178033142Y-116987083D02*
X177152506Y-116987083D01*
X178476097Y-122539793D02*
X178476097Y-117094423D01*
X167000000Y-94384953D02*
X167000000Y-98428968D01*
X147660329Y-115343108D02*
X141026513Y-115343108D01*
D24*
X210876560Y-114280000D02*
X211911470Y-113245090D01*
D22*
X144876097Y-122539793D02*
X153276097Y-122539793D01*
X127111083Y-114988917D02*
X127111083Y-102941062D01*
X149076097Y-116758876D02*
X147660329Y-115343108D01*
X140900000Y-94400000D02*
X125900000Y-94400000D01*
X142100000Y-105663875D02*
X142100000Y-69000000D01*
D24*
X197000000Y-111581094D02*
X197000000Y-120879878D01*
D22*
X151664810Y-118221015D02*
X142230834Y-108787039D01*
X128580361Y-131087875D02*
X128580361Y-118677174D01*
D24*
X100397570Y-55569064D02*
X100368100Y-55598534D01*
X200900000Y-131614842D02*
X199514842Y-133000000D01*
D22*
X139500000Y-83000000D02*
X177000000Y-83000000D01*
D24*
X197002365Y-120882243D02*
X195994046Y-121890562D01*
X193001172Y-114270562D02*
X177000000Y-98269390D01*
D22*
X170074026Y-128037722D02*
X170074026Y-122541864D01*
X162299185Y-118740044D02*
X168877871Y-118740044D01*
X169660808Y-117852469D02*
X178053666Y-117852469D01*
D23*
X162100000Y-69100000D02*
X162000000Y-69000000D01*
D22*
X153276097Y-122539793D02*
X153276097Y-116839972D01*
D24*
X205980000Y-119360000D02*
X205980000Y-129520000D01*
D21*
X139500000Y-75600000D02*
X139500000Y-69757726D01*
D22*
X162252033Y-118692892D02*
X162299185Y-118740044D01*
X161838051Y-91838051D02*
X162000000Y-92000000D01*
X140291575Y-114608170D02*
X140291575Y-103476370D01*
X64175000Y-65175000D02*
X100400000Y-65175000D01*
D24*
X211911470Y-113245090D02*
X211900000Y-113233620D01*
D22*
X168795422Y-116987083D02*
X169660808Y-117852469D01*
X141057726Y-68200000D02*
X177000000Y-68200000D01*
D24*
X208520000Y-126980000D02*
X205980000Y-129520000D01*
D22*
X170076097Y-113794345D02*
X157000000Y-100718248D01*
D23*
X164700000Y-133600000D02*
X164600000Y-133700000D01*
M02*
