G04 #@! TF.GenerationSoftware,KiCad,Pcbnew,8.0.8*
G04 #@! TF.CreationDate,2025-01-21T13:57:33+00:00*
G04 #@! TF.ProjectId,X6800 PicoPSU v2.kicad_pcb_24pinATX,58363830-3020-4506-9963-6f5053552076,rev?*
G04 #@! TF.SameCoordinates,Original*
G04 #@! TF.FileFunction,Legend,Top*
G04 #@! TF.FilePolarity,Positive*
%FSLAX46Y46*%
G04 Gerber Fmt 4.6, Leading zero omitted, Abs format (unit mm)*
G04 Created by KiCad (PCBNEW 8.0.8) date 2025-01-21 13:57:33*
%MOMM*%
%LPD*%
G01*
G04 APERTURE LIST*
%ADD10C,0.200000*%
%ADD11C,0.300000*%
%ADD12C,0.150000*%
%ADD13C,0.375000*%
%ADD14C,0.120000*%
%ADD15C,0.010000*%
%ADD16C,0.000000*%
G04 APERTURE END LIST*
D10*
X61000000Y-62000000D02*
X61000000Y-112800000D01*
X137200000Y-62000000D02*
X137200000Y-112800000D01*
X61000000Y-62000000D02*
X137200000Y-62000000D01*
X61000000Y-112800000D02*
X137200000Y-112800000D01*
D11*
X146249757Y-87859774D02*
X146178328Y-88002632D01*
X146178328Y-88002632D02*
X146178328Y-88216917D01*
X146178328Y-88216917D02*
X146249757Y-88431203D01*
X146249757Y-88431203D02*
X146392614Y-88574060D01*
X146392614Y-88574060D02*
X146535471Y-88645489D01*
X146535471Y-88645489D02*
X146821185Y-88716917D01*
X146821185Y-88716917D02*
X147035471Y-88716917D01*
X147035471Y-88716917D02*
X147321185Y-88645489D01*
X147321185Y-88645489D02*
X147464042Y-88574060D01*
X147464042Y-88574060D02*
X147606900Y-88431203D01*
X147606900Y-88431203D02*
X147678328Y-88216917D01*
X147678328Y-88216917D02*
X147678328Y-88074060D01*
X147678328Y-88074060D02*
X147606900Y-87859774D01*
X147606900Y-87859774D02*
X147535471Y-87788346D01*
X147535471Y-87788346D02*
X147035471Y-87788346D01*
X147035471Y-87788346D02*
X147035471Y-88074060D01*
X147678328Y-87145489D02*
X146178328Y-87145489D01*
X146178328Y-87145489D02*
X147678328Y-86288346D01*
X147678328Y-86288346D02*
X146178328Y-86288346D01*
X147678328Y-85574060D02*
X146178328Y-85574060D01*
X146178328Y-85574060D02*
X146178328Y-85216917D01*
X146178328Y-85216917D02*
X146249757Y-85002631D01*
X146249757Y-85002631D02*
X146392614Y-84859774D01*
X146392614Y-84859774D02*
X146535471Y-84788345D01*
X146535471Y-84788345D02*
X146821185Y-84716917D01*
X146821185Y-84716917D02*
X147035471Y-84716917D01*
X147035471Y-84716917D02*
X147321185Y-84788345D01*
X147321185Y-84788345D02*
X147464042Y-84859774D01*
X147464042Y-84859774D02*
X147606900Y-85002631D01*
X147606900Y-85002631D02*
X147678328Y-85216917D01*
X147678328Y-85216917D02*
X147678328Y-85574060D01*
X162106900Y-69411653D02*
X162106900Y-68268796D01*
X162678328Y-68840224D02*
X161535471Y-68840224D01*
X161178328Y-66840224D02*
X161178328Y-67554510D01*
X161178328Y-67554510D02*
X161892614Y-67625938D01*
X161892614Y-67625938D02*
X161821185Y-67554510D01*
X161821185Y-67554510D02*
X161749757Y-67411653D01*
X161749757Y-67411653D02*
X161749757Y-67054510D01*
X161749757Y-67054510D02*
X161821185Y-66911653D01*
X161821185Y-66911653D02*
X161892614Y-66840224D01*
X161892614Y-66840224D02*
X162035471Y-66768795D01*
X162035471Y-66768795D02*
X162392614Y-66768795D01*
X162392614Y-66768795D02*
X162535471Y-66840224D01*
X162535471Y-66840224D02*
X162606900Y-66911653D01*
X162606900Y-66911653D02*
X162678328Y-67054510D01*
X162678328Y-67054510D02*
X162678328Y-67411653D01*
X162678328Y-67411653D02*
X162606900Y-67554510D01*
X162606900Y-67554510D02*
X162535471Y-67625938D01*
X161178328Y-66340224D02*
X162678328Y-65840224D01*
X162678328Y-65840224D02*
X161178328Y-65340224D01*
X177106900Y-69411653D02*
X177106900Y-68268796D01*
X177678328Y-68840224D02*
X176535471Y-68840224D01*
X176178328Y-66840224D02*
X176178328Y-67554510D01*
X176178328Y-67554510D02*
X176892614Y-67625938D01*
X176892614Y-67625938D02*
X176821185Y-67554510D01*
X176821185Y-67554510D02*
X176749757Y-67411653D01*
X176749757Y-67411653D02*
X176749757Y-67054510D01*
X176749757Y-67054510D02*
X176821185Y-66911653D01*
X176821185Y-66911653D02*
X176892614Y-66840224D01*
X176892614Y-66840224D02*
X177035471Y-66768795D01*
X177035471Y-66768795D02*
X177392614Y-66768795D01*
X177392614Y-66768795D02*
X177535471Y-66840224D01*
X177535471Y-66840224D02*
X177606900Y-66911653D01*
X177606900Y-66911653D02*
X177678328Y-67054510D01*
X177678328Y-67054510D02*
X177678328Y-67411653D01*
X177678328Y-67411653D02*
X177606900Y-67554510D01*
X177606900Y-67554510D02*
X177535471Y-67625938D01*
X176178328Y-66340224D02*
X177678328Y-65840224D01*
X177678328Y-65840224D02*
X176178328Y-65340224D01*
X177678328Y-88645489D02*
X176178328Y-88645489D01*
X176178328Y-88645489D02*
X176178328Y-88074060D01*
X176178328Y-88074060D02*
X176249757Y-87931203D01*
X176249757Y-87931203D02*
X176321185Y-87859774D01*
X176321185Y-87859774D02*
X176464042Y-87788346D01*
X176464042Y-87788346D02*
X176678328Y-87788346D01*
X176678328Y-87788346D02*
X176821185Y-87859774D01*
X176821185Y-87859774D02*
X176892614Y-87931203D01*
X176892614Y-87931203D02*
X176964042Y-88074060D01*
X176964042Y-88074060D02*
X176964042Y-88645489D01*
X176678328Y-87288346D02*
X177678328Y-87002632D01*
X177678328Y-87002632D02*
X176964042Y-86716917D01*
X176964042Y-86716917D02*
X177678328Y-86431203D01*
X177678328Y-86431203D02*
X176678328Y-86145489D01*
X177678328Y-85574060D02*
X176678328Y-85574060D01*
X176964042Y-85574060D02*
X176821185Y-85502631D01*
X176821185Y-85502631D02*
X176749757Y-85431203D01*
X176749757Y-85431203D02*
X176678328Y-85288345D01*
X176678328Y-85288345D02*
X176678328Y-85145488D01*
X176178328Y-84359774D02*
X176178328Y-84074060D01*
X176178328Y-84074060D02*
X176249757Y-83931203D01*
X176249757Y-83931203D02*
X176392614Y-83788346D01*
X176392614Y-83788346D02*
X176678328Y-83716917D01*
X176678328Y-83716917D02*
X177178328Y-83716917D01*
X177178328Y-83716917D02*
X177464042Y-83788346D01*
X177464042Y-83788346D02*
X177606900Y-83931203D01*
X177606900Y-83931203D02*
X177678328Y-84074060D01*
X177678328Y-84074060D02*
X177678328Y-84359774D01*
X177678328Y-84359774D02*
X177606900Y-84502632D01*
X177606900Y-84502632D02*
X177464042Y-84645489D01*
X177464042Y-84645489D02*
X177178328Y-84716917D01*
X177178328Y-84716917D02*
X176678328Y-84716917D01*
X176678328Y-84716917D02*
X176392614Y-84645489D01*
X176392614Y-84645489D02*
X176249757Y-84502632D01*
X176249757Y-84502632D02*
X176178328Y-84359774D01*
X176678328Y-83074060D02*
X177678328Y-83074060D01*
X176821185Y-83074060D02*
X176749757Y-83002631D01*
X176749757Y-83002631D02*
X176678328Y-82859774D01*
X176678328Y-82859774D02*
X176678328Y-82645488D01*
X176678328Y-82645488D02*
X176749757Y-82502631D01*
X176749757Y-82502631D02*
X176892614Y-82431203D01*
X176892614Y-82431203D02*
X177678328Y-82431203D01*
X147106900Y-70840224D02*
X147106900Y-69697367D01*
X147678328Y-70268795D02*
X146535471Y-70268795D01*
X147678328Y-68197366D02*
X147678328Y-69054509D01*
X147678328Y-68625938D02*
X146178328Y-68625938D01*
X146178328Y-68625938D02*
X146392614Y-68768795D01*
X146392614Y-68768795D02*
X146535471Y-68911652D01*
X146535471Y-68911652D02*
X146606900Y-69054509D01*
X146321185Y-67625938D02*
X146249757Y-67554510D01*
X146249757Y-67554510D02*
X146178328Y-67411653D01*
X146178328Y-67411653D02*
X146178328Y-67054510D01*
X146178328Y-67054510D02*
X146249757Y-66911653D01*
X146249757Y-66911653D02*
X146321185Y-66840224D01*
X146321185Y-66840224D02*
X146464042Y-66768795D01*
X146464042Y-66768795D02*
X146606900Y-66768795D01*
X146606900Y-66768795D02*
X146821185Y-66840224D01*
X146821185Y-66840224D02*
X147678328Y-67697367D01*
X147678328Y-67697367D02*
X147678328Y-66768795D01*
X146178328Y-66340224D02*
X147678328Y-65840224D01*
X147678328Y-65840224D02*
X146178328Y-65340224D01*
X161249757Y-87859774D02*
X161178328Y-88002632D01*
X161178328Y-88002632D02*
X161178328Y-88216917D01*
X161178328Y-88216917D02*
X161249757Y-88431203D01*
X161249757Y-88431203D02*
X161392614Y-88574060D01*
X161392614Y-88574060D02*
X161535471Y-88645489D01*
X161535471Y-88645489D02*
X161821185Y-88716917D01*
X161821185Y-88716917D02*
X162035471Y-88716917D01*
X162035471Y-88716917D02*
X162321185Y-88645489D01*
X162321185Y-88645489D02*
X162464042Y-88574060D01*
X162464042Y-88574060D02*
X162606900Y-88431203D01*
X162606900Y-88431203D02*
X162678328Y-88216917D01*
X162678328Y-88216917D02*
X162678328Y-88074060D01*
X162678328Y-88074060D02*
X162606900Y-87859774D01*
X162606900Y-87859774D02*
X162535471Y-87788346D01*
X162535471Y-87788346D02*
X162035471Y-87788346D01*
X162035471Y-87788346D02*
X162035471Y-88074060D01*
X162678328Y-87145489D02*
X161178328Y-87145489D01*
X161178328Y-87145489D02*
X162678328Y-86288346D01*
X162678328Y-86288346D02*
X161178328Y-86288346D01*
X162678328Y-85574060D02*
X161178328Y-85574060D01*
X161178328Y-85574060D02*
X161178328Y-85216917D01*
X161178328Y-85216917D02*
X161249757Y-85002631D01*
X161249757Y-85002631D02*
X161392614Y-84859774D01*
X161392614Y-84859774D02*
X161535471Y-84788345D01*
X161535471Y-84788345D02*
X161821185Y-84716917D01*
X161821185Y-84716917D02*
X162035471Y-84716917D01*
X162035471Y-84716917D02*
X162321185Y-84788345D01*
X162321185Y-84788345D02*
X162464042Y-84859774D01*
X162464042Y-84859774D02*
X162606900Y-85002631D01*
X162606900Y-85002631D02*
X162678328Y-85216917D01*
X162678328Y-85216917D02*
X162678328Y-85574060D01*
D12*
X99807038Y-58089704D02*
X99759419Y-58184942D01*
X99759419Y-58184942D02*
X99759419Y-58327799D01*
X99759419Y-58327799D02*
X99807038Y-58470656D01*
X99807038Y-58470656D02*
X99902276Y-58565894D01*
X99902276Y-58565894D02*
X99997514Y-58613513D01*
X99997514Y-58613513D02*
X100187990Y-58661132D01*
X100187990Y-58661132D02*
X100330847Y-58661132D01*
X100330847Y-58661132D02*
X100521323Y-58613513D01*
X100521323Y-58613513D02*
X100616561Y-58565894D01*
X100616561Y-58565894D02*
X100711800Y-58470656D01*
X100711800Y-58470656D02*
X100759419Y-58327799D01*
X100759419Y-58327799D02*
X100759419Y-58232561D01*
X100759419Y-58232561D02*
X100711800Y-58089704D01*
X100711800Y-58089704D02*
X100664180Y-58042085D01*
X100664180Y-58042085D02*
X100330847Y-58042085D01*
X100330847Y-58042085D02*
X100330847Y-58232561D01*
X100759419Y-57613513D02*
X99759419Y-57613513D01*
X99759419Y-57613513D02*
X100759419Y-57042085D01*
X100759419Y-57042085D02*
X99759419Y-57042085D01*
X100759419Y-56565894D02*
X99759419Y-56565894D01*
X99759419Y-56565894D02*
X99759419Y-56327799D01*
X99759419Y-56327799D02*
X99807038Y-56184942D01*
X99807038Y-56184942D02*
X99902276Y-56089704D01*
X99902276Y-56089704D02*
X99997514Y-56042085D01*
X99997514Y-56042085D02*
X100187990Y-55994466D01*
X100187990Y-55994466D02*
X100330847Y-55994466D01*
X100330847Y-55994466D02*
X100521323Y-56042085D01*
X100521323Y-56042085D02*
X100616561Y-56089704D01*
X100616561Y-56089704D02*
X100711800Y-56184942D01*
X100711800Y-56184942D02*
X100759419Y-56327799D01*
X100759419Y-56327799D02*
X100759419Y-56565894D01*
D11*
X157106900Y-70840224D02*
X157106900Y-69697367D01*
X157678328Y-70268795D02*
X156535471Y-70268795D01*
X157678328Y-68197366D02*
X157678328Y-69054509D01*
X157678328Y-68625938D02*
X156178328Y-68625938D01*
X156178328Y-68625938D02*
X156392614Y-68768795D01*
X156392614Y-68768795D02*
X156535471Y-68911652D01*
X156535471Y-68911652D02*
X156606900Y-69054509D01*
X156321185Y-67625938D02*
X156249757Y-67554510D01*
X156249757Y-67554510D02*
X156178328Y-67411653D01*
X156178328Y-67411653D02*
X156178328Y-67054510D01*
X156178328Y-67054510D02*
X156249757Y-66911653D01*
X156249757Y-66911653D02*
X156321185Y-66840224D01*
X156321185Y-66840224D02*
X156464042Y-66768795D01*
X156464042Y-66768795D02*
X156606900Y-66768795D01*
X156606900Y-66768795D02*
X156821185Y-66840224D01*
X156821185Y-66840224D02*
X157678328Y-67697367D01*
X157678328Y-67697367D02*
X157678328Y-66768795D01*
X156178328Y-66340224D02*
X157678328Y-65840224D01*
X157678328Y-65840224D02*
X156178328Y-65340224D01*
X172106900Y-69411653D02*
X172106900Y-68268796D01*
X172678328Y-68840224D02*
X171535471Y-68840224D01*
X171178328Y-66840224D02*
X171178328Y-67554510D01*
X171178328Y-67554510D02*
X171892614Y-67625938D01*
X171892614Y-67625938D02*
X171821185Y-67554510D01*
X171821185Y-67554510D02*
X171749757Y-67411653D01*
X171749757Y-67411653D02*
X171749757Y-67054510D01*
X171749757Y-67054510D02*
X171821185Y-66911653D01*
X171821185Y-66911653D02*
X171892614Y-66840224D01*
X171892614Y-66840224D02*
X172035471Y-66768795D01*
X172035471Y-66768795D02*
X172392614Y-66768795D01*
X172392614Y-66768795D02*
X172535471Y-66840224D01*
X172535471Y-66840224D02*
X172606900Y-66911653D01*
X172606900Y-66911653D02*
X172678328Y-67054510D01*
X172678328Y-67054510D02*
X172678328Y-67411653D01*
X172678328Y-67411653D02*
X172606900Y-67554510D01*
X172606900Y-67554510D02*
X172535471Y-67625938D01*
X171178328Y-66340224D02*
X172678328Y-65840224D01*
X172678328Y-65840224D02*
X171178328Y-65340224D01*
X152106900Y-70840224D02*
X152106900Y-69697367D01*
X152678328Y-70268795D02*
X151535471Y-70268795D01*
X152678328Y-68197366D02*
X152678328Y-69054509D01*
X152678328Y-68625938D02*
X151178328Y-68625938D01*
X151178328Y-68625938D02*
X151392614Y-68768795D01*
X151392614Y-68768795D02*
X151535471Y-68911652D01*
X151535471Y-68911652D02*
X151606900Y-69054509D01*
X151321185Y-67625938D02*
X151249757Y-67554510D01*
X151249757Y-67554510D02*
X151178328Y-67411653D01*
X151178328Y-67411653D02*
X151178328Y-67054510D01*
X151178328Y-67054510D02*
X151249757Y-66911653D01*
X151249757Y-66911653D02*
X151321185Y-66840224D01*
X151321185Y-66840224D02*
X151464042Y-66768795D01*
X151464042Y-66768795D02*
X151606900Y-66768795D01*
X151606900Y-66768795D02*
X151821185Y-66840224D01*
X151821185Y-66840224D02*
X152678328Y-67697367D01*
X152678328Y-67697367D02*
X152678328Y-66768795D01*
X151178328Y-66340224D02*
X152678328Y-65840224D01*
X152678328Y-65840224D02*
X151178328Y-65340224D01*
D12*
X230460607Y-114330605D02*
X230412988Y-114378224D01*
X230412988Y-114378224D02*
X230270131Y-114473462D01*
X230270131Y-114473462D02*
X230174893Y-114521081D01*
X230174893Y-114521081D02*
X230032036Y-114568700D01*
X230032036Y-114568700D02*
X229793940Y-114616319D01*
X229793940Y-114616319D02*
X229603464Y-114616319D01*
X229603464Y-114616319D02*
X229365369Y-114568700D01*
X229365369Y-114568700D02*
X229222512Y-114521081D01*
X229222512Y-114521081D02*
X229127274Y-114473462D01*
X229127274Y-114473462D02*
X228984416Y-114378224D01*
X228984416Y-114378224D02*
X228936797Y-114330605D01*
X229174893Y-113997271D02*
X229127274Y-113949652D01*
X229127274Y-113949652D02*
X229079655Y-113854414D01*
X229079655Y-113854414D02*
X229079655Y-113616319D01*
X229079655Y-113616319D02*
X229127274Y-113521081D01*
X229127274Y-113521081D02*
X229174893Y-113473462D01*
X229174893Y-113473462D02*
X229270131Y-113425843D01*
X229270131Y-113425843D02*
X229365369Y-113425843D01*
X229365369Y-113425843D02*
X229508226Y-113473462D01*
X229508226Y-113473462D02*
X230079655Y-114044890D01*
X230079655Y-114044890D02*
X230079655Y-113425843D01*
X229412988Y-112568700D02*
X230079655Y-112568700D01*
X229032036Y-112806795D02*
X229746321Y-113044890D01*
X229746321Y-113044890D02*
X229746321Y-112425843D01*
X229412988Y-111282985D02*
X230412988Y-111282985D01*
X229460607Y-111282985D02*
X229412988Y-111187747D01*
X229412988Y-111187747D02*
X229412988Y-110997271D01*
X229412988Y-110997271D02*
X229460607Y-110902033D01*
X229460607Y-110902033D02*
X229508226Y-110854414D01*
X229508226Y-110854414D02*
X229603464Y-110806795D01*
X229603464Y-110806795D02*
X229889178Y-110806795D01*
X229889178Y-110806795D02*
X229984416Y-110854414D01*
X229984416Y-110854414D02*
X230032036Y-110902033D01*
X230032036Y-110902033D02*
X230079655Y-110997271D01*
X230079655Y-110997271D02*
X230079655Y-111187747D01*
X230079655Y-111187747D02*
X230032036Y-111282985D01*
X230079655Y-110378223D02*
X229412988Y-110378223D01*
X229079655Y-110378223D02*
X229127274Y-110425842D01*
X229127274Y-110425842D02*
X229174893Y-110378223D01*
X229174893Y-110378223D02*
X229127274Y-110330604D01*
X229127274Y-110330604D02*
X229079655Y-110378223D01*
X229079655Y-110378223D02*
X229174893Y-110378223D01*
X229412988Y-109902033D02*
X230079655Y-109902033D01*
X229508226Y-109902033D02*
X229460607Y-109854414D01*
X229460607Y-109854414D02*
X229412988Y-109759176D01*
X229412988Y-109759176D02*
X229412988Y-109616319D01*
X229412988Y-109616319D02*
X229460607Y-109521081D01*
X229460607Y-109521081D02*
X229555845Y-109473462D01*
X229555845Y-109473462D02*
X230079655Y-109473462D01*
X230460607Y-109092509D02*
X230412988Y-109044890D01*
X230412988Y-109044890D02*
X230270131Y-108949652D01*
X230270131Y-108949652D02*
X230174893Y-108902033D01*
X230174893Y-108902033D02*
X230032036Y-108854414D01*
X230032036Y-108854414D02*
X229793940Y-108806795D01*
X229793940Y-108806795D02*
X229603464Y-108806795D01*
X229603464Y-108806795D02*
X229365369Y-108854414D01*
X229365369Y-108854414D02*
X229222512Y-108902033D01*
X229222512Y-108902033D02*
X229127274Y-108949652D01*
X229127274Y-108949652D02*
X228984416Y-109044890D01*
X228984416Y-109044890D02*
X228936797Y-109092509D01*
D13*
X226283441Y-128530857D02*
X223283441Y-128530857D01*
X223283441Y-128530857D02*
X223283441Y-127388000D01*
X223283441Y-127388000D02*
X223426298Y-127102285D01*
X223426298Y-127102285D02*
X223569155Y-126959428D01*
X223569155Y-126959428D02*
X223854869Y-126816571D01*
X223854869Y-126816571D02*
X224283441Y-126816571D01*
X224283441Y-126816571D02*
X224569155Y-126959428D01*
X224569155Y-126959428D02*
X224712012Y-127102285D01*
X224712012Y-127102285D02*
X224854869Y-127388000D01*
X224854869Y-127388000D02*
X224854869Y-128530857D01*
X226283441Y-125530857D02*
X224283441Y-125530857D01*
X223283441Y-125530857D02*
X223426298Y-125673714D01*
X223426298Y-125673714D02*
X223569155Y-125530857D01*
X223569155Y-125530857D02*
X223426298Y-125388000D01*
X223426298Y-125388000D02*
X223283441Y-125530857D01*
X223283441Y-125530857D02*
X223569155Y-125530857D01*
X226140584Y-122816572D02*
X226283441Y-123102286D01*
X226283441Y-123102286D02*
X226283441Y-123673714D01*
X226283441Y-123673714D02*
X226140584Y-123959429D01*
X226140584Y-123959429D02*
X225997726Y-124102286D01*
X225997726Y-124102286D02*
X225712012Y-124245143D01*
X225712012Y-124245143D02*
X224854869Y-124245143D01*
X224854869Y-124245143D02*
X224569155Y-124102286D01*
X224569155Y-124102286D02*
X224426298Y-123959429D01*
X224426298Y-123959429D02*
X224283441Y-123673714D01*
X224283441Y-123673714D02*
X224283441Y-123102286D01*
X224283441Y-123102286D02*
X224426298Y-122816572D01*
X226283441Y-121102285D02*
X226140584Y-121388000D01*
X226140584Y-121388000D02*
X225997726Y-121530857D01*
X225997726Y-121530857D02*
X225712012Y-121673714D01*
X225712012Y-121673714D02*
X224854869Y-121673714D01*
X224854869Y-121673714D02*
X224569155Y-121530857D01*
X224569155Y-121530857D02*
X224426298Y-121388000D01*
X224426298Y-121388000D02*
X224283441Y-121102285D01*
X224283441Y-121102285D02*
X224283441Y-120673714D01*
X224283441Y-120673714D02*
X224426298Y-120388000D01*
X224426298Y-120388000D02*
X224569155Y-120245143D01*
X224569155Y-120245143D02*
X224854869Y-120102285D01*
X224854869Y-120102285D02*
X225712012Y-120102285D01*
X225712012Y-120102285D02*
X225997726Y-120245143D01*
X225997726Y-120245143D02*
X226140584Y-120388000D01*
X226140584Y-120388000D02*
X226283441Y-120673714D01*
X226283441Y-120673714D02*
X226283441Y-121102285D01*
X226283441Y-118816571D02*
X223283441Y-118816571D01*
X223283441Y-118816571D02*
X223283441Y-117673714D01*
X223283441Y-117673714D02*
X223426298Y-117387999D01*
X223426298Y-117387999D02*
X223569155Y-117245142D01*
X223569155Y-117245142D02*
X223854869Y-117102285D01*
X223854869Y-117102285D02*
X224283441Y-117102285D01*
X224283441Y-117102285D02*
X224569155Y-117245142D01*
X224569155Y-117245142D02*
X224712012Y-117387999D01*
X224712012Y-117387999D02*
X224854869Y-117673714D01*
X224854869Y-117673714D02*
X224854869Y-118816571D01*
X226140584Y-115959428D02*
X226283441Y-115530857D01*
X226283441Y-115530857D02*
X226283441Y-114816571D01*
X226283441Y-114816571D02*
X226140584Y-114530857D01*
X226140584Y-114530857D02*
X225997726Y-114387999D01*
X225997726Y-114387999D02*
X225712012Y-114245142D01*
X225712012Y-114245142D02*
X225426298Y-114245142D01*
X225426298Y-114245142D02*
X225140584Y-114387999D01*
X225140584Y-114387999D02*
X224997726Y-114530857D01*
X224997726Y-114530857D02*
X224854869Y-114816571D01*
X224854869Y-114816571D02*
X224712012Y-115387999D01*
X224712012Y-115387999D02*
X224569155Y-115673714D01*
X224569155Y-115673714D02*
X224426298Y-115816571D01*
X224426298Y-115816571D02*
X224140584Y-115959428D01*
X224140584Y-115959428D02*
X223854869Y-115959428D01*
X223854869Y-115959428D02*
X223569155Y-115816571D01*
X223569155Y-115816571D02*
X223426298Y-115673714D01*
X223426298Y-115673714D02*
X223283441Y-115387999D01*
X223283441Y-115387999D02*
X223283441Y-114673714D01*
X223283441Y-114673714D02*
X223426298Y-114245142D01*
X223283441Y-112959428D02*
X225712012Y-112959428D01*
X225712012Y-112959428D02*
X225997726Y-112816571D01*
X225997726Y-112816571D02*
X226140584Y-112673714D01*
X226140584Y-112673714D02*
X226283441Y-112387999D01*
X226283441Y-112387999D02*
X226283441Y-111816571D01*
X226283441Y-111816571D02*
X226140584Y-111530856D01*
X226140584Y-111530856D02*
X225997726Y-111387999D01*
X225997726Y-111387999D02*
X225712012Y-111245142D01*
X225712012Y-111245142D02*
X223283441Y-111245142D01*
X228113273Y-124459428D02*
X231113273Y-123459428D01*
X231113273Y-123459428D02*
X228113273Y-122459428D01*
X228113273Y-121745142D02*
X228113273Y-119887999D01*
X228113273Y-119887999D02*
X229256130Y-120887999D01*
X229256130Y-120887999D02*
X229256130Y-120459428D01*
X229256130Y-120459428D02*
X229398987Y-120173714D01*
X229398987Y-120173714D02*
X229541844Y-120030856D01*
X229541844Y-120030856D02*
X229827558Y-119887999D01*
X229827558Y-119887999D02*
X230541844Y-119887999D01*
X230541844Y-119887999D02*
X230827558Y-120030856D01*
X230827558Y-120030856D02*
X230970416Y-120173714D01*
X230970416Y-120173714D02*
X231113273Y-120459428D01*
X231113273Y-120459428D02*
X231113273Y-121316571D01*
X231113273Y-121316571D02*
X230970416Y-121602285D01*
X230970416Y-121602285D02*
X230827558Y-121745142D01*
X230827558Y-118602285D02*
X230970416Y-118459428D01*
X230970416Y-118459428D02*
X231113273Y-118602285D01*
X231113273Y-118602285D02*
X230970416Y-118745142D01*
X230970416Y-118745142D02*
X230827558Y-118602285D01*
X230827558Y-118602285D02*
X231113273Y-118602285D01*
X231113273Y-115602285D02*
X231113273Y-117316571D01*
X231113273Y-116459428D02*
X228113273Y-116459428D01*
X228113273Y-116459428D02*
X228541844Y-116745142D01*
X228541844Y-116745142D02*
X228827558Y-117030857D01*
X228827558Y-117030857D02*
X228970416Y-117316571D01*
D11*
X172106900Y-88645489D02*
X172106900Y-87502632D01*
X172678328Y-88074060D02*
X171535471Y-88074060D01*
X171178328Y-86074060D02*
X171178328Y-86788346D01*
X171178328Y-86788346D02*
X171892614Y-86859774D01*
X171892614Y-86859774D02*
X171821185Y-86788346D01*
X171821185Y-86788346D02*
X171749757Y-86645489D01*
X171749757Y-86645489D02*
X171749757Y-86288346D01*
X171749757Y-86288346D02*
X171821185Y-86145489D01*
X171821185Y-86145489D02*
X171892614Y-86074060D01*
X171892614Y-86074060D02*
X172035471Y-86002631D01*
X172035471Y-86002631D02*
X172392614Y-86002631D01*
X172392614Y-86002631D02*
X172535471Y-86074060D01*
X172535471Y-86074060D02*
X172606900Y-86145489D01*
X172606900Y-86145489D02*
X172678328Y-86288346D01*
X172678328Y-86288346D02*
X172678328Y-86645489D01*
X172678328Y-86645489D02*
X172606900Y-86788346D01*
X172606900Y-86788346D02*
X172535471Y-86859774D01*
X171178328Y-85574060D02*
X172678328Y-85074060D01*
X172678328Y-85074060D02*
X171178328Y-84574060D01*
X172606900Y-83002632D02*
X172678328Y-82788347D01*
X172678328Y-82788347D02*
X172678328Y-82431204D01*
X172678328Y-82431204D02*
X172606900Y-82288347D01*
X172606900Y-82288347D02*
X172535471Y-82216918D01*
X172535471Y-82216918D02*
X172392614Y-82145489D01*
X172392614Y-82145489D02*
X172249757Y-82145489D01*
X172249757Y-82145489D02*
X172106900Y-82216918D01*
X172106900Y-82216918D02*
X172035471Y-82288347D01*
X172035471Y-82288347D02*
X171964042Y-82431204D01*
X171964042Y-82431204D02*
X171892614Y-82716918D01*
X171892614Y-82716918D02*
X171821185Y-82859775D01*
X171821185Y-82859775D02*
X171749757Y-82931204D01*
X171749757Y-82931204D02*
X171606900Y-83002632D01*
X171606900Y-83002632D02*
X171464042Y-83002632D01*
X171464042Y-83002632D02*
X171321185Y-82931204D01*
X171321185Y-82931204D02*
X171249757Y-82859775D01*
X171249757Y-82859775D02*
X171178328Y-82716918D01*
X171178328Y-82716918D02*
X171178328Y-82359775D01*
X171178328Y-82359775D02*
X171249757Y-82145489D01*
X171892614Y-81002633D02*
X171964042Y-80788347D01*
X171964042Y-80788347D02*
X172035471Y-80716918D01*
X172035471Y-80716918D02*
X172178328Y-80645490D01*
X172178328Y-80645490D02*
X172392614Y-80645490D01*
X172392614Y-80645490D02*
X172535471Y-80716918D01*
X172535471Y-80716918D02*
X172606900Y-80788347D01*
X172606900Y-80788347D02*
X172678328Y-80931204D01*
X172678328Y-80931204D02*
X172678328Y-81502633D01*
X172678328Y-81502633D02*
X171178328Y-81502633D01*
X171178328Y-81502633D02*
X171178328Y-81002633D01*
X171178328Y-81002633D02*
X171249757Y-80859776D01*
X171249757Y-80859776D02*
X171321185Y-80788347D01*
X171321185Y-80788347D02*
X171464042Y-80716918D01*
X171464042Y-80716918D02*
X171606900Y-80716918D01*
X171606900Y-80716918D02*
X171749757Y-80788347D01*
X171749757Y-80788347D02*
X171821185Y-80859776D01*
X171821185Y-80859776D02*
X171892614Y-81002633D01*
X171892614Y-81002633D02*
X171892614Y-81502633D01*
X156249757Y-87859774D02*
X156178328Y-88002632D01*
X156178328Y-88002632D02*
X156178328Y-88216917D01*
X156178328Y-88216917D02*
X156249757Y-88431203D01*
X156249757Y-88431203D02*
X156392614Y-88574060D01*
X156392614Y-88574060D02*
X156535471Y-88645489D01*
X156535471Y-88645489D02*
X156821185Y-88716917D01*
X156821185Y-88716917D02*
X157035471Y-88716917D01*
X157035471Y-88716917D02*
X157321185Y-88645489D01*
X157321185Y-88645489D02*
X157464042Y-88574060D01*
X157464042Y-88574060D02*
X157606900Y-88431203D01*
X157606900Y-88431203D02*
X157678328Y-88216917D01*
X157678328Y-88216917D02*
X157678328Y-88074060D01*
X157678328Y-88074060D02*
X157606900Y-87859774D01*
X157606900Y-87859774D02*
X157535471Y-87788346D01*
X157535471Y-87788346D02*
X157035471Y-87788346D01*
X157035471Y-87788346D02*
X157035471Y-88074060D01*
X157678328Y-87145489D02*
X156178328Y-87145489D01*
X156178328Y-87145489D02*
X157678328Y-86288346D01*
X157678328Y-86288346D02*
X156178328Y-86288346D01*
X157678328Y-85574060D02*
X156178328Y-85574060D01*
X156178328Y-85574060D02*
X156178328Y-85216917D01*
X156178328Y-85216917D02*
X156249757Y-85002631D01*
X156249757Y-85002631D02*
X156392614Y-84859774D01*
X156392614Y-84859774D02*
X156535471Y-84788345D01*
X156535471Y-84788345D02*
X156821185Y-84716917D01*
X156821185Y-84716917D02*
X157035471Y-84716917D01*
X157035471Y-84716917D02*
X157321185Y-84788345D01*
X157321185Y-84788345D02*
X157464042Y-84859774D01*
X157464042Y-84859774D02*
X157606900Y-85002631D01*
X157606900Y-85002631D02*
X157678328Y-85216917D01*
X157678328Y-85216917D02*
X157678328Y-85574060D01*
X167106900Y-69411653D02*
X167106900Y-68268796D01*
X167678328Y-68840224D02*
X166535471Y-68840224D01*
X166178328Y-66840224D02*
X166178328Y-67554510D01*
X166178328Y-67554510D02*
X166892614Y-67625938D01*
X166892614Y-67625938D02*
X166821185Y-67554510D01*
X166821185Y-67554510D02*
X166749757Y-67411653D01*
X166749757Y-67411653D02*
X166749757Y-67054510D01*
X166749757Y-67054510D02*
X166821185Y-66911653D01*
X166821185Y-66911653D02*
X166892614Y-66840224D01*
X166892614Y-66840224D02*
X167035471Y-66768795D01*
X167035471Y-66768795D02*
X167392614Y-66768795D01*
X167392614Y-66768795D02*
X167535471Y-66840224D01*
X167535471Y-66840224D02*
X167606900Y-66911653D01*
X167606900Y-66911653D02*
X167678328Y-67054510D01*
X167678328Y-67054510D02*
X167678328Y-67411653D01*
X167678328Y-67411653D02*
X167606900Y-67554510D01*
X167606900Y-67554510D02*
X167535471Y-67625938D01*
X166178328Y-66340224D02*
X167678328Y-65840224D01*
X167678328Y-65840224D02*
X166178328Y-65340224D01*
D12*
X103680419Y-57870647D02*
X103680419Y-58442075D01*
X103680419Y-58156361D02*
X102680419Y-58156361D01*
X102680419Y-58156361D02*
X102823276Y-58251599D01*
X102823276Y-58251599D02*
X102918514Y-58346837D01*
X102918514Y-58346837D02*
X102966133Y-58442075D01*
X102775657Y-57489694D02*
X102728038Y-57442075D01*
X102728038Y-57442075D02*
X102680419Y-57346837D01*
X102680419Y-57346837D02*
X102680419Y-57108742D01*
X102680419Y-57108742D02*
X102728038Y-57013504D01*
X102728038Y-57013504D02*
X102775657Y-56965885D01*
X102775657Y-56965885D02*
X102870895Y-56918266D01*
X102870895Y-56918266D02*
X102966133Y-56918266D01*
X102966133Y-56918266D02*
X103108990Y-56965885D01*
X103108990Y-56965885D02*
X103680419Y-57537313D01*
X103680419Y-57537313D02*
X103680419Y-56918266D01*
X102680419Y-56632551D02*
X103680419Y-56299218D01*
X103680419Y-56299218D02*
X102680419Y-55965885D01*
D11*
X151249757Y-87859774D02*
X151178328Y-88002632D01*
X151178328Y-88002632D02*
X151178328Y-88216917D01*
X151178328Y-88216917D02*
X151249757Y-88431203D01*
X151249757Y-88431203D02*
X151392614Y-88574060D01*
X151392614Y-88574060D02*
X151535471Y-88645489D01*
X151535471Y-88645489D02*
X151821185Y-88716917D01*
X151821185Y-88716917D02*
X152035471Y-88716917D01*
X152035471Y-88716917D02*
X152321185Y-88645489D01*
X152321185Y-88645489D02*
X152464042Y-88574060D01*
X152464042Y-88574060D02*
X152606900Y-88431203D01*
X152606900Y-88431203D02*
X152678328Y-88216917D01*
X152678328Y-88216917D02*
X152678328Y-88074060D01*
X152678328Y-88074060D02*
X152606900Y-87859774D01*
X152606900Y-87859774D02*
X152535471Y-87788346D01*
X152535471Y-87788346D02*
X152035471Y-87788346D01*
X152035471Y-87788346D02*
X152035471Y-88074060D01*
X152678328Y-87145489D02*
X151178328Y-87145489D01*
X151178328Y-87145489D02*
X152678328Y-86288346D01*
X152678328Y-86288346D02*
X151178328Y-86288346D01*
X152678328Y-85574060D02*
X151178328Y-85574060D01*
X151178328Y-85574060D02*
X151178328Y-85216917D01*
X151178328Y-85216917D02*
X151249757Y-85002631D01*
X151249757Y-85002631D02*
X151392614Y-84859774D01*
X151392614Y-84859774D02*
X151535471Y-84788345D01*
X151535471Y-84788345D02*
X151821185Y-84716917D01*
X151821185Y-84716917D02*
X152035471Y-84716917D01*
X152035471Y-84716917D02*
X152321185Y-84788345D01*
X152321185Y-84788345D02*
X152464042Y-84859774D01*
X152464042Y-84859774D02*
X152606900Y-85002631D01*
X152606900Y-85002631D02*
X152678328Y-85216917D01*
X152678328Y-85216917D02*
X152678328Y-85574060D01*
X167106900Y-88645489D02*
X167106900Y-87502632D01*
X167678328Y-86002631D02*
X167678328Y-86859774D01*
X167678328Y-86431203D02*
X166178328Y-86431203D01*
X166178328Y-86431203D02*
X166392614Y-86574060D01*
X166392614Y-86574060D02*
X166535471Y-86716917D01*
X166535471Y-86716917D02*
X166606900Y-86859774D01*
X166321185Y-85431203D02*
X166249757Y-85359775D01*
X166249757Y-85359775D02*
X166178328Y-85216918D01*
X166178328Y-85216918D02*
X166178328Y-84859775D01*
X166178328Y-84859775D02*
X166249757Y-84716918D01*
X166249757Y-84716918D02*
X166321185Y-84645489D01*
X166321185Y-84645489D02*
X166464042Y-84574060D01*
X166464042Y-84574060D02*
X166606900Y-84574060D01*
X166606900Y-84574060D02*
X166821185Y-84645489D01*
X166821185Y-84645489D02*
X167678328Y-85502632D01*
X167678328Y-85502632D02*
X167678328Y-84574060D01*
X166178328Y-84145489D02*
X167678328Y-83645489D01*
X167678328Y-83645489D02*
X166178328Y-83145489D01*
D12*
X202138571Y-111404819D02*
X202805237Y-111404819D01*
X202805237Y-111404819D02*
X202376666Y-112404819D01*
X203614761Y-111738152D02*
X203614761Y-112404819D01*
X203376666Y-111357200D02*
X203138571Y-112071485D01*
X203138571Y-112071485D02*
X203757618Y-112071485D01*
X204043333Y-112404819D02*
X204567142Y-111738152D01*
X204043333Y-111738152D02*
X204567142Y-112404819D01*
X204852857Y-112404819D02*
X205376666Y-111738152D01*
X204852857Y-111738152D02*
X205376666Y-112404819D01*
X205948095Y-111404819D02*
X206043333Y-111404819D01*
X206043333Y-111404819D02*
X206138571Y-111452438D01*
X206138571Y-111452438D02*
X206186190Y-111500057D01*
X206186190Y-111500057D02*
X206233809Y-111595295D01*
X206233809Y-111595295D02*
X206281428Y-111785771D01*
X206281428Y-111785771D02*
X206281428Y-112023866D01*
X206281428Y-112023866D02*
X206233809Y-112214342D01*
X206233809Y-112214342D02*
X206186190Y-112309580D01*
X206186190Y-112309580D02*
X206138571Y-112357200D01*
X206138571Y-112357200D02*
X206043333Y-112404819D01*
X206043333Y-112404819D02*
X205948095Y-112404819D01*
X205948095Y-112404819D02*
X205852857Y-112357200D01*
X205852857Y-112357200D02*
X205805238Y-112309580D01*
X205805238Y-112309580D02*
X205757619Y-112214342D01*
X205757619Y-112214342D02*
X205710000Y-112023866D01*
X205710000Y-112023866D02*
X205710000Y-111785771D01*
X205710000Y-111785771D02*
X205757619Y-111595295D01*
X205757619Y-111595295D02*
X205805238Y-111500057D01*
X205805238Y-111500057D02*
X205852857Y-111452438D01*
X205852857Y-111452438D02*
X205948095Y-111404819D01*
X207138571Y-111738152D02*
X207138571Y-112404819D01*
X206900476Y-111357200D02*
X206662381Y-112071485D01*
X206662381Y-112071485D02*
X207281428Y-112071485D01*
X191641707Y-119104371D02*
X192308374Y-119104371D01*
X191260755Y-119342466D02*
X191975040Y-119580561D01*
X191975040Y-119580561D02*
X191975040Y-118961514D01*
X192213135Y-118580561D02*
X192260755Y-118532942D01*
X192260755Y-118532942D02*
X192308374Y-118580561D01*
X192308374Y-118580561D02*
X192260755Y-118628180D01*
X192260755Y-118628180D02*
X192213135Y-118580561D01*
X192213135Y-118580561D02*
X192308374Y-118580561D01*
X191308374Y-118199609D02*
X191308374Y-117532943D01*
X191308374Y-117532943D02*
X192308374Y-117961514D01*
X192308374Y-117151990D02*
X191308374Y-117151990D01*
X192308374Y-116580562D02*
X191736945Y-117009133D01*
X191308374Y-116580562D02*
X191879802Y-117151990D01*
X160895145Y-131944612D02*
X160895145Y-130944612D01*
X160895145Y-130944612D02*
X161276097Y-130944612D01*
X161276097Y-130944612D02*
X161371335Y-130992231D01*
X161371335Y-130992231D02*
X161418954Y-131039850D01*
X161418954Y-131039850D02*
X161466573Y-131135088D01*
X161466573Y-131135088D02*
X161466573Y-131277945D01*
X161466573Y-131277945D02*
X161418954Y-131373183D01*
X161418954Y-131373183D02*
X161371335Y-131420802D01*
X161371335Y-131420802D02*
X161276097Y-131468421D01*
X161276097Y-131468421D02*
X160895145Y-131468421D01*
X161895145Y-131944612D02*
X161895145Y-131277945D01*
X161895145Y-130944612D02*
X161847526Y-130992231D01*
X161847526Y-130992231D02*
X161895145Y-131039850D01*
X161895145Y-131039850D02*
X161942764Y-130992231D01*
X161942764Y-130992231D02*
X161895145Y-130944612D01*
X161895145Y-130944612D02*
X161895145Y-131039850D01*
X162799906Y-131896993D02*
X162704668Y-131944612D01*
X162704668Y-131944612D02*
X162514192Y-131944612D01*
X162514192Y-131944612D02*
X162418954Y-131896993D01*
X162418954Y-131896993D02*
X162371335Y-131849373D01*
X162371335Y-131849373D02*
X162323716Y-131754135D01*
X162323716Y-131754135D02*
X162323716Y-131468421D01*
X162323716Y-131468421D02*
X162371335Y-131373183D01*
X162371335Y-131373183D02*
X162418954Y-131325564D01*
X162418954Y-131325564D02*
X162514192Y-131277945D01*
X162514192Y-131277945D02*
X162704668Y-131277945D01*
X162704668Y-131277945D02*
X162799906Y-131325564D01*
X163371335Y-131944612D02*
X163276097Y-131896993D01*
X163276097Y-131896993D02*
X163228478Y-131849373D01*
X163228478Y-131849373D02*
X163180859Y-131754135D01*
X163180859Y-131754135D02*
X163180859Y-131468421D01*
X163180859Y-131468421D02*
X163228478Y-131373183D01*
X163228478Y-131373183D02*
X163276097Y-131325564D01*
X163276097Y-131325564D02*
X163371335Y-131277945D01*
X163371335Y-131277945D02*
X163514192Y-131277945D01*
X163514192Y-131277945D02*
X163609430Y-131325564D01*
X163609430Y-131325564D02*
X163657049Y-131373183D01*
X163657049Y-131373183D02*
X163704668Y-131468421D01*
X163704668Y-131468421D02*
X163704668Y-131754135D01*
X163704668Y-131754135D02*
X163657049Y-131849373D01*
X163657049Y-131849373D02*
X163609430Y-131896993D01*
X163609430Y-131896993D02*
X163514192Y-131944612D01*
X163514192Y-131944612D02*
X163371335Y-131944612D01*
X164133240Y-131944612D02*
X164133240Y-130944612D01*
X164133240Y-130944612D02*
X164514192Y-130944612D01*
X164514192Y-130944612D02*
X164609430Y-130992231D01*
X164609430Y-130992231D02*
X164657049Y-131039850D01*
X164657049Y-131039850D02*
X164704668Y-131135088D01*
X164704668Y-131135088D02*
X164704668Y-131277945D01*
X164704668Y-131277945D02*
X164657049Y-131373183D01*
X164657049Y-131373183D02*
X164609430Y-131420802D01*
X164609430Y-131420802D02*
X164514192Y-131468421D01*
X164514192Y-131468421D02*
X164133240Y-131468421D01*
X165085621Y-131896993D02*
X165228478Y-131944612D01*
X165228478Y-131944612D02*
X165466573Y-131944612D01*
X165466573Y-131944612D02*
X165561811Y-131896993D01*
X165561811Y-131896993D02*
X165609430Y-131849373D01*
X165609430Y-131849373D02*
X165657049Y-131754135D01*
X165657049Y-131754135D02*
X165657049Y-131658897D01*
X165657049Y-131658897D02*
X165609430Y-131563659D01*
X165609430Y-131563659D02*
X165561811Y-131516040D01*
X165561811Y-131516040D02*
X165466573Y-131468421D01*
X165466573Y-131468421D02*
X165276097Y-131420802D01*
X165276097Y-131420802D02*
X165180859Y-131373183D01*
X165180859Y-131373183D02*
X165133240Y-131325564D01*
X165133240Y-131325564D02*
X165085621Y-131230326D01*
X165085621Y-131230326D02*
X165085621Y-131135088D01*
X165085621Y-131135088D02*
X165133240Y-131039850D01*
X165133240Y-131039850D02*
X165180859Y-130992231D01*
X165180859Y-130992231D02*
X165276097Y-130944612D01*
X165276097Y-130944612D02*
X165514192Y-130944612D01*
X165514192Y-130944612D02*
X165657049Y-130992231D01*
X166085621Y-130944612D02*
X166085621Y-131754135D01*
X166085621Y-131754135D02*
X166133240Y-131849373D01*
X166133240Y-131849373D02*
X166180859Y-131896993D01*
X166180859Y-131896993D02*
X166276097Y-131944612D01*
X166276097Y-131944612D02*
X166466573Y-131944612D01*
X166466573Y-131944612D02*
X166561811Y-131896993D01*
X166561811Y-131896993D02*
X166609430Y-131849373D01*
X166609430Y-131849373D02*
X166657049Y-131754135D01*
X166657049Y-131754135D02*
X166657049Y-130944612D01*
D11*
X98504828Y-86791802D02*
X98359686Y-86719231D01*
X98359686Y-86719231D02*
X98141971Y-86719231D01*
X98141971Y-86719231D02*
X97924257Y-86791802D01*
X97924257Y-86791802D02*
X97779114Y-86936945D01*
X97779114Y-86936945D02*
X97706543Y-87082088D01*
X97706543Y-87082088D02*
X97633971Y-87372374D01*
X97633971Y-87372374D02*
X97633971Y-87590088D01*
X97633971Y-87590088D02*
X97706543Y-87880374D01*
X97706543Y-87880374D02*
X97779114Y-88025517D01*
X97779114Y-88025517D02*
X97924257Y-88170660D01*
X97924257Y-88170660D02*
X98141971Y-88243231D01*
X98141971Y-88243231D02*
X98287114Y-88243231D01*
X98287114Y-88243231D02*
X98504828Y-88170660D01*
X98504828Y-88170660D02*
X98577400Y-88098088D01*
X98577400Y-88098088D02*
X98577400Y-87590088D01*
X98577400Y-87590088D02*
X98287114Y-87590088D01*
X99448257Y-86719231D02*
X99448257Y-87082088D01*
X99085400Y-86936945D02*
X99448257Y-87082088D01*
X99448257Y-87082088D02*
X99811114Y-86936945D01*
X99230543Y-87372374D02*
X99448257Y-87082088D01*
X99448257Y-87082088D02*
X99665971Y-87372374D01*
X100609400Y-86719231D02*
X100609400Y-87082088D01*
X100246543Y-86936945D02*
X100609400Y-87082088D01*
X100609400Y-87082088D02*
X100972257Y-86936945D01*
X100391686Y-87372374D02*
X100609400Y-87082088D01*
X100609400Y-87082088D02*
X100827114Y-87372374D01*
X101770543Y-86719231D02*
X101770543Y-87082088D01*
X101407686Y-86936945D02*
X101770543Y-87082088D01*
X101770543Y-87082088D02*
X102133400Y-86936945D01*
X101552829Y-87372374D02*
X101770543Y-87082088D01*
X101770543Y-87082088D02*
X101988257Y-87372374D01*
D12*
X97584974Y-56633401D02*
X97584974Y-56966734D01*
X98108784Y-56966734D02*
X97108784Y-56966734D01*
X97108784Y-56966734D02*
X97108784Y-56490544D01*
X98108784Y-55681020D02*
X97584974Y-55681020D01*
X97584974Y-55681020D02*
X97489736Y-55728639D01*
X97489736Y-55728639D02*
X97442117Y-55823877D01*
X97442117Y-55823877D02*
X97442117Y-56014353D01*
X97442117Y-56014353D02*
X97489736Y-56109591D01*
X98061165Y-55681020D02*
X98108784Y-55776258D01*
X98108784Y-55776258D02*
X98108784Y-56014353D01*
X98108784Y-56014353D02*
X98061165Y-56109591D01*
X98061165Y-56109591D02*
X97965926Y-56157210D01*
X97965926Y-56157210D02*
X97870688Y-56157210D01*
X97870688Y-56157210D02*
X97775450Y-56109591D01*
X97775450Y-56109591D02*
X97727831Y-56014353D01*
X97727831Y-56014353D02*
X97727831Y-55776258D01*
X97727831Y-55776258D02*
X97680212Y-55681020D01*
X97442117Y-55204829D02*
X98108784Y-55204829D01*
X97537355Y-55204829D02*
X97489736Y-55157210D01*
X97489736Y-55157210D02*
X97442117Y-55061972D01*
X97442117Y-55061972D02*
X97442117Y-54919115D01*
X97442117Y-54919115D02*
X97489736Y-54823877D01*
X97489736Y-54823877D02*
X97584974Y-54776258D01*
X97584974Y-54776258D02*
X98108784Y-54776258D01*
D14*
X199570000Y-112890000D02*
X199570000Y-130910000D01*
X199570000Y-130910000D02*
X209850000Y-130910000D01*
X202060000Y-112950000D02*
X202060000Y-130850000D01*
X202060000Y-130850000D02*
X207360000Y-130850000D01*
X203710000Y-112950000D02*
X202060000Y-112950000D01*
X207360000Y-112950000D02*
X205710000Y-112950000D01*
X207360000Y-130850000D02*
X207360000Y-112950000D01*
X209850000Y-112890000D02*
X199570000Y-112890000D01*
X209850000Y-130910000D02*
X209850000Y-112890000D01*
X205710000Y-112950000D02*
G75*
G02*
X203710000Y-112950000I-1000000J0D01*
G01*
X192853555Y-114810562D02*
X193183555Y-114810562D01*
X192853555Y-121350562D02*
X192853555Y-114810562D01*
X193183555Y-121350562D02*
X192853555Y-121350562D01*
X195263555Y-121350562D02*
X195593555Y-121350562D01*
X195593555Y-114810562D02*
X195263555Y-114810562D01*
X195593555Y-121350562D02*
X195593555Y-114810562D01*
D15*
X222540000Y-134866128D02*
X222178047Y-134519988D01*
X221397745Y-133773774D01*
X221040799Y-133426971D01*
X220733909Y-133118322D01*
X220495407Y-132867143D01*
X220365674Y-132718083D01*
X220911199Y-132718083D01*
X221532980Y-133344042D01*
X221791700Y-133602398D01*
X222002447Y-133808878D01*
X222139386Y-133938417D01*
X222178047Y-133970000D01*
X222187025Y-133890781D01*
X222194396Y-133674903D01*
X222199413Y-133355041D01*
X222201331Y-132963869D01*
X222201333Y-132951022D01*
X222201333Y-131932043D01*
X222013559Y-132032536D01*
X221842531Y-132131478D01*
X221590504Y-132285578D01*
X221368492Y-132425557D01*
X220911199Y-132718083D01*
X220365674Y-132718083D01*
X220343625Y-132692749D01*
X220296896Y-132614455D01*
X220297081Y-132614124D01*
X220388170Y-132539133D01*
X220581998Y-132413280D01*
X220783169Y-132294564D01*
X221072187Y-132128503D01*
X221437174Y-131915970D01*
X221808765Y-131697401D01*
X221883833Y-131652925D01*
X222540000Y-131263550D01*
X222540000Y-134866128D01*
G36*
X222540000Y-134866128D02*
G01*
X222178047Y-134519988D01*
X221397745Y-133773774D01*
X221040799Y-133426971D01*
X220733909Y-133118322D01*
X220495407Y-132867143D01*
X220365674Y-132718083D01*
X220911199Y-132718083D01*
X221532980Y-133344042D01*
X221791700Y-133602398D01*
X222002447Y-133808878D01*
X222139386Y-133938417D01*
X222178047Y-133970000D01*
X222187025Y-133890781D01*
X222194396Y-133674903D01*
X222199413Y-133355041D01*
X222201331Y-132963869D01*
X222201333Y-132951022D01*
X222201333Y-131932043D01*
X222013559Y-132032536D01*
X221842531Y-132131478D01*
X221590504Y-132285578D01*
X221368492Y-132425557D01*
X220911199Y-132718083D01*
X220365674Y-132718083D01*
X220343625Y-132692749D01*
X220296896Y-132614455D01*
X220297081Y-132614124D01*
X220388170Y-132539133D01*
X220581998Y-132413280D01*
X220783169Y-132294564D01*
X221072187Y-132128503D01*
X221437174Y-131915970D01*
X221808765Y-131697401D01*
X221883833Y-131652925D01*
X222540000Y-131263550D01*
X222540000Y-134866128D01*
G37*
X217656737Y-125729197D02*
X217821007Y-125871091D01*
X218057965Y-126088848D01*
X218344602Y-126360018D01*
X218657910Y-126662155D01*
X218974880Y-126972809D01*
X219272502Y-127269533D01*
X219527769Y-127529878D01*
X219717671Y-127731396D01*
X219819199Y-127851639D01*
X219829955Y-127872779D01*
X219760309Y-127927889D01*
X219568735Y-128051150D01*
X219280499Y-128227005D01*
X218920868Y-128439897D01*
X218708122Y-128563486D01*
X217946833Y-129002929D01*
X217587000Y-129210638D01*
X217564201Y-127481008D01*
X217883333Y-127481008D01*
X217887955Y-127884063D01*
X217900597Y-128214748D01*
X217919419Y-128442484D01*
X217942584Y-128536692D01*
X217946833Y-128537223D01*
X218144175Y-128435313D01*
X218396169Y-128286387D01*
X218662862Y-128116718D01*
X218904302Y-127952579D01*
X219080539Y-127820242D01*
X219151620Y-127745980D01*
X219151711Y-127744882D01*
X219095625Y-127652746D01*
X218942760Y-127471769D01*
X218718344Y-127230533D01*
X218518333Y-127027334D01*
X217883333Y-126396572D01*
X217883333Y-127481008D01*
X217564201Y-127481008D01*
X217564077Y-127471630D01*
X217559367Y-126946070D01*
X217559411Y-126479668D01*
X217563858Y-126098340D01*
X217572361Y-125827997D01*
X217584568Y-125694553D01*
X217588164Y-125685613D01*
X217656737Y-125729197D01*
G36*
X217656737Y-125729197D02*
G01*
X217821007Y-125871091D01*
X218057965Y-126088848D01*
X218344602Y-126360018D01*
X218657910Y-126662155D01*
X218974880Y-126972809D01*
X219272502Y-127269533D01*
X219527769Y-127529878D01*
X219717671Y-127731396D01*
X219819199Y-127851639D01*
X219829955Y-127872779D01*
X219760309Y-127927889D01*
X219568735Y-128051150D01*
X219280499Y-128227005D01*
X218920868Y-128439897D01*
X218708122Y-128563486D01*
X217946833Y-129002929D01*
X217587000Y-129210638D01*
X217564201Y-127481008D01*
X217883333Y-127481008D01*
X217887955Y-127884063D01*
X217900597Y-128214748D01*
X217919419Y-128442484D01*
X217942584Y-128536692D01*
X217946833Y-128537223D01*
X218144175Y-128435313D01*
X218396169Y-128286387D01*
X218662862Y-128116718D01*
X218904302Y-127952579D01*
X219080539Y-127820242D01*
X219151620Y-127745980D01*
X219151711Y-127744882D01*
X219095625Y-127652746D01*
X218942760Y-127471769D01*
X218718344Y-127230533D01*
X218518333Y-127027334D01*
X217883333Y-126396572D01*
X217883333Y-127481008D01*
X217564201Y-127481008D01*
X217564077Y-127471630D01*
X217559367Y-126946070D01*
X217559411Y-126479668D01*
X217563858Y-126098340D01*
X217572361Y-125827997D01*
X217584568Y-125694553D01*
X217588164Y-125685613D01*
X217656737Y-125729197D01*
G37*
X222494379Y-126869329D02*
X222510310Y-127086219D01*
X222523548Y-127426689D01*
X222533344Y-127867864D01*
X222538952Y-128386870D01*
X222540000Y-128744501D01*
X222540000Y-130725663D01*
X220444500Y-131955156D01*
X219882987Y-132284453D01*
X219349312Y-132597126D01*
X218866690Y-132879597D01*
X218458337Y-133118287D01*
X218147467Y-133299617D01*
X217957297Y-133410009D01*
X217946833Y-133416037D01*
X217883333Y-133452571D01*
X217544666Y-133647424D01*
X217544666Y-133022480D01*
X217883333Y-133022480D01*
X219998118Y-131785262D01*
X222112903Y-130548043D01*
X222135951Y-129062855D01*
X222140463Y-128580447D01*
X222138726Y-128160582D01*
X222131317Y-127830930D01*
X222118813Y-127619159D01*
X222104465Y-127552433D01*
X222016725Y-127584621D01*
X221809405Y-127689837D01*
X221508235Y-127854169D01*
X221138945Y-128063704D01*
X220876798Y-128216242D01*
X220381359Y-128506428D01*
X219846103Y-128818591D01*
X219328317Y-129119398D01*
X218885288Y-129375520D01*
X218796151Y-129426809D01*
X217888636Y-129948334D01*
X217885984Y-131485407D01*
X217883333Y-133022480D01*
X217544666Y-133022480D01*
X217544666Y-129671257D01*
X219978833Y-128252852D01*
X220562452Y-127912815D01*
X221099637Y-127599913D01*
X221572816Y-127324375D01*
X221964417Y-127096430D01*
X222256867Y-126926308D01*
X222432595Y-126824237D01*
X222476500Y-126798893D01*
X222494379Y-126869329D01*
G36*
X222494379Y-126869329D02*
G01*
X222510310Y-127086219D01*
X222523548Y-127426689D01*
X222533344Y-127867864D01*
X222538952Y-128386870D01*
X222540000Y-128744501D01*
X222540000Y-130725663D01*
X220444500Y-131955156D01*
X219882987Y-132284453D01*
X219349312Y-132597126D01*
X218866690Y-132879597D01*
X218458337Y-133118287D01*
X218147467Y-133299617D01*
X217957297Y-133410009D01*
X217946833Y-133416037D01*
X217883333Y-133452571D01*
X217544666Y-133647424D01*
X217544666Y-133022480D01*
X217883333Y-133022480D01*
X219998118Y-131785262D01*
X222112903Y-130548043D01*
X222135951Y-129062855D01*
X222140463Y-128580447D01*
X222138726Y-128160582D01*
X222131317Y-127830930D01*
X222118813Y-127619159D01*
X222104465Y-127552433D01*
X222016725Y-127584621D01*
X221809405Y-127689837D01*
X221508235Y-127854169D01*
X221138945Y-128063704D01*
X220876798Y-128216242D01*
X220381359Y-128506428D01*
X219846103Y-128818591D01*
X219328317Y-129119398D01*
X218885288Y-129375520D01*
X218796151Y-129426809D01*
X217888636Y-129948334D01*
X217885984Y-131485407D01*
X217883333Y-133022480D01*
X217544666Y-133022480D01*
X217544666Y-129671257D01*
X219978833Y-128252852D01*
X220562452Y-127912815D01*
X221099637Y-127599913D01*
X221572816Y-127324375D01*
X221964417Y-127096430D01*
X222256867Y-126926308D01*
X222432595Y-126824237D01*
X222476500Y-126798893D01*
X222494379Y-126869329D01*
G37*
X219181643Y-105131419D02*
X219736729Y-105214477D01*
X220223043Y-105305598D01*
X220850658Y-105438953D01*
X221329979Y-105573930D01*
X221680791Y-105732733D01*
X221922878Y-105937567D01*
X222076026Y-106210636D01*
X222160017Y-106574145D01*
X222194637Y-107050297D01*
X222200085Y-107524463D01*
X222189665Y-108086117D01*
X222160438Y-108504183D01*
X222113280Y-108768125D01*
X222091774Y-108824000D01*
X221937676Y-109013308D01*
X221733188Y-109156774D01*
X221614487Y-109203272D01*
X221477417Y-109225826D01*
X221289747Y-109222742D01*
X221069123Y-109197933D01*
X221019249Y-109192324D01*
X220633693Y-109132876D01*
X220338666Y-109083409D01*
X219634857Y-108952402D01*
X219080213Y-108820363D01*
X218654765Y-108678057D01*
X218338544Y-108516251D01*
X218111579Y-108325711D01*
X217953903Y-108097202D01*
X217888973Y-107950655D01*
X217839750Y-107719539D01*
X217809679Y-107370098D01*
X217798157Y-106951046D01*
X217799000Y-106893299D01*
X218394939Y-106893299D01*
X218408741Y-107263314D01*
X218436223Y-107572694D01*
X218475656Y-107764764D01*
X218595158Y-107938200D01*
X218823049Y-108091766D01*
X219174986Y-108231857D01*
X219666630Y-108364866D01*
X220232507Y-108482117D01*
X220719644Y-108564856D01*
X221069123Y-108599735D01*
X221306279Y-108584802D01*
X221456447Y-108518107D01*
X221544959Y-108397698D01*
X221552270Y-108380471D01*
X221582675Y-108210638D01*
X221598759Y-107923026D01*
X221601550Y-107568188D01*
X221592073Y-107196676D01*
X221571354Y-106859043D01*
X221540418Y-106605842D01*
X221514269Y-106508122D01*
X221404560Y-106356777D01*
X221211301Y-106225828D01*
X220913847Y-106107288D01*
X220491548Y-105993171D01*
X219923758Y-105875489D01*
X219836862Y-105859269D01*
X219330398Y-105773170D01*
X218964047Y-105732054D01*
X218714189Y-105737725D01*
X218557201Y-105791989D01*
X218469463Y-105896647D01*
X218444939Y-105965574D01*
X218412106Y-106189817D01*
X218395750Y-106517262D01*
X218394939Y-106893299D01*
X217799000Y-106893299D01*
X217804579Y-106511096D01*
X217828342Y-106098961D01*
X217868841Y-105763352D01*
X217918498Y-105568429D01*
X218036195Y-105359779D01*
X218201345Y-105214035D01*
X218433963Y-105128916D01*
X218754058Y-105102137D01*
X219181643Y-105131419D01*
G36*
X219181643Y-105131419D02*
G01*
X219736729Y-105214477D01*
X220223043Y-105305598D01*
X220850658Y-105438953D01*
X221329979Y-105573930D01*
X221680791Y-105732733D01*
X221922878Y-105937567D01*
X222076026Y-106210636D01*
X222160017Y-106574145D01*
X222194637Y-107050297D01*
X222200085Y-107524463D01*
X222189665Y-108086117D01*
X222160438Y-108504183D01*
X222113280Y-108768125D01*
X222091774Y-108824000D01*
X221937676Y-109013308D01*
X221733188Y-109156774D01*
X221614487Y-109203272D01*
X221477417Y-109225826D01*
X221289747Y-109222742D01*
X221069123Y-109197933D01*
X221019249Y-109192324D01*
X220633693Y-109132876D01*
X220338666Y-109083409D01*
X219634857Y-108952402D01*
X219080213Y-108820363D01*
X218654765Y-108678057D01*
X218338544Y-108516251D01*
X218111579Y-108325711D01*
X217953903Y-108097202D01*
X217888973Y-107950655D01*
X217839750Y-107719539D01*
X217809679Y-107370098D01*
X217798157Y-106951046D01*
X217799000Y-106893299D01*
X218394939Y-106893299D01*
X218408741Y-107263314D01*
X218436223Y-107572694D01*
X218475656Y-107764764D01*
X218595158Y-107938200D01*
X218823049Y-108091766D01*
X219174986Y-108231857D01*
X219666630Y-108364866D01*
X220232507Y-108482117D01*
X220719644Y-108564856D01*
X221069123Y-108599735D01*
X221306279Y-108584802D01*
X221456447Y-108518107D01*
X221544959Y-108397698D01*
X221552270Y-108380471D01*
X221582675Y-108210638D01*
X221598759Y-107923026D01*
X221601550Y-107568188D01*
X221592073Y-107196676D01*
X221571354Y-106859043D01*
X221540418Y-106605842D01*
X221514269Y-106508122D01*
X221404560Y-106356777D01*
X221211301Y-106225828D01*
X220913847Y-106107288D01*
X220491548Y-105993171D01*
X219923758Y-105875489D01*
X219836862Y-105859269D01*
X219330398Y-105773170D01*
X218964047Y-105732054D01*
X218714189Y-105737725D01*
X218557201Y-105791989D01*
X218469463Y-105896647D01*
X218444939Y-105965574D01*
X218412106Y-106189817D01*
X218395750Y-106517262D01*
X218394939Y-106893299D01*
X217799000Y-106893299D01*
X217804579Y-106511096D01*
X217828342Y-106098961D01*
X217868841Y-105763352D01*
X217918498Y-105568429D01*
X218036195Y-105359779D01*
X218201345Y-105214035D01*
X218433963Y-105128916D01*
X218754058Y-105102137D01*
X219181643Y-105131419D01*
G37*
X219000558Y-113312020D02*
X219489755Y-113367020D01*
X220114622Y-113474550D01*
X220321550Y-113515144D01*
X220931377Y-113647423D01*
X221393400Y-113783426D01*
X221727947Y-113947045D01*
X221955340Y-114162173D01*
X222095907Y-114452702D01*
X222169972Y-114842525D01*
X222197859Y-115355535D01*
X222200885Y-115724334D01*
X222197502Y-116194421D01*
X222184717Y-116529915D01*
X222158299Y-116765478D01*
X222114017Y-116935770D01*
X222047638Y-117075453D01*
X222032927Y-117100167D01*
X221936644Y-117244230D01*
X221836276Y-117326506D01*
X221683988Y-117364283D01*
X221431947Y-117374850D01*
X221271556Y-117375334D01*
X221189638Y-117370771D01*
X220893798Y-117354290D01*
X220435881Y-117297019D01*
X219940031Y-117212307D01*
X219448474Y-117108944D01*
X219003437Y-116995718D01*
X218647147Y-116881415D01*
X218438654Y-116785750D01*
X218203622Y-116620295D01*
X218037956Y-116440128D01*
X217928503Y-116211340D01*
X217862111Y-115900019D01*
X217825627Y-115472254D01*
X217813509Y-115174000D01*
X217810208Y-114941038D01*
X218390545Y-114941038D01*
X218402629Y-115327562D01*
X218434037Y-115676040D01*
X218483892Y-115935011D01*
X218511983Y-116008388D01*
X218619808Y-116165345D01*
X218779329Y-116291171D01*
X219018359Y-116397658D01*
X219364711Y-116496599D01*
X219846199Y-116599787D01*
X219957498Y-116621273D01*
X220502546Y-116718042D01*
X220905961Y-116770449D01*
X221189638Y-116778089D01*
X221375475Y-116740553D01*
X221485368Y-116657434D01*
X221521361Y-116592167D01*
X221572366Y-116363484D01*
X221599607Y-116027856D01*
X221604150Y-115638903D01*
X221587059Y-115250241D01*
X221549400Y-114915488D01*
X221492239Y-114688262D01*
X221483139Y-114668848D01*
X221402595Y-114544430D01*
X221287814Y-114443913D01*
X221112094Y-114356819D01*
X220848736Y-114272667D01*
X220471038Y-114180978D01*
X219969513Y-114074794D01*
X219441284Y-113974128D01*
X219052996Y-113919943D01*
X218781791Y-113912133D01*
X218604813Y-113950588D01*
X218499204Y-114035201D01*
X218478978Y-114067768D01*
X218427844Y-114259681D01*
X218398658Y-114567924D01*
X218390545Y-114941038D01*
X217810208Y-114941038D01*
X217805477Y-114607093D01*
X217826074Y-114181520D01*
X217880500Y-113870911D01*
X217973952Y-113648897D01*
X218111630Y-113489106D01*
X218151987Y-113456968D01*
X218351173Y-113357517D01*
X218627530Y-113309027D01*
X219000558Y-113312020D01*
G36*
X219000558Y-113312020D02*
G01*
X219489755Y-113367020D01*
X220114622Y-113474550D01*
X220321550Y-113515144D01*
X220931377Y-113647423D01*
X221393400Y-113783426D01*
X221727947Y-113947045D01*
X221955340Y-114162173D01*
X222095907Y-114452702D01*
X222169972Y-114842525D01*
X222197859Y-115355535D01*
X222200885Y-115724334D01*
X222197502Y-116194421D01*
X222184717Y-116529915D01*
X222158299Y-116765478D01*
X222114017Y-116935770D01*
X222047638Y-117075453D01*
X222032927Y-117100167D01*
X221936644Y-117244230D01*
X221836276Y-117326506D01*
X221683988Y-117364283D01*
X221431947Y-117374850D01*
X221271556Y-117375334D01*
X221189638Y-117370771D01*
X220893798Y-117354290D01*
X220435881Y-117297019D01*
X219940031Y-117212307D01*
X219448474Y-117108944D01*
X219003437Y-116995718D01*
X218647147Y-116881415D01*
X218438654Y-116785750D01*
X218203622Y-116620295D01*
X218037956Y-116440128D01*
X217928503Y-116211340D01*
X217862111Y-115900019D01*
X217825627Y-115472254D01*
X217813509Y-115174000D01*
X217810208Y-114941038D01*
X218390545Y-114941038D01*
X218402629Y-115327562D01*
X218434037Y-115676040D01*
X218483892Y-115935011D01*
X218511983Y-116008388D01*
X218619808Y-116165345D01*
X218779329Y-116291171D01*
X219018359Y-116397658D01*
X219364711Y-116496599D01*
X219846199Y-116599787D01*
X219957498Y-116621273D01*
X220502546Y-116718042D01*
X220905961Y-116770449D01*
X221189638Y-116778089D01*
X221375475Y-116740553D01*
X221485368Y-116657434D01*
X221521361Y-116592167D01*
X221572366Y-116363484D01*
X221599607Y-116027856D01*
X221604150Y-115638903D01*
X221587059Y-115250241D01*
X221549400Y-114915488D01*
X221492239Y-114688262D01*
X221483139Y-114668848D01*
X221402595Y-114544430D01*
X221287814Y-114443913D01*
X221112094Y-114356819D01*
X220848736Y-114272667D01*
X220471038Y-114180978D01*
X219969513Y-114074794D01*
X219441284Y-113974128D01*
X219052996Y-113919943D01*
X218781791Y-113912133D01*
X218604813Y-113950588D01*
X218499204Y-114035201D01*
X218478978Y-114067768D01*
X218427844Y-114259681D01*
X218398658Y-114567924D01*
X218390545Y-114941038D01*
X217810208Y-114941038D01*
X217805477Y-114607093D01*
X217826074Y-114181520D01*
X217880500Y-113870911D01*
X217973952Y-113648897D01*
X218111630Y-113489106D01*
X218151987Y-113456968D01*
X218351173Y-113357517D01*
X218627530Y-113309027D01*
X219000558Y-113312020D01*
G37*
X219033558Y-121614555D02*
X219128628Y-121695836D01*
X219152705Y-121866351D01*
X219153333Y-121949411D01*
X219141274Y-122162758D01*
X219077078Y-122260901D01*
X218918713Y-122297665D01*
X218878166Y-122301803D01*
X218603000Y-122328334D01*
X218579279Y-123307734D01*
X218573555Y-123779811D01*
X218592210Y-124112320D01*
X218648906Y-124334686D01*
X218757304Y-124476336D01*
X218931063Y-124566694D01*
X219183846Y-124635187D01*
X219196917Y-124638141D01*
X219534333Y-124714084D01*
X219507521Y-123690542D01*
X219507079Y-123511556D01*
X220100933Y-123511556D01*
X220125756Y-123951054D01*
X220171632Y-124356153D01*
X220247803Y-124625379D01*
X220383079Y-124792184D01*
X220606273Y-124890021D01*
X220946197Y-124952343D01*
X220993587Y-124958681D01*
X221255253Y-124986342D01*
X221400582Y-124971873D01*
X221480165Y-124901578D01*
X221522258Y-124815576D01*
X221557743Y-124642970D01*
X221580122Y-124352273D01*
X221586254Y-123994434D01*
X221583019Y-123829534D01*
X221564582Y-123437025D01*
X221533693Y-123175308D01*
X221482619Y-123005910D01*
X221403631Y-122890355D01*
X221391841Y-122878212D01*
X221199442Y-122757691D01*
X220923979Y-122663201D01*
X220632330Y-122609633D01*
X220391375Y-122611878D01*
X220312153Y-122637822D01*
X220186192Y-122789557D01*
X220116203Y-123077866D01*
X220100933Y-123511556D01*
X219507079Y-123511556D01*
X219505950Y-123054180D01*
X219545009Y-122568191D01*
X219634014Y-122216538D01*
X219782284Y-121983182D01*
X219999136Y-121852082D01*
X220293889Y-121807201D01*
X220592666Y-121822663D01*
X220964162Y-121896296D01*
X221357876Y-122028070D01*
X221717292Y-122194286D01*
X221985892Y-122371245D01*
X222050176Y-122433821D01*
X222144908Y-122642549D01*
X222205816Y-123006465D01*
X222232052Y-123514664D01*
X222222768Y-124156242D01*
X222207996Y-124464205D01*
X222171648Y-124904142D01*
X222106284Y-125241324D01*
X221993557Y-125483827D01*
X221815125Y-125639725D01*
X221552641Y-125717092D01*
X221255253Y-125722724D01*
X221187762Y-125724003D01*
X220702144Y-125668532D01*
X220077441Y-125558754D01*
X219830666Y-125510605D01*
X219195338Y-125377383D01*
X218708067Y-125246777D01*
X218349324Y-125097140D01*
X218099580Y-124906823D01*
X217939308Y-124654180D01*
X217848977Y-124317562D01*
X217809059Y-123875322D01*
X217800025Y-123305812D01*
X217800046Y-123259667D01*
X217810317Y-122691810D01*
X217839323Y-122270358D01*
X217886297Y-122004620D01*
X217908225Y-121947334D01*
X218122350Y-121699796D01*
X218437684Y-121568373D01*
X218819020Y-121567069D01*
X219033558Y-121614555D01*
G36*
X219033558Y-121614555D02*
G01*
X219128628Y-121695836D01*
X219152705Y-121866351D01*
X219153333Y-121949411D01*
X219141274Y-122162758D01*
X219077078Y-122260901D01*
X218918713Y-122297665D01*
X218878166Y-122301803D01*
X218603000Y-122328334D01*
X218579279Y-123307734D01*
X218573555Y-123779811D01*
X218592210Y-124112320D01*
X218648906Y-124334686D01*
X218757304Y-124476336D01*
X218931063Y-124566694D01*
X219183846Y-124635187D01*
X219196917Y-124638141D01*
X219534333Y-124714084D01*
X219507521Y-123690542D01*
X219507079Y-123511556D01*
X220100933Y-123511556D01*
X220125756Y-123951054D01*
X220171632Y-124356153D01*
X220247803Y-124625379D01*
X220383079Y-124792184D01*
X220606273Y-124890021D01*
X220946197Y-124952343D01*
X220993587Y-124958681D01*
X221255253Y-124986342D01*
X221400582Y-124971873D01*
X221480165Y-124901578D01*
X221522258Y-124815576D01*
X221557743Y-124642970D01*
X221580122Y-124352273D01*
X221586254Y-123994434D01*
X221583019Y-123829534D01*
X221564582Y-123437025D01*
X221533693Y-123175308D01*
X221482619Y-123005910D01*
X221403631Y-122890355D01*
X221391841Y-122878212D01*
X221199442Y-122757691D01*
X220923979Y-122663201D01*
X220632330Y-122609633D01*
X220391375Y-122611878D01*
X220312153Y-122637822D01*
X220186192Y-122789557D01*
X220116203Y-123077866D01*
X220100933Y-123511556D01*
X219507079Y-123511556D01*
X219505950Y-123054180D01*
X219545009Y-122568191D01*
X219634014Y-122216538D01*
X219782284Y-121983182D01*
X219999136Y-121852082D01*
X220293889Y-121807201D01*
X220592666Y-121822663D01*
X220964162Y-121896296D01*
X221357876Y-122028070D01*
X221717292Y-122194286D01*
X221985892Y-122371245D01*
X222050176Y-122433821D01*
X222144908Y-122642549D01*
X222205816Y-123006465D01*
X222232052Y-123514664D01*
X222222768Y-124156242D01*
X222207996Y-124464205D01*
X222171648Y-124904142D01*
X222106284Y-125241324D01*
X221993557Y-125483827D01*
X221815125Y-125639725D01*
X221552641Y-125717092D01*
X221255253Y-125722724D01*
X221187762Y-125724003D01*
X220702144Y-125668532D01*
X220077441Y-125558754D01*
X219830666Y-125510605D01*
X219195338Y-125377383D01*
X218708067Y-125246777D01*
X218349324Y-125097140D01*
X218099580Y-124906823D01*
X217939308Y-124654180D01*
X217848977Y-124317562D01*
X217809059Y-123875322D01*
X217800025Y-123305812D01*
X217800046Y-123259667D01*
X217810317Y-122691810D01*
X217839323Y-122270358D01*
X217886297Y-122004620D01*
X217908225Y-121947334D01*
X218122350Y-121699796D01*
X218437684Y-121568373D01*
X218819020Y-121567069D01*
X219033558Y-121614555D01*
G37*
X218940942Y-109191656D02*
X219236366Y-109228838D01*
X219643388Y-109296313D01*
X219974990Y-109356041D01*
X220587014Y-109475619D01*
X221055910Y-109587781D01*
X221406973Y-109702644D01*
X221665499Y-109830329D01*
X221856781Y-109980955D01*
X222006116Y-110164641D01*
X222009716Y-110170021D01*
X222087466Y-110299802D01*
X222140757Y-110437107D01*
X222174042Y-110615846D01*
X222191776Y-110869927D01*
X222198411Y-111233258D01*
X222198758Y-111609355D01*
X222190882Y-112082182D01*
X222170997Y-112480712D01*
X222141372Y-112773477D01*
X222104274Y-112929010D01*
X222103565Y-112930334D01*
X221966640Y-113116316D01*
X221779918Y-113239149D01*
X221521251Y-113301119D01*
X221288864Y-113303355D01*
X221168487Y-113304514D01*
X220699477Y-113251622D01*
X220092071Y-113144730D01*
X220069723Y-113140370D01*
X219463515Y-113013463D01*
X219000573Y-112895307D01*
X218655744Y-112777071D01*
X218403877Y-112649927D01*
X218219819Y-112505044D01*
X218198725Y-112483571D01*
X218032770Y-112281961D01*
X217918666Y-112061447D01*
X217847546Y-111785780D01*
X217810545Y-111418713D01*
X217800223Y-110983947D01*
X218391333Y-110983947D01*
X218394010Y-111364939D01*
X218408303Y-111618012D01*
X218443601Y-111784569D01*
X218509296Y-111906011D01*
X218614777Y-112023738D01*
X218630838Y-112039865D01*
X218769647Y-112162168D01*
X218930708Y-112260559D01*
X219143050Y-112344342D01*
X219435706Y-112422820D01*
X219837706Y-112505298D01*
X220378082Y-112601078D01*
X220386489Y-112602511D01*
X221288864Y-112756181D01*
X221448765Y-112558711D01*
X221528442Y-112428995D01*
X221577024Y-112253429D01*
X221601144Y-111991399D01*
X221607437Y-111602292D01*
X221607418Y-111587454D01*
X221594427Y-111180287D01*
X221560117Y-110844644D01*
X221509408Y-110625304D01*
X221499107Y-110602000D01*
X221394901Y-110451178D01*
X221235066Y-110329070D01*
X220992407Y-110224363D01*
X220639727Y-110125745D01*
X220149832Y-110021900D01*
X220065810Y-110005741D01*
X219512589Y-109907880D01*
X219101252Y-109854862D01*
X218810402Y-109846662D01*
X218618640Y-109883252D01*
X218504570Y-109964607D01*
X218478978Y-110003768D01*
X218440791Y-110157199D01*
X218411025Y-110433005D01*
X218393874Y-110784279D01*
X218391333Y-110983947D01*
X217800223Y-110983947D01*
X217798800Y-110923998D01*
X217798666Y-110847769D01*
X217809777Y-110302308D01*
X217849328Y-109899802D01*
X217926650Y-109614954D01*
X218051070Y-109422469D01*
X218231918Y-109297050D01*
X218392740Y-109236909D01*
X218552281Y-109198188D01*
X218723965Y-109182272D01*
X218940942Y-109191656D01*
G36*
X218940942Y-109191656D02*
G01*
X219236366Y-109228838D01*
X219643388Y-109296313D01*
X219974990Y-109356041D01*
X220587014Y-109475619D01*
X221055910Y-109587781D01*
X221406973Y-109702644D01*
X221665499Y-109830329D01*
X221856781Y-109980955D01*
X222006116Y-110164641D01*
X222009716Y-110170021D01*
X222087466Y-110299802D01*
X222140757Y-110437107D01*
X222174042Y-110615846D01*
X222191776Y-110869927D01*
X222198411Y-111233258D01*
X222198758Y-111609355D01*
X222190882Y-112082182D01*
X222170997Y-112480712D01*
X222141372Y-112773477D01*
X222104274Y-112929010D01*
X222103565Y-112930334D01*
X221966640Y-113116316D01*
X221779918Y-113239149D01*
X221521251Y-113301119D01*
X221288864Y-113303355D01*
X221168487Y-113304514D01*
X220699477Y-113251622D01*
X220092071Y-113144730D01*
X220069723Y-113140370D01*
X219463515Y-113013463D01*
X219000573Y-112895307D01*
X218655744Y-112777071D01*
X218403877Y-112649927D01*
X218219819Y-112505044D01*
X218198725Y-112483571D01*
X218032770Y-112281961D01*
X217918666Y-112061447D01*
X217847546Y-111785780D01*
X217810545Y-111418713D01*
X217800223Y-110983947D01*
X218391333Y-110983947D01*
X218394010Y-111364939D01*
X218408303Y-111618012D01*
X218443601Y-111784569D01*
X218509296Y-111906011D01*
X218614777Y-112023738D01*
X218630838Y-112039865D01*
X218769647Y-112162168D01*
X218930708Y-112260559D01*
X219143050Y-112344342D01*
X219435706Y-112422820D01*
X219837706Y-112505298D01*
X220378082Y-112601078D01*
X220386489Y-112602511D01*
X221288864Y-112756181D01*
X221448765Y-112558711D01*
X221528442Y-112428995D01*
X221577024Y-112253429D01*
X221601144Y-111991399D01*
X221607437Y-111602292D01*
X221607418Y-111587454D01*
X221594427Y-111180287D01*
X221560117Y-110844644D01*
X221509408Y-110625304D01*
X221499107Y-110602000D01*
X221394901Y-110451178D01*
X221235066Y-110329070D01*
X220992407Y-110224363D01*
X220639727Y-110125745D01*
X220149832Y-110021900D01*
X220065810Y-110005741D01*
X219512589Y-109907880D01*
X219101252Y-109854862D01*
X218810402Y-109846662D01*
X218618640Y-109883252D01*
X218504570Y-109964607D01*
X218478978Y-110003768D01*
X218440791Y-110157199D01*
X218411025Y-110433005D01*
X218393874Y-110784279D01*
X218391333Y-110983947D01*
X217800223Y-110983947D01*
X217798800Y-110923998D01*
X217798666Y-110847769D01*
X217809777Y-110302308D01*
X217849328Y-109899802D01*
X217926650Y-109614954D01*
X218051070Y-109422469D01*
X218231918Y-109297050D01*
X218392740Y-109236909D01*
X218552281Y-109198188D01*
X218723965Y-109182272D01*
X218940942Y-109191656D01*
G37*
X218729054Y-117391659D02*
X219136624Y-117456280D01*
X219466418Y-117599586D01*
X219562870Y-117662106D01*
X219789904Y-117802347D01*
X219944590Y-117843706D01*
X220072150Y-117805366D01*
X220323834Y-117734836D01*
X220673639Y-117715856D01*
X221059430Y-117745273D01*
X221419075Y-117819929D01*
X221590686Y-117882481D01*
X221799517Y-117994781D01*
X221955274Y-118132383D01*
X222065475Y-118320220D01*
X222137639Y-118583230D01*
X222179282Y-118946346D01*
X222197924Y-119434505D01*
X222201333Y-119907893D01*
X222200073Y-120398458D01*
X222193550Y-120749964D01*
X222177643Y-120992685D01*
X222148236Y-121156891D01*
X222101208Y-121272855D01*
X222032443Y-121370848D01*
X221996504Y-121413446D01*
X221868613Y-121543517D01*
X221734028Y-121613230D01*
X221537608Y-121639112D01*
X221246524Y-121638224D01*
X221181618Y-121630506D01*
X220712084Y-121574673D01*
X220308366Y-121413428D01*
X220055552Y-121178514D01*
X219939221Y-121057704D01*
X219806285Y-121071125D01*
X219740191Y-121103776D01*
X219496098Y-121164989D01*
X219166909Y-121163391D01*
X219162038Y-121163367D01*
X218802078Y-121106414D01*
X218480287Y-121001633D01*
X218368636Y-120943141D01*
X218163531Y-120799534D01*
X218013844Y-120641577D01*
X217911094Y-120440817D01*
X217846803Y-120168800D01*
X217812490Y-119797074D01*
X217799678Y-119297187D01*
X217799553Y-119264194D01*
X218380208Y-119264194D01*
X218394068Y-119640853D01*
X218426915Y-119968812D01*
X218478612Y-120204695D01*
X218524253Y-120290159D01*
X218799388Y-120452245D01*
X219166909Y-120502056D01*
X219287921Y-120493445D01*
X219440547Y-120449890D01*
X219544587Y-120344308D01*
X219606727Y-120152050D01*
X219633650Y-119848466D01*
X219632870Y-119635405D01*
X220184454Y-119635405D01*
X220194148Y-119827970D01*
X220221630Y-120190377D01*
X220258935Y-120426648D01*
X220318263Y-120579964D01*
X220411813Y-120693507D01*
X220447796Y-120725772D01*
X220651057Y-120846506D01*
X220915432Y-120937165D01*
X221181618Y-120985087D01*
X221390308Y-120977607D01*
X221462158Y-120942375D01*
X221550158Y-120768910D01*
X221618445Y-120473406D01*
X221664350Y-120102297D01*
X221685207Y-119702017D01*
X221678348Y-119319000D01*
X221641104Y-118999682D01*
X221584395Y-118814667D01*
X221413812Y-118633918D01*
X221141072Y-118494661D01*
X220832357Y-118420045D01*
X220553849Y-118433221D01*
X220522005Y-118443047D01*
X220351828Y-118562475D01*
X220241434Y-118790069D01*
X220186937Y-119142241D01*
X220184454Y-119635405D01*
X219632870Y-119635405D01*
X219632040Y-119408903D01*
X219626872Y-119243434D01*
X219608929Y-118859891D01*
X219582010Y-118607443D01*
X219537474Y-118447852D01*
X219466681Y-118342882D01*
X219412266Y-118293637D01*
X219168762Y-118156452D01*
X218889953Y-118083150D01*
X218640740Y-118085011D01*
X218517405Y-118138104D01*
X218453934Y-118275790D01*
X218410003Y-118538285D01*
X218385474Y-118882212D01*
X218380208Y-119264194D01*
X217799553Y-119264194D01*
X217798666Y-119030589D01*
X217799682Y-118548139D01*
X217805731Y-118204862D01*
X217821316Y-117970593D01*
X217850941Y-117815174D01*
X217899110Y-117708442D01*
X217970325Y-117620235D01*
X218016234Y-117573403D01*
X218159796Y-117449920D01*
X218309655Y-117390701D01*
X218527014Y-117380142D01*
X218729054Y-117391659D01*
G36*
X218729054Y-117391659D02*
G01*
X219136624Y-117456280D01*
X219466418Y-117599586D01*
X219562870Y-117662106D01*
X219789904Y-117802347D01*
X219944590Y-117843706D01*
X220072150Y-117805366D01*
X220323834Y-117734836D01*
X220673639Y-117715856D01*
X221059430Y-117745273D01*
X221419075Y-117819929D01*
X221590686Y-117882481D01*
X221799517Y-117994781D01*
X221955274Y-118132383D01*
X222065475Y-118320220D01*
X222137639Y-118583230D01*
X222179282Y-118946346D01*
X222197924Y-119434505D01*
X222201333Y-119907893D01*
X222200073Y-120398458D01*
X222193550Y-120749964D01*
X222177643Y-120992685D01*
X222148236Y-121156891D01*
X222101208Y-121272855D01*
X222032443Y-121370848D01*
X221996504Y-121413446D01*
X221868613Y-121543517D01*
X221734028Y-121613230D01*
X221537608Y-121639112D01*
X221246524Y-121638224D01*
X221181618Y-121630506D01*
X220712084Y-121574673D01*
X220308366Y-121413428D01*
X220055552Y-121178514D01*
X219939221Y-121057704D01*
X219806285Y-121071125D01*
X219740191Y-121103776D01*
X219496098Y-121164989D01*
X219166909Y-121163391D01*
X219162038Y-121163367D01*
X218802078Y-121106414D01*
X218480287Y-121001633D01*
X218368636Y-120943141D01*
X218163531Y-120799534D01*
X218013844Y-120641577D01*
X217911094Y-120440817D01*
X217846803Y-120168800D01*
X217812490Y-119797074D01*
X217799678Y-119297187D01*
X217799553Y-119264194D01*
X218380208Y-119264194D01*
X218394068Y-119640853D01*
X218426915Y-119968812D01*
X218478612Y-120204695D01*
X218524253Y-120290159D01*
X218799388Y-120452245D01*
X219166909Y-120502056D01*
X219287921Y-120493445D01*
X219440547Y-120449890D01*
X219544587Y-120344308D01*
X219606727Y-120152050D01*
X219633650Y-119848466D01*
X219632870Y-119635405D01*
X220184454Y-119635405D01*
X220194148Y-119827970D01*
X220221630Y-120190377D01*
X220258935Y-120426648D01*
X220318263Y-120579964D01*
X220411813Y-120693507D01*
X220447796Y-120725772D01*
X220651057Y-120846506D01*
X220915432Y-120937165D01*
X221181618Y-120985087D01*
X221390308Y-120977607D01*
X221462158Y-120942375D01*
X221550158Y-120768910D01*
X221618445Y-120473406D01*
X221664350Y-120102297D01*
X221685207Y-119702017D01*
X221678348Y-119319000D01*
X221641104Y-118999682D01*
X221584395Y-118814667D01*
X221413812Y-118633918D01*
X221141072Y-118494661D01*
X220832357Y-118420045D01*
X220553849Y-118433221D01*
X220522005Y-118443047D01*
X220351828Y-118562475D01*
X220241434Y-118790069D01*
X220186937Y-119142241D01*
X220184454Y-119635405D01*
X219632870Y-119635405D01*
X219632040Y-119408903D01*
X219626872Y-119243434D01*
X219608929Y-118859891D01*
X219582010Y-118607443D01*
X219537474Y-118447852D01*
X219466681Y-118342882D01*
X219412266Y-118293637D01*
X219168762Y-118156452D01*
X218889953Y-118083150D01*
X218640740Y-118085011D01*
X218517405Y-118138104D01*
X218453934Y-118275790D01*
X218410003Y-118538285D01*
X218385474Y-118882212D01*
X218380208Y-119264194D01*
X217799553Y-119264194D01*
X217798666Y-119030589D01*
X217799682Y-118548139D01*
X217805731Y-118204862D01*
X217821316Y-117970593D01*
X217850941Y-117815174D01*
X217899110Y-117708442D01*
X217970325Y-117620235D01*
X218016234Y-117573403D01*
X218159796Y-117449920D01*
X218309655Y-117390701D01*
X218527014Y-117380142D01*
X218729054Y-117391659D01*
G37*
D14*
X145452000Y-63281000D02*
X145346000Y-63388000D01*
X145718000Y-63547000D02*
X145612000Y-63654000D01*
X148388000Y-60346000D02*
X148281000Y-60453000D01*
X148654000Y-60612000D02*
X148547000Y-60719000D01*
X150742000Y-62992000D02*
X150347000Y-63388000D01*
X150993000Y-63274000D02*
X150613000Y-63654000D01*
X153388000Y-60346000D02*
X153008000Y-60726000D01*
X153654000Y-60612000D02*
X153259000Y-61008000D01*
X155742000Y-62992000D02*
X155347000Y-63388000D01*
X155993000Y-63274000D02*
X155613000Y-63654000D01*
X158388000Y-60346000D02*
X158008000Y-60726000D01*
X158654000Y-60612000D02*
X158259000Y-61008000D01*
X160742000Y-62992000D02*
X160347000Y-63388000D01*
X160993000Y-63274000D02*
X160613000Y-63654000D01*
X163388000Y-60346000D02*
X163008000Y-60726000D01*
X163654000Y-60612000D02*
X163259000Y-61008000D01*
X165742000Y-62992000D02*
X165347000Y-63388000D01*
X165993000Y-63274000D02*
X165613000Y-63654000D01*
X168388000Y-60346000D02*
X168008000Y-60726000D01*
X168654000Y-60612000D02*
X168259000Y-61008000D01*
X170742000Y-62992000D02*
X170347000Y-63388000D01*
X170993000Y-63274000D02*
X170613000Y-63654000D01*
X173388000Y-60346000D02*
X173008000Y-60726000D01*
X173654000Y-60612000D02*
X173259000Y-61008000D01*
X175742000Y-62992000D02*
X175347000Y-63388000D01*
X175993000Y-63274000D02*
X175613000Y-63654000D01*
X178388000Y-60346000D02*
X178008000Y-60726000D01*
X178654000Y-60612000D02*
X178259000Y-61008000D01*
X149180000Y-62000000D02*
G75*
G02*
X144820000Y-62000000I-2180000J0D01*
G01*
X144820000Y-62000000D02*
G75*
G02*
X149180000Y-62000000I2180000J0D01*
G01*
X154180000Y-62000000D02*
G75*
G02*
X149820000Y-62000000I-2180000J0D01*
G01*
X149820000Y-62000000D02*
G75*
G02*
X154180000Y-62000000I2180000J0D01*
G01*
X159180000Y-62000000D02*
G75*
G02*
X154820000Y-62000000I-2180000J0D01*
G01*
X154820000Y-62000000D02*
G75*
G02*
X159180000Y-62000000I2180000J0D01*
G01*
X164180000Y-62000000D02*
G75*
G02*
X159820000Y-62000000I-2180000J0D01*
G01*
X159820000Y-62000000D02*
G75*
G02*
X164180000Y-62000000I2180000J0D01*
G01*
X169180000Y-62000000D02*
G75*
G02*
X164820000Y-62000000I-2180000J0D01*
G01*
X164820000Y-62000000D02*
G75*
G02*
X169180000Y-62000000I2180000J0D01*
G01*
X174180000Y-62000000D02*
G75*
G02*
X169820000Y-62000000I-2180000J0D01*
G01*
X169820000Y-62000000D02*
G75*
G02*
X174180000Y-62000000I2180000J0D01*
G01*
X179180000Y-62000000D02*
G75*
G02*
X174820000Y-62000000I-2180000J0D01*
G01*
X174820000Y-62000000D02*
G75*
G02*
X179180000Y-62000000I2180000J0D01*
G01*
X145452000Y-93281000D02*
X145346000Y-93388000D01*
X145718000Y-93547000D02*
X145612000Y-93654000D01*
X148388000Y-90346000D02*
X148281000Y-90453000D01*
X148654000Y-90612000D02*
X148547000Y-90719000D01*
X150742000Y-92992000D02*
X150347000Y-93388000D01*
X150993000Y-93274000D02*
X150613000Y-93654000D01*
X153388000Y-90346000D02*
X153008000Y-90726000D01*
X153654000Y-90612000D02*
X153259000Y-91008000D01*
X155742000Y-92992000D02*
X155347000Y-93388000D01*
X155993000Y-93274000D02*
X155613000Y-93654000D01*
X158388000Y-90346000D02*
X158008000Y-90726000D01*
X158654000Y-90612000D02*
X158259000Y-91008000D01*
X160742000Y-92992000D02*
X160347000Y-93388000D01*
X160993000Y-93274000D02*
X160613000Y-93654000D01*
X163388000Y-90346000D02*
X163008000Y-90726000D01*
X163654000Y-90612000D02*
X163259000Y-91008000D01*
X165742000Y-92992000D02*
X165347000Y-93388000D01*
X165993000Y-93274000D02*
X165613000Y-93654000D01*
X168388000Y-90346000D02*
X168008000Y-90726000D01*
X168654000Y-90612000D02*
X168259000Y-91008000D01*
X170742000Y-92992000D02*
X170347000Y-93388000D01*
X170993000Y-93274000D02*
X170613000Y-93654000D01*
X173388000Y-90346000D02*
X173008000Y-90726000D01*
X173654000Y-90612000D02*
X173259000Y-91008000D01*
X175742000Y-92992000D02*
X175347000Y-93388000D01*
X175993000Y-93274000D02*
X175613000Y-93654000D01*
X178388000Y-90346000D02*
X178008000Y-90726000D01*
X178654000Y-90612000D02*
X178259000Y-91008000D01*
X149180000Y-92000000D02*
G75*
G02*
X144820000Y-92000000I-2180000J0D01*
G01*
X144820000Y-92000000D02*
G75*
G02*
X149180000Y-92000000I2180000J0D01*
G01*
X154180000Y-92000000D02*
G75*
G02*
X149820000Y-92000000I-2180000J0D01*
G01*
X149820000Y-92000000D02*
G75*
G02*
X154180000Y-92000000I2180000J0D01*
G01*
X159180000Y-92000000D02*
G75*
G02*
X154820000Y-92000000I-2180000J0D01*
G01*
X154820000Y-92000000D02*
G75*
G02*
X159180000Y-92000000I2180000J0D01*
G01*
X164180000Y-92000000D02*
G75*
G02*
X159820000Y-92000000I-2180000J0D01*
G01*
X159820000Y-92000000D02*
G75*
G02*
X164180000Y-92000000I2180000J0D01*
G01*
X169180000Y-92000000D02*
G75*
G02*
X164820000Y-92000000I-2180000J0D01*
G01*
X164820000Y-92000000D02*
G75*
G02*
X169180000Y-92000000I2180000J0D01*
G01*
X174180000Y-92000000D02*
G75*
G02*
X169820000Y-92000000I-2180000J0D01*
G01*
X169820000Y-92000000D02*
G75*
G02*
X174180000Y-92000000I2180000J0D01*
G01*
X179180000Y-92000000D02*
G75*
G02*
X174820000Y-92000000I-2180000J0D01*
G01*
X174820000Y-92000000D02*
G75*
G02*
X179180000Y-92000000I2180000J0D01*
G01*
X137866097Y-120579793D02*
X161966097Y-120579793D01*
X137866097Y-130399793D02*
X137866097Y-120579793D01*
X161966097Y-119179793D02*
X163776097Y-119179793D01*
X161966097Y-120579793D02*
X161966097Y-119179793D01*
X163776097Y-130399793D02*
X137866097Y-130399793D01*
X163776097Y-130399793D02*
X189686097Y-130399793D01*
X165586097Y-119179793D02*
X163776097Y-119179793D01*
X165586097Y-120579793D02*
X165586097Y-119179793D01*
X187076097Y-130639793D02*
X189926097Y-130639793D01*
X189686097Y-120579793D02*
X165586097Y-120579793D01*
X189686097Y-130399793D02*
X189686097Y-120579793D01*
X189926097Y-130639793D02*
X189926097Y-127789793D01*
D16*
G36*
X86877187Y-74853800D02*
G01*
X83094209Y-74853800D01*
X83094209Y-71070821D01*
X86877187Y-71070821D01*
X86877187Y-74853800D01*
G37*
G36*
X86877187Y-103496353D02*
G01*
X83094209Y-103496353D01*
X83094209Y-99713374D01*
X86877187Y-99713374D01*
X86877187Y-103496353D01*
G37*
G36*
X115519740Y-74853800D02*
G01*
X111736762Y-74853800D01*
X111736762Y-71070821D01*
X115519740Y-71070821D01*
X115519740Y-74853800D01*
G37*
G36*
X91894586Y-69878083D02*
G01*
X92011230Y-70395289D01*
X91884569Y-70925016D01*
X91470804Y-71070821D01*
X91047023Y-70912495D01*
X90930379Y-70395289D01*
X91057039Y-69865562D01*
X91470804Y-69719757D01*
X91894586Y-69878083D01*
G37*
G36*
X89579315Y-77555927D02*
G01*
X80392081Y-77555927D01*
X80392081Y-76204864D01*
X80392081Y-69719757D01*
X81743145Y-69719757D01*
X81743145Y-76204864D01*
X88228251Y-76204864D01*
X88228251Y-69719757D01*
X81743145Y-69719757D01*
X80392081Y-69719757D01*
X80392081Y-68368693D01*
X89579315Y-68368693D01*
X89579315Y-77555927D01*
G37*
G36*
X89579315Y-106198481D02*
G01*
X80392081Y-106198481D01*
X80392081Y-104847417D01*
X80392081Y-98362310D01*
X81743145Y-98362310D01*
X81743145Y-104847417D01*
X88228251Y-104847417D01*
X88228251Y-98362310D01*
X81743145Y-98362310D01*
X80392081Y-98362310D01*
X80392081Y-97011247D01*
X89579315Y-97011247D01*
X89579315Y-106198481D01*
G37*
G36*
X118221868Y-77555927D02*
G01*
X109034634Y-77555927D01*
X109034634Y-76204864D01*
X109034634Y-69719757D01*
X110385698Y-69719757D01*
X110385698Y-76204864D01*
X116870804Y-76204864D01*
X116870804Y-69719757D01*
X110385698Y-69719757D01*
X109034634Y-69719757D01*
X109034634Y-68368693D01*
X118221868Y-68368693D01*
X118221868Y-77555927D01*
G37*
G36*
X94552044Y-101176043D02*
G01*
X94710505Y-101615480D01*
X94713357Y-101739970D01*
X94601753Y-102254188D01*
X94162315Y-102412649D01*
X94037826Y-102415502D01*
X93523607Y-102303897D01*
X93365146Y-101864460D01*
X93362294Y-101739970D01*
X93473898Y-101225752D01*
X93913336Y-101067291D01*
X94037826Y-101064438D01*
X94552044Y-101176043D01*
G37*
G36*
X97254171Y-80099447D02*
G01*
X97412632Y-80538884D01*
X97415485Y-80663374D01*
X97303880Y-81177592D01*
X96864443Y-81336053D01*
X96739953Y-81338906D01*
X96225735Y-81227301D01*
X96067274Y-80787864D01*
X96064421Y-80663374D01*
X96176026Y-80149156D01*
X96615463Y-79990695D01*
X96739953Y-79987842D01*
X97254171Y-80099447D01*
G37*
G36*
X110224384Y-97122851D02*
G01*
X110382845Y-97562289D01*
X110385698Y-97686778D01*
X110274093Y-98200997D01*
X109834656Y-98359457D01*
X109710166Y-98362310D01*
X109195948Y-98250706D01*
X109037487Y-97811268D01*
X109034634Y-97686778D01*
X109146239Y-97172560D01*
X109585676Y-97014099D01*
X109710166Y-97011247D01*
X110224384Y-97122851D01*
G37*
G36*
X118060554Y-85503702D02*
G01*
X118219015Y-85943140D01*
X118221868Y-86067630D01*
X118110263Y-86581848D01*
X117670826Y-86740309D01*
X117546336Y-86743161D01*
X117032118Y-86631557D01*
X116873657Y-86192119D01*
X116870804Y-86067630D01*
X116982409Y-85553411D01*
X117421846Y-85394950D01*
X117546336Y-85392098D01*
X118060554Y-85503702D01*
G37*
G36*
X118060554Y-90637745D02*
G01*
X118219015Y-91077182D01*
X118221868Y-91201672D01*
X118110263Y-91715890D01*
X117670826Y-91874351D01*
X117546336Y-91877204D01*
X117032118Y-91765599D01*
X116873657Y-91326162D01*
X116870804Y-91201672D01*
X116982409Y-90687454D01*
X117421846Y-90528993D01*
X117546336Y-90526140D01*
X118060554Y-90637745D01*
G37*
G36*
X94438747Y-68412498D02*
G01*
X94638757Y-68636046D01*
X94706958Y-69177543D01*
X94713357Y-69719757D01*
X94691455Y-70521600D01*
X94579681Y-70921620D01*
X94308932Y-71058023D01*
X94037826Y-71070821D01*
X93636904Y-71027017D01*
X93436894Y-70803468D01*
X93368693Y-70261971D01*
X93362294Y-69719757D01*
X93384196Y-68917914D01*
X93495970Y-68517894D01*
X93766719Y-68381492D01*
X94037826Y-68368693D01*
X94438747Y-68412498D01*
G37*
G36*
X94438747Y-80031647D02*
G01*
X94638757Y-80255195D01*
X94706958Y-80796692D01*
X94713357Y-81338906D01*
X94691455Y-82140749D01*
X94579681Y-82540769D01*
X94308932Y-82677172D01*
X94037826Y-82689970D01*
X93636904Y-82646166D01*
X93436894Y-82422617D01*
X93368693Y-81881120D01*
X93362294Y-81338906D01*
X93384196Y-80537063D01*
X93495970Y-80137043D01*
X93766719Y-80000641D01*
X94037826Y-79987842D01*
X94438747Y-80031647D01*
G37*
G36*
X97140875Y-82733774D02*
G01*
X97340885Y-82957323D01*
X97409086Y-83498820D01*
X97415485Y-84041034D01*
X97393583Y-84842876D01*
X97281809Y-85242897D01*
X97011060Y-85379299D01*
X96739953Y-85392098D01*
X96339032Y-85348293D01*
X96139022Y-85124745D01*
X96070820Y-84583247D01*
X96064421Y-84041034D01*
X96086323Y-83239191D01*
X96198098Y-82839171D01*
X96468846Y-82702768D01*
X96739953Y-82689970D01*
X97140875Y-82733774D01*
G37*
G36*
X97156810Y-93278667D02*
G01*
X97354312Y-93526396D01*
X97412905Y-94116255D01*
X97415485Y-94444225D01*
X97387486Y-95194567D01*
X97249858Y-95550072D01*
X96922159Y-95655539D01*
X96739953Y-95660183D01*
X96323096Y-95609784D01*
X96125594Y-95362055D01*
X96067001Y-94772195D01*
X96064421Y-94444225D01*
X96092421Y-93693883D01*
X96230048Y-93338379D01*
X96557748Y-93232912D01*
X96739953Y-93228268D01*
X97156810Y-93278667D01*
G37*
G36*
X107217955Y-68396693D02*
G01*
X107573459Y-68534320D01*
X107678926Y-68862020D01*
X107683570Y-69044225D01*
X107633171Y-69461082D01*
X107385442Y-69658585D01*
X106795583Y-69717177D01*
X106467613Y-69719757D01*
X105717271Y-69691758D01*
X105361766Y-69554130D01*
X105256299Y-69226431D01*
X105251655Y-69044225D01*
X105302054Y-68627369D01*
X105549783Y-68429866D01*
X106139643Y-68371273D01*
X106467613Y-68368693D01*
X107217955Y-68396693D01*
G37*
G36*
X116724999Y-79033652D02*
G01*
X116870804Y-79447417D01*
X117029130Y-79871198D01*
X117546336Y-79987842D01*
X118060554Y-80099447D01*
X118219015Y-80538884D01*
X118221868Y-80663374D01*
X118110263Y-81177592D01*
X117670826Y-81336053D01*
X117546336Y-81338906D01*
X117032118Y-81227301D01*
X116873657Y-80787864D01*
X116870804Y-80663374D01*
X116759200Y-80149156D01*
X116319762Y-79990695D01*
X116195272Y-79987842D01*
X115665546Y-79861182D01*
X115519740Y-79447417D01*
X115678066Y-79023635D01*
X116195272Y-78906991D01*
X116724999Y-79033652D01*
G37*
G36*
X102388214Y-99824979D02*
G01*
X102546675Y-100264416D01*
X102549528Y-100388906D01*
X102661132Y-100903124D01*
X103100570Y-101061585D01*
X103225060Y-101064438D01*
X103739278Y-101176043D01*
X103897739Y-101615480D01*
X103900592Y-101739970D01*
X103788987Y-102254188D01*
X103349550Y-102412649D01*
X103225060Y-102415502D01*
X102710841Y-102303897D01*
X102552381Y-101864460D01*
X102549528Y-101739970D01*
X102437923Y-101225752D01*
X101998486Y-101067291D01*
X101873996Y-101064438D01*
X101359777Y-100952833D01*
X101201317Y-100513396D01*
X101198464Y-100388906D01*
X101310068Y-99874688D01*
X101749506Y-99716227D01*
X101873996Y-99713374D01*
X102388214Y-99824979D01*
G37*
G36*
X94164136Y-84062936D02*
G01*
X94564157Y-84174710D01*
X94700559Y-84445459D01*
X94713357Y-84716566D01*
X94669553Y-85117487D01*
X94446005Y-85317497D01*
X93904507Y-85385698D01*
X93362294Y-85392098D01*
X92560451Y-85414000D01*
X92160430Y-85525774D01*
X92024028Y-85796523D01*
X92011230Y-86067630D01*
X92122834Y-86581848D01*
X92562272Y-86740309D01*
X92686762Y-86743161D01*
X93103618Y-86793560D01*
X93301121Y-87041290D01*
X93359714Y-87631149D01*
X93362294Y-87959119D01*
X93390293Y-88709461D01*
X93527920Y-89064966D01*
X93855620Y-89170432D01*
X94037826Y-89175076D01*
X94454682Y-89124678D01*
X94652185Y-88876948D01*
X94710777Y-88287089D01*
X94713357Y-87959119D01*
X94713357Y-86743161D01*
X96739953Y-86743161D01*
X97776126Y-86755926D01*
X98384091Y-86814128D01*
X98675842Y-86947633D01*
X98763370Y-87186307D01*
X98766549Y-87283587D01*
X98695417Y-87607736D01*
X98393493Y-87769402D01*
X97727985Y-87821700D01*
X97415485Y-87824012D01*
X96064421Y-87824012D01*
X96064421Y-89175076D01*
X96086323Y-89976919D01*
X96198098Y-90376940D01*
X96468846Y-90513342D01*
X96739953Y-90526140D01*
X97254171Y-90637745D01*
X97412632Y-91077182D01*
X97415485Y-91201672D01*
X97303880Y-91715890D01*
X96864443Y-91874351D01*
X96739953Y-91877204D01*
X96225735Y-91765599D01*
X96067274Y-91326162D01*
X96064421Y-91201672D01*
X95952817Y-90687454D01*
X95513379Y-90528993D01*
X95388889Y-90526140D01*
X94874671Y-90637745D01*
X94716210Y-91077182D01*
X94713357Y-91201672D01*
X94601753Y-91715890D01*
X94162315Y-91874351D01*
X94037826Y-91877204D01*
X93636904Y-91833400D01*
X93436894Y-91609851D01*
X93368693Y-91068354D01*
X93362294Y-90526140D01*
X93340392Y-89724297D01*
X93228617Y-89324277D01*
X92957869Y-89187875D01*
X92686762Y-89175076D01*
X92172543Y-89286681D01*
X92014083Y-89726118D01*
X92011230Y-89850608D01*
X91884569Y-90380335D01*
X91470804Y-90526140D01*
X91047023Y-90367814D01*
X90930379Y-89850608D01*
X90818774Y-89336390D01*
X90379337Y-89177929D01*
X90254847Y-89175076D01*
X89740629Y-89063472D01*
X89582168Y-88624034D01*
X89579315Y-88499544D01*
X89467710Y-87985326D01*
X89028273Y-87826865D01*
X88903783Y-87824012D01*
X88374056Y-87697352D01*
X88228251Y-87283587D01*
X90930379Y-87283587D01*
X91121448Y-87735196D01*
X91470804Y-87824012D01*
X91922413Y-87632943D01*
X92011230Y-87283587D01*
X91820161Y-86831978D01*
X91470804Y-86743161D01*
X91019196Y-86934231D01*
X90930379Y-87283587D01*
X88228251Y-87283587D01*
X88299383Y-86959437D01*
X88601307Y-86797772D01*
X89266815Y-86745474D01*
X89579315Y-86743161D01*
X90381158Y-86721259D01*
X90781178Y-86609485D01*
X90917580Y-86338736D01*
X90930379Y-86067630D01*
X91057039Y-85537903D01*
X91470804Y-85392098D01*
X91894586Y-85233772D01*
X92011230Y-84716566D01*
X92055034Y-84315644D01*
X92278583Y-84115634D01*
X92820080Y-84047433D01*
X93362294Y-84041034D01*
X94164136Y-84062936D01*
G37*
G36*
X102274917Y-68412498D02*
G01*
X102474927Y-68636046D01*
X102543128Y-69177543D01*
X102549528Y-69719757D01*
X102549528Y-71070821D01*
X101198464Y-71070821D01*
X100388090Y-71099274D01*
X99983926Y-71220044D01*
X99853181Y-71486247D01*
X99847400Y-71611247D01*
X100005726Y-72035028D01*
X100522932Y-72151672D01*
X101037150Y-72263277D01*
X101195611Y-72702714D01*
X101198464Y-72827204D01*
X101310068Y-73341422D01*
X101749506Y-73499883D01*
X101873996Y-73502736D01*
X102388214Y-73391131D01*
X102546675Y-72951694D01*
X102549528Y-72827204D01*
X102661132Y-72312986D01*
X103100570Y-72154525D01*
X103225060Y-72151672D01*
X103754786Y-72025012D01*
X103900592Y-71611247D01*
X104058917Y-71187465D01*
X104576123Y-71070821D01*
X105105850Y-71197482D01*
X105251655Y-71611247D01*
X105093330Y-72035028D01*
X104576123Y-72151672D01*
X104061905Y-72263277D01*
X103903444Y-72702714D01*
X103900592Y-72827204D01*
X103788987Y-73341422D01*
X103349550Y-73499883D01*
X103225060Y-73502736D01*
X102710841Y-73614341D01*
X102552381Y-74053778D01*
X102549528Y-74178268D01*
X102593332Y-74579189D01*
X102816881Y-74779199D01*
X103358378Y-74847401D01*
X103900592Y-74853800D01*
X104702434Y-74831898D01*
X105102455Y-74720123D01*
X105238857Y-74449375D01*
X105251655Y-74178268D01*
X105363260Y-73664050D01*
X105802697Y-73505589D01*
X105927187Y-73502736D01*
X106344044Y-73452337D01*
X106541547Y-73204608D01*
X106600139Y-72614748D01*
X106602719Y-72286778D01*
X106638079Y-71526901D01*
X106784906Y-71167578D01*
X107104321Y-71071285D01*
X107143145Y-71070821D01*
X107371273Y-71102634D01*
X107524262Y-71257779D01*
X107617037Y-71625811D01*
X107664524Y-72296288D01*
X107681650Y-73358765D01*
X107683570Y-74313374D01*
X107678268Y-75682147D01*
X107652411Y-76600080D01*
X107591072Y-77156730D01*
X107479326Y-77441652D01*
X107302246Y-77544405D01*
X107143145Y-77555927D01*
X106818995Y-77484795D01*
X106657330Y-77182871D01*
X106605032Y-76517363D01*
X106602719Y-76204864D01*
X106580817Y-75403021D01*
X106469043Y-75003000D01*
X106198294Y-74866598D01*
X105927187Y-74853800D01*
X105526266Y-74897604D01*
X105326256Y-75121153D01*
X105258055Y-75662650D01*
X105251655Y-76204864D01*
X105229753Y-77006706D01*
X105117979Y-77406727D01*
X104847230Y-77543129D01*
X104576123Y-77555927D01*
X104061905Y-77444323D01*
X103903444Y-77004885D01*
X103900592Y-76880395D01*
X103788987Y-76366177D01*
X103349550Y-76207716D01*
X103225060Y-76204864D01*
X102710841Y-76316468D01*
X102552381Y-76755906D01*
X102549528Y-76880395D01*
X102437923Y-77394614D01*
X101998486Y-77553075D01*
X101873996Y-77555927D01*
X101359777Y-77667532D01*
X101201317Y-78106969D01*
X101198464Y-78231459D01*
X101086859Y-78745678D01*
X100647422Y-78904138D01*
X100522932Y-78906991D01*
X100106075Y-78957390D01*
X99908573Y-79205119D01*
X99849980Y-79794979D01*
X99847400Y-80122949D01*
X99875399Y-80873291D01*
X100013027Y-81228795D01*
X100340726Y-81334262D01*
X100522932Y-81338906D01*
X101037150Y-81227301D01*
X101195611Y-80787864D01*
X101198464Y-80663374D01*
X101310068Y-80149156D01*
X101749506Y-79990695D01*
X101873996Y-79987842D01*
X102403723Y-79861182D01*
X102549528Y-79447417D01*
X102707853Y-79023635D01*
X103225060Y-78906991D01*
X103754786Y-79033652D01*
X103900592Y-79447417D01*
X103951622Y-79731427D01*
X104181751Y-79894132D01*
X104706532Y-79968549D01*
X105641519Y-79987692D01*
X105792081Y-79987842D01*
X106786116Y-79973262D01*
X107355586Y-79907511D01*
X107616043Y-79757574D01*
X107683043Y-79490434D01*
X107683570Y-79447417D01*
X107841896Y-79023635D01*
X108359102Y-78906991D01*
X108888829Y-79033652D01*
X109034634Y-79447417D01*
X109192960Y-79871198D01*
X109710166Y-79987842D01*
X110239893Y-79861182D01*
X110385698Y-79447417D01*
X110544024Y-79023635D01*
X111061230Y-78906991D01*
X111590957Y-79033652D01*
X111736762Y-79447417D01*
X111895087Y-79871198D01*
X112412294Y-79987842D01*
X112942020Y-79861182D01*
X113087826Y-79447417D01*
X113246151Y-79023635D01*
X113763357Y-78906991D01*
X114293084Y-79033652D01*
X114438889Y-79447417D01*
X114280564Y-79871198D01*
X113763357Y-79987842D01*
X113362436Y-80031647D01*
X113162426Y-80255195D01*
X113094225Y-80796692D01*
X113087826Y-81338906D01*
X113109728Y-82140749D01*
X113221502Y-82540769D01*
X113492251Y-82677172D01*
X113763357Y-82689970D01*
X114277576Y-82801575D01*
X114436037Y-83241012D01*
X114438889Y-83365502D01*
X114565550Y-83895229D01*
X114979315Y-84041034D01*
X115403096Y-83882708D01*
X115519740Y-83365502D01*
X115631345Y-82851284D01*
X116070782Y-82692823D01*
X116195272Y-82689970D01*
X116709491Y-82801575D01*
X116867951Y-83241012D01*
X116870804Y-83365502D01*
X116759200Y-83879720D01*
X116319762Y-84038181D01*
X116195272Y-84041034D01*
X115681054Y-84152638D01*
X115522593Y-84592076D01*
X115519740Y-84716566D01*
X115469342Y-85133422D01*
X115221612Y-85330925D01*
X114631753Y-85389518D01*
X114303783Y-85392098D01*
X113553441Y-85420097D01*
X113197936Y-85557724D01*
X113092470Y-85885424D01*
X113087826Y-86067630D01*
X113138224Y-86484486D01*
X113385954Y-86681989D01*
X113975813Y-86740581D01*
X114303783Y-86743161D01*
X115063660Y-86778521D01*
X115422984Y-86925348D01*
X115519276Y-87244764D01*
X115519740Y-87283587D01*
X115678066Y-87707368D01*
X116195272Y-87824012D01*
X116709491Y-87935617D01*
X116867951Y-88375054D01*
X116870804Y-88499544D01*
X116759200Y-89013763D01*
X116319762Y-89172223D01*
X116195272Y-89175076D01*
X115851669Y-89200333D01*
X115650256Y-89351992D01*
X115553089Y-89743891D01*
X115522224Y-90489863D01*
X115519740Y-91201672D01*
X115528159Y-92232484D01*
X115578712Y-92836721D01*
X115709345Y-93128221D01*
X115958003Y-93220818D01*
X116195272Y-93228268D01*
X116709491Y-93339872D01*
X116867951Y-93779310D01*
X116870804Y-93903800D01*
X116982409Y-94418018D01*
X117421846Y-94576479D01*
X117546336Y-94579332D01*
X117963193Y-94629730D01*
X118160695Y-94877460D01*
X118219288Y-95467319D01*
X118221868Y-95795289D01*
X118221868Y-97011247D01*
X116870804Y-97011247D01*
X116068962Y-97033149D01*
X115668941Y-97144923D01*
X115532539Y-97415672D01*
X115519740Y-97686778D01*
X115631345Y-98200997D01*
X116070782Y-98359457D01*
X116195272Y-98362310D01*
X116709491Y-98473915D01*
X116867951Y-98913352D01*
X116870804Y-99037842D01*
X116982409Y-99552061D01*
X117421846Y-99710521D01*
X117546336Y-99713374D01*
X117947258Y-99757178D01*
X118147268Y-99980727D01*
X118215469Y-100522224D01*
X118221868Y-101064438D01*
X118199966Y-101866281D01*
X118088192Y-102266301D01*
X117817443Y-102402703D01*
X117546336Y-102415502D01*
X117129479Y-102465901D01*
X116931977Y-102713630D01*
X116873384Y-103303489D01*
X116870804Y-103631459D01*
X116842805Y-104381801D01*
X116705178Y-104737306D01*
X116377478Y-104842773D01*
X116195272Y-104847417D01*
X115681054Y-104959021D01*
X115522593Y-105398459D01*
X115519740Y-105522949D01*
X115393080Y-106052675D01*
X114979315Y-106198481D01*
X114555533Y-106040155D01*
X114438889Y-105522949D01*
X114327285Y-105008730D01*
X113887847Y-104850270D01*
X113763357Y-104847417D01*
X113249139Y-104959021D01*
X113090678Y-105398459D01*
X113087826Y-105522949D01*
X113062569Y-105866552D01*
X112910909Y-106067965D01*
X112519011Y-106165132D01*
X111773038Y-106195997D01*
X111061230Y-106198481D01*
X110030418Y-106190062D01*
X109426180Y-106139509D01*
X109134681Y-106008876D01*
X109042084Y-105760218D01*
X109034634Y-105522949D01*
X108984235Y-105106092D01*
X108736506Y-104908589D01*
X108146647Y-104849997D01*
X107818677Y-104847417D01*
X107068335Y-104875416D01*
X106712830Y-105013043D01*
X106607363Y-105340743D01*
X106602719Y-105522949D01*
X106602719Y-106198481D01*
X99847400Y-106198481D01*
X99847400Y-105522949D01*
X99959005Y-105008730D01*
X100398442Y-104850270D01*
X100522932Y-104847417D01*
X101037150Y-104735812D01*
X101195611Y-104296375D01*
X101198464Y-104171885D01*
X101170649Y-103818956D01*
X101008698Y-103616968D01*
X100594850Y-103523863D01*
X99811343Y-103497583D01*
X99306974Y-103496353D01*
X98318774Y-103506287D01*
X97753207Y-103564126D01*
X97492513Y-103711929D01*
X97418929Y-103991753D01*
X97415485Y-104171885D01*
X97527090Y-104686103D01*
X97966527Y-104844564D01*
X98091017Y-104847417D01*
X98605235Y-104959021D01*
X98763696Y-105398459D01*
X98766549Y-105522949D01*
X98654944Y-106037167D01*
X98215507Y-106195628D01*
X98091017Y-106198481D01*
X97576799Y-106086876D01*
X97418338Y-105647439D01*
X97415485Y-105522949D01*
X97371681Y-105122027D01*
X97148132Y-104922017D01*
X96606635Y-104853816D01*
X96064421Y-104847417D01*
X95262579Y-104869319D01*
X94862558Y-104981093D01*
X94726156Y-105251842D01*
X94713357Y-105522949D01*
X94685543Y-105875877D01*
X94523592Y-106077865D01*
X94109743Y-106170971D01*
X93326237Y-106197251D01*
X92821868Y-106198481D01*
X90930379Y-106198481D01*
X90930379Y-102955927D01*
X90935089Y-101739970D01*
X92011230Y-101739970D01*
X92122834Y-102254188D01*
X92562272Y-102412649D01*
X92686762Y-102415502D01*
X93216488Y-102542162D01*
X93362294Y-102955927D01*
X93433426Y-103280077D01*
X93735350Y-103441742D01*
X94400858Y-103494040D01*
X94713357Y-103496353D01*
X96064421Y-103496353D01*
X96064421Y-102280395D01*
X96044255Y-101739970D01*
X97415485Y-101739970D01*
X97527090Y-102254188D01*
X97966527Y-102412649D01*
X98091017Y-102415502D01*
X98605235Y-102303897D01*
X98763696Y-101864460D01*
X98766549Y-101739970D01*
X98654944Y-101225752D01*
X98215507Y-101067291D01*
X98091017Y-101064438D01*
X99847400Y-101064438D01*
X99869302Y-101866281D01*
X99981076Y-102266301D01*
X100251825Y-102402703D01*
X100522932Y-102415502D01*
X101052659Y-102542162D01*
X101198464Y-102955927D01*
X101356789Y-103379709D01*
X101873996Y-103496353D01*
X102388214Y-103607958D01*
X102546675Y-104047395D01*
X102549528Y-104171885D01*
X102661132Y-104686103D01*
X103100570Y-104844564D01*
X103225060Y-104847417D01*
X103641916Y-104797018D01*
X103839419Y-104549289D01*
X103876907Y-104171885D01*
X105251655Y-104171885D01*
X105363260Y-104686103D01*
X105802697Y-104844564D01*
X105927187Y-104847417D01*
X106441406Y-104735812D01*
X106599866Y-104296375D01*
X106602719Y-104171885D01*
X109034634Y-104171885D01*
X109146239Y-104686103D01*
X109585676Y-104844564D01*
X109710166Y-104847417D01*
X110224384Y-104735812D01*
X110382845Y-104296375D01*
X110385698Y-104171885D01*
X111736762Y-104171885D01*
X111848366Y-104686103D01*
X112287804Y-104844564D01*
X112412294Y-104847417D01*
X112926512Y-104735812D01*
X113084973Y-104296375D01*
X113087826Y-104171885D01*
X114438889Y-104171885D01*
X114565550Y-104701612D01*
X114979315Y-104847417D01*
X115403096Y-104689091D01*
X115519740Y-104171885D01*
X115393080Y-103642158D01*
X114979315Y-103496353D01*
X114555533Y-103654679D01*
X114438889Y-104171885D01*
X113087826Y-104171885D01*
X112976221Y-103657667D01*
X112536784Y-103499206D01*
X112412294Y-103496353D01*
X111898075Y-103607958D01*
X111739615Y-104047395D01*
X111736762Y-104171885D01*
X110385698Y-104171885D01*
X110274093Y-103657667D01*
X109834656Y-103499206D01*
X109710166Y-103496353D01*
X109195948Y-103607958D01*
X109037487Y-104047395D01*
X109034634Y-104171885D01*
X106602719Y-104171885D01*
X106491115Y-103657667D01*
X106051677Y-103499206D01*
X105927187Y-103496353D01*
X105412969Y-103607958D01*
X105254508Y-104047395D01*
X105251655Y-104171885D01*
X103876907Y-104171885D01*
X103898011Y-103959429D01*
X103900592Y-103631459D01*
X103928591Y-102881117D01*
X104066218Y-102525613D01*
X104393918Y-102420146D01*
X104576123Y-102415502D01*
X105090342Y-102303897D01*
X105248802Y-101864460D01*
X105251655Y-101739970D01*
X105363260Y-101225752D01*
X105802697Y-101067291D01*
X105927187Y-101064438D01*
X107683570Y-101064438D01*
X107683570Y-102415502D01*
X113087826Y-102415502D01*
X113087826Y-101739970D01*
X113199430Y-101225752D01*
X113638868Y-101067291D01*
X113763357Y-101064438D01*
X114277576Y-100952833D01*
X114436037Y-100513396D01*
X114438889Y-100388906D01*
X114565550Y-99859179D01*
X114979315Y-99713374D01*
X115403096Y-99871700D01*
X115519740Y-100388906D01*
X115631345Y-100903124D01*
X116070782Y-101061585D01*
X116195272Y-101064438D01*
X116709491Y-100952833D01*
X116867951Y-100513396D01*
X116870804Y-100388906D01*
X116759200Y-99874688D01*
X116319762Y-99716227D01*
X116195272Y-99713374D01*
X115681054Y-99601770D01*
X115522593Y-99162332D01*
X115519740Y-99037842D01*
X115469342Y-98620986D01*
X115221612Y-98423483D01*
X114631753Y-98364890D01*
X114303783Y-98362310D01*
X113087826Y-98362310D01*
X113087826Y-101064438D01*
X107683570Y-101064438D01*
X105927187Y-101064438D01*
X106441406Y-100952833D01*
X106599866Y-100513396D01*
X106602719Y-100388906D01*
X106491115Y-99874688D01*
X106051677Y-99716227D01*
X105927187Y-99713374D01*
X105526266Y-99669570D01*
X105326256Y-99446021D01*
X105258055Y-98904524D01*
X105251655Y-98362310D01*
X105273557Y-97560468D01*
X105385332Y-97160447D01*
X105656080Y-97024045D01*
X105927187Y-97011247D01*
X106441406Y-96899642D01*
X106599866Y-96460205D01*
X106602719Y-96335715D01*
X106491115Y-95821496D01*
X106051677Y-95663036D01*
X105927187Y-95660183D01*
X107683570Y-95660183D01*
X107683570Y-99713374D01*
X111736762Y-99713374D01*
X111736762Y-95660183D01*
X107683570Y-95660183D01*
X105927187Y-95660183D01*
X105412969Y-95771787D01*
X105254508Y-96211225D01*
X105251655Y-96335715D01*
X105140051Y-96849933D01*
X104700613Y-97008394D01*
X104576123Y-97011247D01*
X104061905Y-97122851D01*
X103903444Y-97562289D01*
X103900592Y-97686778D01*
X103788987Y-98200997D01*
X103349550Y-98359457D01*
X103225060Y-98362310D01*
X102710841Y-98250706D01*
X102552381Y-97811268D01*
X102549528Y-97686778D01*
X102437923Y-97172560D01*
X101998486Y-97014099D01*
X101873996Y-97011247D01*
X101473074Y-97055051D01*
X101273064Y-97278599D01*
X101204863Y-97820097D01*
X101198464Y-98362310D01*
X101176562Y-99164153D01*
X101064787Y-99564174D01*
X100794039Y-99700576D01*
X100522932Y-99713374D01*
X100122011Y-99757178D01*
X99922000Y-99980727D01*
X99853799Y-100522224D01*
X99847400Y-101064438D01*
X98091017Y-101064438D01*
X97576799Y-101176043D01*
X97418338Y-101615480D01*
X97415485Y-101739970D01*
X96044255Y-101739970D01*
X96036422Y-101530053D01*
X95898795Y-101174549D01*
X95571095Y-101069082D01*
X95388889Y-101064438D01*
X94874671Y-100952833D01*
X94716210Y-100513396D01*
X94713357Y-100388906D01*
X94601753Y-99874688D01*
X94162315Y-99716227D01*
X94037826Y-99713374D01*
X93523607Y-99824979D01*
X93365146Y-100264416D01*
X93362294Y-100388906D01*
X93250689Y-100903124D01*
X92811252Y-101061585D01*
X92686762Y-101064438D01*
X92172543Y-101176043D01*
X92014083Y-101615480D01*
X92011230Y-101739970D01*
X90935089Y-101739970D01*
X90935681Y-101587155D01*
X90961538Y-100669222D01*
X91022877Y-100112572D01*
X91134623Y-99827649D01*
X91311703Y-99724897D01*
X91470804Y-99713374D01*
X91894586Y-99555049D01*
X92011230Y-99037842D01*
X96064421Y-99037842D01*
X96108226Y-99438764D01*
X96331774Y-99638774D01*
X96873271Y-99706975D01*
X97415485Y-99713374D01*
X98217328Y-99691472D01*
X98617348Y-99579698D01*
X98753751Y-99308949D01*
X98766549Y-99037842D01*
X98722745Y-98636921D01*
X98499196Y-98436911D01*
X97957699Y-98368710D01*
X97415485Y-98362310D01*
X96613642Y-98384212D01*
X96213622Y-98495987D01*
X96077220Y-98766735D01*
X96064421Y-99037842D01*
X92011230Y-99037842D01*
X91884569Y-98508115D01*
X91470804Y-98362310D01*
X91146655Y-98291178D01*
X90984989Y-97989254D01*
X90932691Y-97323746D01*
X90930379Y-97011247D01*
X92011230Y-97011247D01*
X92033132Y-97813089D01*
X92144906Y-98213110D01*
X92415655Y-98349512D01*
X92686762Y-98362310D01*
X93087683Y-98318506D01*
X93287693Y-98094957D01*
X93355894Y-97553460D01*
X93362294Y-97011247D01*
X93340392Y-96209404D01*
X93228617Y-95809383D01*
X92957869Y-95672981D01*
X92686762Y-95660183D01*
X92285840Y-95703987D01*
X92085830Y-95927536D01*
X92017629Y-96469033D01*
X92011230Y-97011247D01*
X90930379Y-97011247D01*
X90958832Y-96200873D01*
X91079601Y-95796709D01*
X91345805Y-95665964D01*
X91470804Y-95660183D01*
X91922413Y-95469113D01*
X92011230Y-95119757D01*
X91820161Y-94668149D01*
X91470804Y-94579332D01*
X91047023Y-94421006D01*
X90930379Y-93903800D01*
X90886574Y-93502878D01*
X90663026Y-93302868D01*
X90121529Y-93234667D01*
X89579315Y-93228268D01*
X88777472Y-93250170D01*
X88377452Y-93361944D01*
X88241049Y-93632693D01*
X88228251Y-93903800D01*
X88339856Y-94418018D01*
X88779293Y-94576479D01*
X88903783Y-94579332D01*
X89433510Y-94705992D01*
X89579315Y-95119757D01*
X89420989Y-95543539D01*
X88903783Y-95660183D01*
X88374056Y-95533522D01*
X88228251Y-95119757D01*
X88069925Y-94695976D01*
X87552719Y-94579332D01*
X87022992Y-94705992D01*
X86877187Y-95119757D01*
X86826156Y-95403767D01*
X86596028Y-95566473D01*
X86071247Y-95640889D01*
X85136260Y-95660032D01*
X84985698Y-95660183D01*
X83991662Y-95645602D01*
X83422193Y-95579851D01*
X83161736Y-95429914D01*
X83094736Y-95162775D01*
X83094209Y-95119757D01*
X83285278Y-94668149D01*
X83634634Y-94579332D01*
X84058415Y-94421006D01*
X84175060Y-93903800D01*
X84048399Y-93374073D01*
X83634634Y-93228268D01*
X83210853Y-93069942D01*
X83094209Y-92552736D01*
X82982604Y-92038518D01*
X82543167Y-91880057D01*
X82418677Y-91877204D01*
X82065748Y-91905019D01*
X81863760Y-92066970D01*
X81770654Y-92480818D01*
X81744375Y-93264325D01*
X81743145Y-93768693D01*
X81733211Y-94756893D01*
X81675371Y-95322460D01*
X81527568Y-95583155D01*
X81247744Y-95656739D01*
X81067613Y-95660183D01*
X80754663Y-95642356D01*
X80557291Y-95521391D01*
X80448858Y-95196059D01*
X80402725Y-94565129D01*
X80392252Y-93527374D01*
X80392081Y-93093161D01*
X80392081Y-91201672D01*
X83094209Y-91201672D01*
X83220869Y-91731399D01*
X83634634Y-91877204D01*
X84058415Y-92035530D01*
X84175060Y-92552736D01*
X84286664Y-93066954D01*
X84726102Y-93225415D01*
X84850592Y-93228268D01*
X85364810Y-93339872D01*
X85523271Y-93779310D01*
X85526123Y-93903800D01*
X85637728Y-94418018D01*
X86077165Y-94576479D01*
X86201655Y-94579332D01*
X86715874Y-94467727D01*
X86874334Y-94028290D01*
X86877187Y-93903800D01*
X86988792Y-93389581D01*
X87428229Y-93231121D01*
X87552719Y-93228268D01*
X88066937Y-93116663D01*
X88225398Y-92677226D01*
X88228251Y-92552736D01*
X88339856Y-92038518D01*
X88779293Y-91880057D01*
X88903783Y-91877204D01*
X89418001Y-91765599D01*
X89576462Y-91326162D01*
X89579315Y-91201672D01*
X89690920Y-90687454D01*
X90130357Y-90528993D01*
X90254847Y-90526140D01*
X90655768Y-90569944D01*
X90855778Y-90793493D01*
X90923980Y-91334990D01*
X90930379Y-91877204D01*
X90958832Y-92687578D01*
X91079601Y-93091741D01*
X91345805Y-93222487D01*
X91470804Y-93228268D01*
X91894586Y-93386593D01*
X92011230Y-93903800D01*
X92055034Y-94304721D01*
X92278583Y-94504731D01*
X92820080Y-94572932D01*
X93362294Y-94579332D01*
X94713357Y-94579332D01*
X94713357Y-97011247D01*
X96064421Y-97011247D01*
X96866264Y-96989344D01*
X97266284Y-96877570D01*
X97402687Y-96606821D01*
X97415485Y-96335715D01*
X97527090Y-95821496D01*
X97966527Y-95663036D01*
X98091017Y-95660183D01*
X98766549Y-95660183D01*
X98766549Y-93228268D01*
X99847400Y-93228268D01*
X99847400Y-95660183D01*
X101198464Y-95660183D01*
X102008838Y-95631730D01*
X102413001Y-95510960D01*
X102543747Y-95244757D01*
X102549528Y-95119757D01*
X102707853Y-94695976D01*
X103225060Y-94579332D01*
X103739278Y-94467727D01*
X103897739Y-94028290D01*
X103900592Y-93903800D01*
X104012196Y-93389581D01*
X104451633Y-93231121D01*
X104576123Y-93228268D01*
X105090342Y-93339872D01*
X105248802Y-93779310D01*
X105251655Y-93903800D01*
X105363260Y-94418018D01*
X105802697Y-94576479D01*
X105927187Y-94579332D01*
X106328109Y-94535527D01*
X106528119Y-94311979D01*
X106579529Y-93903800D01*
X110385698Y-93903800D01*
X110429502Y-94304721D01*
X110653051Y-94504731D01*
X111194548Y-94572932D01*
X111736762Y-94579332D01*
X112547136Y-94607784D01*
X112951299Y-94728554D01*
X113082044Y-94994757D01*
X113087826Y-95119757D01*
X113246151Y-95543539D01*
X113763357Y-95660183D01*
X114293084Y-95533522D01*
X114438889Y-95119757D01*
X114629959Y-94668149D01*
X114979315Y-94579332D01*
X115403096Y-94421006D01*
X115519740Y-93903800D01*
X115393080Y-93374073D01*
X114979315Y-93228268D01*
X114655165Y-93157136D01*
X114493500Y-92855211D01*
X114441202Y-92189703D01*
X114438889Y-91877204D01*
X114416987Y-91075361D01*
X114305213Y-90675341D01*
X114034464Y-90538939D01*
X113763357Y-90526140D01*
X113249139Y-90414536D01*
X113090678Y-89975098D01*
X113087826Y-89850608D01*
X113138224Y-89433752D01*
X113385954Y-89236249D01*
X113975813Y-89177656D01*
X114303783Y-89175076D01*
X115054125Y-89147077D01*
X115409630Y-89009450D01*
X115515096Y-88681750D01*
X115519740Y-88499544D01*
X115469342Y-88082688D01*
X115221612Y-87885185D01*
X114631753Y-87826593D01*
X114303783Y-87824012D01*
X113553441Y-87852012D01*
X113197936Y-87989639D01*
X113092470Y-88317339D01*
X113087826Y-88499544D01*
X112976221Y-89013763D01*
X112536784Y-89172223D01*
X112412294Y-89175076D01*
X111898075Y-89286681D01*
X111739615Y-89726118D01*
X111736762Y-89850608D01*
X111848366Y-90364827D01*
X112287804Y-90523287D01*
X112412294Y-90526140D01*
X112813215Y-90569944D01*
X113013225Y-90793493D01*
X113081426Y-91334990D01*
X113087826Y-91877204D01*
X113087826Y-93228268D01*
X111736762Y-93228268D01*
X110934919Y-93250170D01*
X110534899Y-93361944D01*
X110398496Y-93632693D01*
X110385698Y-93903800D01*
X106579529Y-93903800D01*
X106596320Y-93770481D01*
X106602719Y-93228268D01*
X106631172Y-92417894D01*
X106751942Y-92013730D01*
X107018145Y-91882985D01*
X107143145Y-91877204D01*
X107566926Y-92035530D01*
X107683570Y-92552736D01*
X107795175Y-93066954D01*
X108234612Y-93225415D01*
X108359102Y-93228268D01*
X108873320Y-93116663D01*
X109031781Y-92677226D01*
X109034634Y-92552736D01*
X108923029Y-92038518D01*
X108483592Y-91880057D01*
X108359102Y-91877204D01*
X107958181Y-91833400D01*
X107758171Y-91609851D01*
X107689969Y-91068354D01*
X107683570Y-90526140D01*
X107659851Y-89850608D01*
X109034634Y-89850608D01*
X109146239Y-90364827D01*
X109585676Y-90523287D01*
X109710166Y-90526140D01*
X110224384Y-90414536D01*
X110382845Y-89975098D01*
X110385698Y-89850608D01*
X110274093Y-89336390D01*
X109834656Y-89177929D01*
X109710166Y-89175076D01*
X109195948Y-89286681D01*
X109037487Y-89726118D01*
X109034634Y-89850608D01*
X107659851Y-89850608D01*
X107655117Y-89715766D01*
X107534348Y-89311603D01*
X107268144Y-89180857D01*
X107143145Y-89175076D01*
X106818995Y-89246208D01*
X106657330Y-89548133D01*
X106605032Y-90213641D01*
X106602719Y-90526140D01*
X106580817Y-91327983D01*
X106469043Y-91728003D01*
X106198294Y-91864406D01*
X105927187Y-91877204D01*
X105526266Y-91833400D01*
X105326256Y-91609851D01*
X105258055Y-91068354D01*
X105251655Y-90526140D01*
X105229753Y-89724297D01*
X105117979Y-89324277D01*
X104847230Y-89187875D01*
X104576123Y-89175076D01*
X104061905Y-89063472D01*
X103903444Y-88624034D01*
X103900592Y-88499544D01*
X103944396Y-88098623D01*
X104167944Y-87898613D01*
X104709442Y-87830412D01*
X105251655Y-87824012D01*
X106062029Y-87795560D01*
X106466193Y-87674790D01*
X106596938Y-87408587D01*
X106602719Y-87283587D01*
X109034634Y-87283587D01*
X109105766Y-87607736D01*
X109407690Y-87769402D01*
X110073198Y-87821700D01*
X110385698Y-87824012D01*
X111196072Y-87795560D01*
X111600235Y-87674790D01*
X111730981Y-87408587D01*
X111736762Y-87283587D01*
X111665630Y-86959437D01*
X111363705Y-86797772D01*
X110698197Y-86745474D01*
X110385698Y-86743161D01*
X109575324Y-86771614D01*
X109171160Y-86892384D01*
X109040415Y-87158587D01*
X109034634Y-87283587D01*
X106602719Y-87283587D01*
X106531587Y-86959437D01*
X106229663Y-86797772D01*
X105564155Y-86745474D01*
X105251655Y-86743161D01*
X104449813Y-86721259D01*
X104049792Y-86609485D01*
X103913390Y-86338736D01*
X103900592Y-86067630D01*
X104012196Y-85553411D01*
X104451633Y-85394950D01*
X104576123Y-85392098D01*
X105090342Y-85280493D01*
X105248802Y-84841056D01*
X105251655Y-84716566D01*
X105363260Y-84202347D01*
X105802697Y-84043887D01*
X105927187Y-84041034D01*
X106441406Y-84152638D01*
X106599866Y-84592076D01*
X106602719Y-84716566D01*
X106602719Y-85392098D01*
X113087826Y-85392098D01*
X113087826Y-84041034D01*
X113065923Y-83239191D01*
X112954149Y-82839171D01*
X112683400Y-82702768D01*
X112412294Y-82689970D01*
X111898075Y-82578365D01*
X111739615Y-82138928D01*
X111736762Y-82014438D01*
X111692957Y-81613517D01*
X111469409Y-81413506D01*
X110927912Y-81345305D01*
X110385698Y-81338906D01*
X109583855Y-81317004D01*
X109183835Y-81205230D01*
X109047432Y-80934481D01*
X109034634Y-80663374D01*
X108923029Y-80149156D01*
X108483592Y-79990695D01*
X108359102Y-79987842D01*
X108015498Y-80013099D01*
X107814086Y-80164758D01*
X107716919Y-80556657D01*
X107686054Y-81302629D01*
X107683570Y-82014438D01*
X107670806Y-83050611D01*
X107612604Y-83658576D01*
X107479098Y-83950326D01*
X107240425Y-84037855D01*
X107143145Y-84041034D01*
X106818995Y-83969902D01*
X106657330Y-83667977D01*
X106605032Y-83002469D01*
X106602719Y-82689970D01*
X106602719Y-81338906D01*
X105251655Y-81338906D01*
X104449813Y-81360808D01*
X104049792Y-81472583D01*
X103913390Y-81743331D01*
X103900592Y-82014438D01*
X103788987Y-82528656D01*
X103349550Y-82687117D01*
X103225060Y-82689970D01*
X102710841Y-82578365D01*
X102552381Y-82138928D01*
X102549528Y-82014438D01*
X102437923Y-81500220D01*
X101998486Y-81341759D01*
X101873996Y-81338906D01*
X101473074Y-81382710D01*
X101273064Y-81606259D01*
X101204863Y-82147756D01*
X101198464Y-82689970D01*
X101198464Y-84041034D01*
X102549528Y-84041034D01*
X103351370Y-84062936D01*
X103751391Y-84174710D01*
X103887793Y-84445459D01*
X103900592Y-84716566D01*
X103788987Y-85230784D01*
X103349550Y-85389245D01*
X103225060Y-85392098D01*
X102710841Y-85503702D01*
X102552381Y-85943140D01*
X102549528Y-86067630D01*
X102661132Y-86581848D01*
X103100570Y-86740309D01*
X103225060Y-86743161D01*
X103754786Y-86869822D01*
X103900592Y-87283587D01*
X103742266Y-87707368D01*
X103225060Y-87824012D01*
X102710841Y-87935617D01*
X102552381Y-88375054D01*
X102549528Y-88499544D01*
X102661132Y-89013763D01*
X103100570Y-89172223D01*
X103225060Y-89175076D01*
X103739278Y-89286681D01*
X103897739Y-89726118D01*
X103900592Y-89850608D01*
X103788987Y-90364827D01*
X103349550Y-90523287D01*
X103225060Y-90526140D01*
X102824138Y-90569944D01*
X102624128Y-90793493D01*
X102555927Y-91334990D01*
X102549528Y-91877204D01*
X102549528Y-93228268D01*
X99847400Y-93228268D01*
X98766549Y-93228268D01*
X98766549Y-91742098D01*
X98770313Y-90214472D01*
X98789110Y-89145627D01*
X98834200Y-88453932D01*
X98916843Y-88057757D01*
X99048298Y-87875469D01*
X99239824Y-87825438D01*
X99306974Y-87824012D01*
X99631124Y-87895145D01*
X99792789Y-88197069D01*
X99845088Y-88862577D01*
X99847400Y-89175076D01*
X99869302Y-89976919D01*
X99981076Y-90376940D01*
X100251825Y-90513342D01*
X100522932Y-90526140D01*
X100923853Y-90482336D01*
X101123864Y-90258787D01*
X101192065Y-89717290D01*
X101198464Y-89175076D01*
X101176562Y-88373234D01*
X101064787Y-87973213D01*
X100794039Y-87836811D01*
X100522932Y-87824012D01*
X99993205Y-87697352D01*
X99847400Y-87283587D01*
X99656331Y-86831978D01*
X99306974Y-86743161D01*
X98982825Y-86672029D01*
X98821159Y-86370105D01*
X98768861Y-85704597D01*
X98766549Y-85392098D01*
X98795002Y-84581724D01*
X98915771Y-84177560D01*
X99181975Y-84046815D01*
X99306974Y-84041034D01*
X99631124Y-83969902D01*
X99792789Y-83667977D01*
X99845088Y-83002469D01*
X99847400Y-82689970D01*
X99818947Y-81879596D01*
X99698177Y-81475432D01*
X99431974Y-81344687D01*
X99306974Y-81338906D01*
X99055796Y-81300143D01*
X98897271Y-81117023D01*
X98810293Y-80689298D01*
X98773757Y-79916722D01*
X98766549Y-78771885D01*
X98761858Y-77582676D01*
X98732051Y-76880395D01*
X99847400Y-76880395D01*
X99959005Y-77394614D01*
X100398442Y-77553075D01*
X100522932Y-77555927D01*
X101037150Y-77444323D01*
X101195611Y-77004885D01*
X101198464Y-76880395D01*
X101086859Y-76366177D01*
X100647422Y-76207716D01*
X100522932Y-76204864D01*
X100008714Y-76316468D01*
X99850253Y-76755906D01*
X99847400Y-76880395D01*
X98732051Y-76880395D01*
X98730025Y-76832663D01*
X98644411Y-76420618D01*
X98478377Y-76245311D01*
X98205284Y-76205513D01*
X98091017Y-76204864D01*
X97576799Y-76316468D01*
X97418338Y-76755906D01*
X97415485Y-76880395D01*
X97303880Y-77394614D01*
X96864443Y-77553075D01*
X96739953Y-77555927D01*
X96225735Y-77444323D01*
X96067274Y-77004885D01*
X96064421Y-76880395D01*
X95952817Y-76366177D01*
X95513379Y-76207716D01*
X95388889Y-76204864D01*
X94874671Y-76316468D01*
X94716210Y-76755906D01*
X94713357Y-76880395D01*
X94824962Y-77394614D01*
X95264399Y-77553075D01*
X95388889Y-77555927D01*
X95805746Y-77606326D01*
X96003249Y-77854055D01*
X96061841Y-78443915D01*
X96064421Y-78771885D01*
X96036422Y-79522227D01*
X95898795Y-79877732D01*
X95571095Y-79983198D01*
X95388889Y-79987842D01*
X94859163Y-79861182D01*
X94713357Y-79447417D01*
X94555032Y-79023635D01*
X94037826Y-78906991D01*
X93508099Y-79033652D01*
X93362294Y-79447417D01*
X93203968Y-79871198D01*
X92686762Y-79987842D01*
X92343158Y-80013099D01*
X92141745Y-80164758D01*
X92044579Y-80556657D01*
X92013713Y-81302629D01*
X92011230Y-82014438D01*
X91998466Y-83050611D01*
X91940263Y-83658576D01*
X91806758Y-83950326D01*
X91568084Y-84037855D01*
X91470804Y-84041034D01*
X91047023Y-84199359D01*
X90930379Y-84716566D01*
X90886574Y-85117487D01*
X90663026Y-85317497D01*
X90121529Y-85385698D01*
X89579315Y-85392098D01*
X88777472Y-85414000D01*
X88377452Y-85525774D01*
X88241049Y-85796523D01*
X88228251Y-86067630D01*
X88116646Y-86581848D01*
X87677209Y-86740309D01*
X87552719Y-86743161D01*
X87038501Y-86631557D01*
X86880040Y-86192119D01*
X86877187Y-86067630D01*
X86765583Y-85553411D01*
X86326145Y-85394950D01*
X86201655Y-85392098D01*
X85687437Y-85503702D01*
X85528976Y-85943140D01*
X85526123Y-86067630D01*
X85637728Y-86581848D01*
X86077165Y-86740309D01*
X86201655Y-86743161D01*
X86731382Y-86869822D01*
X86877187Y-87283587D01*
X87035513Y-87707368D01*
X87552719Y-87824012D01*
X88066937Y-87935617D01*
X88225398Y-88375054D01*
X88228251Y-88499544D01*
X88339856Y-89013763D01*
X88779293Y-89172223D01*
X88903783Y-89175076D01*
X89418001Y-89286681D01*
X89576462Y-89726118D01*
X89579315Y-89850608D01*
X89535511Y-90251530D01*
X89311962Y-90451540D01*
X88770465Y-90519741D01*
X88228251Y-90526140D01*
X87426408Y-90504238D01*
X87026388Y-90392464D01*
X86889986Y-90121715D01*
X86877187Y-89850608D01*
X86765583Y-89336390D01*
X86326145Y-89177929D01*
X86201655Y-89175076D01*
X85687437Y-89286681D01*
X85528976Y-89726118D01*
X85526123Y-89850608D01*
X85637728Y-90364827D01*
X86077165Y-90523287D01*
X86201655Y-90526140D01*
X86602577Y-90569944D01*
X86802587Y-90793493D01*
X86870788Y-91334990D01*
X86877187Y-91877204D01*
X86855285Y-92679047D01*
X86743511Y-93079067D01*
X86472762Y-93215469D01*
X86201655Y-93228268D01*
X85687437Y-93116663D01*
X85528976Y-92677226D01*
X85526123Y-92552736D01*
X85414519Y-92038518D01*
X84975081Y-91880057D01*
X84850592Y-91877204D01*
X84336373Y-91765599D01*
X84177912Y-91326162D01*
X84175060Y-91201672D01*
X84048399Y-90671945D01*
X83634634Y-90526140D01*
X83210853Y-90684466D01*
X83094209Y-91201672D01*
X80392081Y-91201672D01*
X80392081Y-90526140D01*
X81743145Y-90526140D01*
X82544987Y-90504238D01*
X82945008Y-90392464D01*
X83081410Y-90121715D01*
X83094209Y-89850608D01*
X82982604Y-89336390D01*
X82543167Y-89177929D01*
X82418677Y-89175076D01*
X81904458Y-89063472D01*
X81745998Y-88624034D01*
X81743145Y-88499544D01*
X81631540Y-87985326D01*
X81192103Y-87826865D01*
X81067613Y-87824012D01*
X80650756Y-87773614D01*
X80453254Y-87525884D01*
X80394661Y-86936025D01*
X80392081Y-86608055D01*
X80420080Y-85857713D01*
X80557708Y-85502208D01*
X80885407Y-85396742D01*
X81067613Y-85392098D01*
X81484469Y-85442496D01*
X81681972Y-85690226D01*
X81740565Y-86280085D01*
X81743145Y-86608055D01*
X81771144Y-87358397D01*
X81908771Y-87713902D01*
X82236471Y-87819368D01*
X82418677Y-87824012D01*
X82932895Y-87935617D01*
X83091356Y-88375054D01*
X83094209Y-88499544D01*
X83220869Y-89029271D01*
X83634634Y-89175076D01*
X84058415Y-89016751D01*
X84175060Y-88499544D01*
X84286664Y-87985326D01*
X84726102Y-87826865D01*
X84850592Y-87824012D01*
X85380318Y-87697352D01*
X85526123Y-87283587D01*
X85446564Y-86945864D01*
X85116203Y-86786164D01*
X84397518Y-86743368D01*
X84310166Y-86743161D01*
X83559824Y-86715162D01*
X83204319Y-86577535D01*
X83098853Y-86249835D01*
X83094209Y-86067630D01*
X83144607Y-85650773D01*
X83392337Y-85453270D01*
X83982196Y-85394678D01*
X84310166Y-85392098D01*
X85526123Y-85392098D01*
X85526123Y-82689970D01*
X83634634Y-82689970D01*
X82646434Y-82680036D01*
X82080867Y-82622196D01*
X81820172Y-82474393D01*
X81746588Y-82194570D01*
X81743145Y-82014438D01*
X81631540Y-81500220D01*
X81192103Y-81341759D01*
X81067613Y-81338906D01*
X80650756Y-81288507D01*
X80453254Y-81040778D01*
X80415765Y-80663374D01*
X81743145Y-80663374D01*
X81770959Y-81016303D01*
X81932910Y-81218291D01*
X82346759Y-81311396D01*
X83130266Y-81337676D01*
X83634634Y-81338906D01*
X84622834Y-81328972D01*
X85188401Y-81271133D01*
X85449096Y-81123330D01*
X85522680Y-80843506D01*
X85526123Y-80663374D01*
X85498309Y-80310446D01*
X85336358Y-80108457D01*
X84922509Y-80015352D01*
X84139002Y-79989072D01*
X83634634Y-79987842D01*
X82646434Y-79997776D01*
X82080867Y-80055616D01*
X81820172Y-80203419D01*
X81746588Y-80483243D01*
X81743145Y-80663374D01*
X80415765Y-80663374D01*
X80394661Y-80450919D01*
X80392081Y-80122949D01*
X80392081Y-78906991D01*
X86877187Y-78906991D01*
X86877187Y-84041034D01*
X90930379Y-84041034D01*
X90930379Y-82689970D01*
X90908477Y-81888127D01*
X90796702Y-81488107D01*
X90525954Y-81351705D01*
X90254847Y-81338906D01*
X89740629Y-81450511D01*
X89582168Y-81889948D01*
X89579315Y-82014438D01*
X89467710Y-82528656D01*
X89028273Y-82687117D01*
X88903783Y-82689970D01*
X88389565Y-82578365D01*
X88231104Y-82138928D01*
X88228251Y-82014438D01*
X88339856Y-81500220D01*
X88779293Y-81341759D01*
X88903783Y-81338906D01*
X89418001Y-81227301D01*
X89576462Y-80787864D01*
X89579315Y-80663374D01*
X89467710Y-80149156D01*
X89028273Y-79990695D01*
X88903783Y-79987842D01*
X88374056Y-79861182D01*
X88228251Y-79447417D01*
X88279282Y-79163407D01*
X88509411Y-79000701D01*
X89034191Y-78926285D01*
X89969178Y-78907142D01*
X90119740Y-78906991D01*
X91107940Y-78897057D01*
X91673507Y-78839218D01*
X91934202Y-78691415D01*
X92007786Y-78411591D01*
X92011230Y-78231459D01*
X91884569Y-77701733D01*
X91470804Y-77555927D01*
X91146655Y-77484795D01*
X90984989Y-77182871D01*
X90961219Y-76880395D01*
X92011230Y-76880395D01*
X92122834Y-77394614D01*
X92562272Y-77553075D01*
X92686762Y-77555927D01*
X93200980Y-77444323D01*
X93359441Y-77004885D01*
X93362294Y-76880395D01*
X93250689Y-76366177D01*
X92811252Y-76207716D01*
X92686762Y-76204864D01*
X92172543Y-76316468D01*
X92014083Y-76755906D01*
X92011230Y-76880395D01*
X90961219Y-76880395D01*
X90932691Y-76517363D01*
X90930379Y-76204864D01*
X90958832Y-75394490D01*
X91079601Y-74990326D01*
X91345805Y-74859581D01*
X91470804Y-74853800D01*
X91894586Y-74695474D01*
X92011230Y-74178268D01*
X91884569Y-73648541D01*
X91470804Y-73502736D01*
X91047023Y-73344410D01*
X90930379Y-72827204D01*
X90958193Y-72474275D01*
X91120144Y-72272287D01*
X91533993Y-72179182D01*
X92317500Y-72152902D01*
X92821868Y-72151672D01*
X93810068Y-72161606D01*
X94375635Y-72219446D01*
X94636330Y-72367249D01*
X94709914Y-72647072D01*
X94713357Y-72827204D01*
X94601753Y-73341422D01*
X94162315Y-73499883D01*
X94037826Y-73502736D01*
X93636904Y-73546540D01*
X93436894Y-73770089D01*
X93368693Y-74311586D01*
X93362294Y-74853800D01*
X93384196Y-75655642D01*
X93495970Y-76055663D01*
X93766719Y-76192065D01*
X94037826Y-76204864D01*
X94552044Y-76093259D01*
X94710505Y-75653822D01*
X94713357Y-75529332D01*
X94757162Y-75128410D01*
X94980710Y-74928400D01*
X95522208Y-74860199D01*
X96064421Y-74853800D01*
X96866264Y-74831898D01*
X97266284Y-74720123D01*
X97402687Y-74449375D01*
X97415485Y-74178268D01*
X99847400Y-74178268D01*
X99959005Y-74692486D01*
X100398442Y-74850947D01*
X100522932Y-74853800D01*
X101037150Y-74742195D01*
X101195611Y-74302758D01*
X101198464Y-74178268D01*
X101086859Y-73664050D01*
X100647422Y-73505589D01*
X100522932Y-73502736D01*
X100008714Y-73614341D01*
X99850253Y-74053778D01*
X99847400Y-74178268D01*
X97415485Y-74178268D01*
X97303880Y-73664050D01*
X96864443Y-73505589D01*
X96739953Y-73502736D01*
X96323096Y-73452337D01*
X96125594Y-73204608D01*
X96067001Y-72614748D01*
X96064421Y-72286778D01*
X97415485Y-72286778D01*
X97443484Y-73037121D01*
X97581112Y-73392625D01*
X97908811Y-73498092D01*
X98091017Y-73502736D01*
X98507874Y-73452337D01*
X98705376Y-73204608D01*
X98763969Y-72614748D01*
X98766549Y-72286778D01*
X98738550Y-71536436D01*
X98600922Y-71180932D01*
X98273223Y-71075465D01*
X98091017Y-71070821D01*
X97674160Y-71121220D01*
X97476658Y-71368949D01*
X97418065Y-71958808D01*
X97415485Y-72286778D01*
X96064421Y-72286778D01*
X96092421Y-71536436D01*
X96230048Y-71180932D01*
X96557748Y-71075465D01*
X96739953Y-71070821D01*
X97254171Y-70959216D01*
X97412632Y-70519779D01*
X97415485Y-70395289D01*
X97303880Y-69881071D01*
X96864443Y-69722610D01*
X96739953Y-69719757D01*
X96225735Y-69608153D01*
X96067274Y-69168715D01*
X96064421Y-69044225D01*
X96108226Y-68643304D01*
X96331774Y-68443294D01*
X96873271Y-68375093D01*
X97415485Y-68368693D01*
X98217328Y-68390595D01*
X98617348Y-68502370D01*
X98753751Y-68773118D01*
X98766549Y-69044225D01*
X98816948Y-69461082D01*
X99064677Y-69658585D01*
X99654536Y-69717177D01*
X99982506Y-69719757D01*
X100732848Y-69691758D01*
X101088353Y-69554130D01*
X101193820Y-69226431D01*
X101198464Y-69044225D01*
X101310068Y-68530007D01*
X101749506Y-68371546D01*
X101873996Y-68368693D01*
X102274917Y-68412498D01*
G37*
D14*
X99047570Y-52919064D02*
X106847570Y-52919064D01*
X99047570Y-58969064D02*
X99047570Y-52919064D01*
X100397570Y-57859064D02*
X105477570Y-57859064D01*
X100397570Y-58869064D02*
X100397570Y-57859064D01*
X105477570Y-57859064D02*
X105477570Y-58869064D01*
X106847570Y-52919064D02*
X106847570Y-58969064D01*
X106847570Y-58969064D02*
X99047570Y-58969064D01*
M02*
