%TF.GenerationSoftware,KiCad,Pcbnew,8.0.8*%
%TF.CreationDate,2025-01-21T13:57:37+00:00*%
%TF.ProjectId,X6800 PicoPSU v2.kicad_pcb_24pinATX,58363830-3020-4506-9963-6f5053552076,rev?*%
%TF.SameCoordinates,Original*%
%TF.FileFunction,Drillmap*%
%TF.FilePolarity,Positive*%
%FSLAX45Y45*%
G04 Gerber Fmt 4.5, Leading zero omitted, Abs format (unit mm)*
G04 Created by KiCad (PCBNEW 8.0.8) date 2025-01-21 13:57:37*
%MOMM*%
%LPD*%
G01*
G04 APERTURE LIST*
%ADD10C,0.150000*%
%ADD11C,0.200000*%
%ADD12C,0.270000*%
%ADD13C,0.350000*%
G04 APERTURE END LIST*
D10*
X12000000Y-11790000D02*
X12000000Y-14390000D01*
X5610000Y-11790000D02*
X12000000Y-11790000D01*
X18100000Y-9900000D02*
X23000000Y-9900000D01*
X23590000Y-10100000D02*
X23590000Y-14000000D01*
X21000000Y-14000000D02*
X23590000Y-14000000D01*
X23000000Y-9900000D02*
X23000000Y-10100000D01*
X23000000Y-10100000D02*
X23590000Y-10100000D01*
X17900000Y-14300000D02*
X21000000Y-14300000D01*
X17900000Y-14300000D02*
X17900000Y-14390000D01*
X21000000Y-14000000D02*
X21000000Y-14300000D01*
X5610000Y-5010000D02*
X18100000Y-5010000D01*
X18100000Y-5010000D02*
X18100000Y-9900000D01*
X12000000Y-14390000D02*
X17900000Y-14390000D01*
X5610000Y-5010000D02*
X5610000Y-11790000D01*
D11*
D12*
X5715000Y-5115000D02*
X5985000Y-5385000D01*
X5985000Y-5115000D02*
X5715000Y-5385000D01*
X12265000Y-14015000D02*
X12535000Y-14285000D01*
X12535000Y-14015000D02*
X12265000Y-14285000D01*
X17715000Y-5115000D02*
X17985000Y-5385000D01*
X17985000Y-5115000D02*
X17715000Y-5385000D01*
X23215000Y-12465000D02*
X23485000Y-12735000D01*
X23485000Y-12465000D02*
X23215000Y-12735000D01*
D13*
X6592500Y-10962500D02*
G75*
G02*
X6242500Y-10962500I-175000J0D01*
G01*
X6242500Y-10962500D02*
G75*
G02*
X6592500Y-10962500I175000J0D01*
G01*
X13577500Y-10962500D02*
G75*
G02*
X13227500Y-10962500I-175000J0D01*
G01*
X13227500Y-10962500D02*
G75*
G02*
X13577500Y-10962500I175000J0D01*
G01*
D11*
X5863277Y-14708984D02*
X5863277Y-14508984D01*
X5863277Y-14508984D02*
X5910896Y-14508984D01*
X5910896Y-14508984D02*
X5939467Y-14518508D01*
X5939467Y-14518508D02*
X5958515Y-14537555D01*
X5958515Y-14537555D02*
X5968039Y-14556603D01*
X5968039Y-14556603D02*
X5977562Y-14594698D01*
X5977562Y-14594698D02*
X5977562Y-14623269D01*
X5977562Y-14623269D02*
X5968039Y-14661365D01*
X5968039Y-14661365D02*
X5958515Y-14680412D01*
X5958515Y-14680412D02*
X5939467Y-14699460D01*
X5939467Y-14699460D02*
X5910896Y-14708984D01*
X5910896Y-14708984D02*
X5863277Y-14708984D01*
X6063277Y-14708984D02*
X6063277Y-14575650D01*
X6063277Y-14613746D02*
X6072801Y-14594698D01*
X6072801Y-14594698D02*
X6082324Y-14585174D01*
X6082324Y-14585174D02*
X6101372Y-14575650D01*
X6101372Y-14575650D02*
X6120420Y-14575650D01*
X6187086Y-14708984D02*
X6187086Y-14575650D01*
X6187086Y-14508984D02*
X6177562Y-14518508D01*
X6177562Y-14518508D02*
X6187086Y-14528031D01*
X6187086Y-14528031D02*
X6196610Y-14518508D01*
X6196610Y-14518508D02*
X6187086Y-14508984D01*
X6187086Y-14508984D02*
X6187086Y-14528031D01*
X6310896Y-14708984D02*
X6291848Y-14699460D01*
X6291848Y-14699460D02*
X6282324Y-14680412D01*
X6282324Y-14680412D02*
X6282324Y-14508984D01*
X6415658Y-14708984D02*
X6396610Y-14699460D01*
X6396610Y-14699460D02*
X6387086Y-14680412D01*
X6387086Y-14680412D02*
X6387086Y-14508984D01*
X6644229Y-14708984D02*
X6644229Y-14508984D01*
X6644229Y-14508984D02*
X6710896Y-14651841D01*
X6710896Y-14651841D02*
X6777562Y-14508984D01*
X6777562Y-14508984D02*
X6777562Y-14708984D01*
X6958515Y-14708984D02*
X6958515Y-14604222D01*
X6958515Y-14604222D02*
X6948991Y-14585174D01*
X6948991Y-14585174D02*
X6929943Y-14575650D01*
X6929943Y-14575650D02*
X6891848Y-14575650D01*
X6891848Y-14575650D02*
X6872801Y-14585174D01*
X6958515Y-14699460D02*
X6939467Y-14708984D01*
X6939467Y-14708984D02*
X6891848Y-14708984D01*
X6891848Y-14708984D02*
X6872801Y-14699460D01*
X6872801Y-14699460D02*
X6863277Y-14680412D01*
X6863277Y-14680412D02*
X6863277Y-14661365D01*
X6863277Y-14661365D02*
X6872801Y-14642317D01*
X6872801Y-14642317D02*
X6891848Y-14632793D01*
X6891848Y-14632793D02*
X6939467Y-14632793D01*
X6939467Y-14632793D02*
X6958515Y-14623269D01*
X7053753Y-14575650D02*
X7053753Y-14775650D01*
X7053753Y-14585174D02*
X7072801Y-14575650D01*
X7072801Y-14575650D02*
X7110896Y-14575650D01*
X7110896Y-14575650D02*
X7129943Y-14585174D01*
X7129943Y-14585174D02*
X7139467Y-14594698D01*
X7139467Y-14594698D02*
X7148991Y-14613746D01*
X7148991Y-14613746D02*
X7148991Y-14670888D01*
X7148991Y-14670888D02*
X7139467Y-14689936D01*
X7139467Y-14689936D02*
X7129943Y-14699460D01*
X7129943Y-14699460D02*
X7110896Y-14708984D01*
X7110896Y-14708984D02*
X7072801Y-14708984D01*
X7072801Y-14708984D02*
X7053753Y-14699460D01*
X7234705Y-14689936D02*
X7244229Y-14699460D01*
X7244229Y-14699460D02*
X7234705Y-14708984D01*
X7234705Y-14708984D02*
X7225182Y-14699460D01*
X7225182Y-14699460D02*
X7234705Y-14689936D01*
X7234705Y-14689936D02*
X7234705Y-14708984D01*
X7234705Y-14585174D02*
X7244229Y-14594698D01*
X7244229Y-14594698D02*
X7234705Y-14604222D01*
X7234705Y-14604222D02*
X7225182Y-14594698D01*
X7225182Y-14594698D02*
X7234705Y-14585174D01*
X7234705Y-14585174D02*
X7234705Y-14604222D01*
X5402500Y-14937500D02*
X5602500Y-15137500D01*
X5602500Y-14937500D02*
X5402500Y-15137500D01*
X5853753Y-14948031D02*
X5863277Y-14938508D01*
X5863277Y-14938508D02*
X5882324Y-14928984D01*
X5882324Y-14928984D02*
X5929943Y-14928984D01*
X5929943Y-14928984D02*
X5948991Y-14938508D01*
X5948991Y-14938508D02*
X5958515Y-14948031D01*
X5958515Y-14948031D02*
X5968039Y-14967079D01*
X5968039Y-14967079D02*
X5968039Y-14986127D01*
X5968039Y-14986127D02*
X5958515Y-15014698D01*
X5958515Y-15014698D02*
X5844229Y-15128984D01*
X5844229Y-15128984D02*
X5968039Y-15128984D01*
X6053753Y-15109936D02*
X6063277Y-15119460D01*
X6063277Y-15119460D02*
X6053753Y-15128984D01*
X6053753Y-15128984D02*
X6044229Y-15119460D01*
X6044229Y-15119460D02*
X6053753Y-15109936D01*
X6053753Y-15109936D02*
X6053753Y-15128984D01*
X6129943Y-14928984D02*
X6263277Y-14928984D01*
X6263277Y-14928984D02*
X6177562Y-15128984D01*
X6377562Y-14928984D02*
X6396610Y-14928984D01*
X6396610Y-14928984D02*
X6415658Y-14938508D01*
X6415658Y-14938508D02*
X6425182Y-14948031D01*
X6425182Y-14948031D02*
X6434705Y-14967079D01*
X6434705Y-14967079D02*
X6444229Y-15005174D01*
X6444229Y-15005174D02*
X6444229Y-15052793D01*
X6444229Y-15052793D02*
X6434705Y-15090888D01*
X6434705Y-15090888D02*
X6425182Y-15109936D01*
X6425182Y-15109936D02*
X6415658Y-15119460D01*
X6415658Y-15119460D02*
X6396610Y-15128984D01*
X6396610Y-15128984D02*
X6377562Y-15128984D01*
X6377562Y-15128984D02*
X6358515Y-15119460D01*
X6358515Y-15119460D02*
X6348991Y-15109936D01*
X6348991Y-15109936D02*
X6339467Y-15090888D01*
X6339467Y-15090888D02*
X6329943Y-15052793D01*
X6329943Y-15052793D02*
X6329943Y-15005174D01*
X6329943Y-15005174D02*
X6339467Y-14967079D01*
X6339467Y-14967079D02*
X6348991Y-14948031D01*
X6348991Y-14948031D02*
X6358515Y-14938508D01*
X6358515Y-14938508D02*
X6377562Y-14928984D01*
X6568039Y-14928984D02*
X6587086Y-14928984D01*
X6587086Y-14928984D02*
X6606134Y-14938508D01*
X6606134Y-14938508D02*
X6615658Y-14948031D01*
X6615658Y-14948031D02*
X6625182Y-14967079D01*
X6625182Y-14967079D02*
X6634705Y-15005174D01*
X6634705Y-15005174D02*
X6634705Y-15052793D01*
X6634705Y-15052793D02*
X6625182Y-15090888D01*
X6625182Y-15090888D02*
X6615658Y-15109936D01*
X6615658Y-15109936D02*
X6606134Y-15119460D01*
X6606134Y-15119460D02*
X6587086Y-15128984D01*
X6587086Y-15128984D02*
X6568039Y-15128984D01*
X6568039Y-15128984D02*
X6548991Y-15119460D01*
X6548991Y-15119460D02*
X6539467Y-15109936D01*
X6539467Y-15109936D02*
X6529943Y-15090888D01*
X6529943Y-15090888D02*
X6520420Y-15052793D01*
X6520420Y-15052793D02*
X6520420Y-15005174D01*
X6520420Y-15005174D02*
X6529943Y-14967079D01*
X6529943Y-14967079D02*
X6539467Y-14948031D01*
X6539467Y-14948031D02*
X6548991Y-14938508D01*
X6548991Y-14938508D02*
X6568039Y-14928984D01*
X6720420Y-15128984D02*
X6720420Y-14995650D01*
X6720420Y-15014698D02*
X6729943Y-15005174D01*
X6729943Y-15005174D02*
X6748991Y-14995650D01*
X6748991Y-14995650D02*
X6777563Y-14995650D01*
X6777563Y-14995650D02*
X6796610Y-15005174D01*
X6796610Y-15005174D02*
X6806134Y-15024222D01*
X6806134Y-15024222D02*
X6806134Y-15128984D01*
X6806134Y-15024222D02*
X6815658Y-15005174D01*
X6815658Y-15005174D02*
X6834705Y-14995650D01*
X6834705Y-14995650D02*
X6863277Y-14995650D01*
X6863277Y-14995650D02*
X6882324Y-15005174D01*
X6882324Y-15005174D02*
X6891848Y-15024222D01*
X6891848Y-15024222D02*
X6891848Y-15128984D01*
X6987086Y-15128984D02*
X6987086Y-14995650D01*
X6987086Y-15014698D02*
X6996610Y-15005174D01*
X6996610Y-15005174D02*
X7015658Y-14995650D01*
X7015658Y-14995650D02*
X7044229Y-14995650D01*
X7044229Y-14995650D02*
X7063277Y-15005174D01*
X7063277Y-15005174D02*
X7072801Y-15024222D01*
X7072801Y-15024222D02*
X7072801Y-15128984D01*
X7072801Y-15024222D02*
X7082324Y-15005174D01*
X7082324Y-15005174D02*
X7101372Y-14995650D01*
X7101372Y-14995650D02*
X7129943Y-14995650D01*
X7129943Y-14995650D02*
X7148991Y-15005174D01*
X7148991Y-15005174D02*
X7158515Y-15024222D01*
X7158515Y-15024222D02*
X7158515Y-15128984D01*
X7548991Y-14919460D02*
X7377563Y-15176603D01*
X7806134Y-14928984D02*
X7825182Y-14928984D01*
X7825182Y-14928984D02*
X7844229Y-14938508D01*
X7844229Y-14938508D02*
X7853753Y-14948031D01*
X7853753Y-14948031D02*
X7863277Y-14967079D01*
X7863277Y-14967079D02*
X7872801Y-15005174D01*
X7872801Y-15005174D02*
X7872801Y-15052793D01*
X7872801Y-15052793D02*
X7863277Y-15090888D01*
X7863277Y-15090888D02*
X7853753Y-15109936D01*
X7853753Y-15109936D02*
X7844229Y-15119460D01*
X7844229Y-15119460D02*
X7825182Y-15128984D01*
X7825182Y-15128984D02*
X7806134Y-15128984D01*
X7806134Y-15128984D02*
X7787086Y-15119460D01*
X7787086Y-15119460D02*
X7777563Y-15109936D01*
X7777563Y-15109936D02*
X7768039Y-15090888D01*
X7768039Y-15090888D02*
X7758515Y-15052793D01*
X7758515Y-15052793D02*
X7758515Y-15005174D01*
X7758515Y-15005174D02*
X7768039Y-14967079D01*
X7768039Y-14967079D02*
X7777563Y-14948031D01*
X7777563Y-14948031D02*
X7787086Y-14938508D01*
X7787086Y-14938508D02*
X7806134Y-14928984D01*
X7958515Y-15109936D02*
X7968039Y-15119460D01*
X7968039Y-15119460D02*
X7958515Y-15128984D01*
X7958515Y-15128984D02*
X7948991Y-15119460D01*
X7948991Y-15119460D02*
X7958515Y-15109936D01*
X7958515Y-15109936D02*
X7958515Y-15128984D01*
X8158515Y-15128984D02*
X8044229Y-15128984D01*
X8101372Y-15128984D02*
X8101372Y-14928984D01*
X8101372Y-14928984D02*
X8082325Y-14957555D01*
X8082325Y-14957555D02*
X8063277Y-14976603D01*
X8063277Y-14976603D02*
X8044229Y-14986127D01*
X8282325Y-14928984D02*
X8301372Y-14928984D01*
X8301372Y-14928984D02*
X8320420Y-14938508D01*
X8320420Y-14938508D02*
X8329944Y-14948031D01*
X8329944Y-14948031D02*
X8339467Y-14967079D01*
X8339467Y-14967079D02*
X8348991Y-15005174D01*
X8348991Y-15005174D02*
X8348991Y-15052793D01*
X8348991Y-15052793D02*
X8339467Y-15090888D01*
X8339467Y-15090888D02*
X8329944Y-15109936D01*
X8329944Y-15109936D02*
X8320420Y-15119460D01*
X8320420Y-15119460D02*
X8301372Y-15128984D01*
X8301372Y-15128984D02*
X8282325Y-15128984D01*
X8282325Y-15128984D02*
X8263277Y-15119460D01*
X8263277Y-15119460D02*
X8253753Y-15109936D01*
X8253753Y-15109936D02*
X8244229Y-15090888D01*
X8244229Y-15090888D02*
X8234706Y-15052793D01*
X8234706Y-15052793D02*
X8234706Y-15005174D01*
X8234706Y-15005174D02*
X8244229Y-14967079D01*
X8244229Y-14967079D02*
X8253753Y-14948031D01*
X8253753Y-14948031D02*
X8263277Y-14938508D01*
X8263277Y-14938508D02*
X8282325Y-14928984D01*
X8520420Y-14928984D02*
X8482325Y-14928984D01*
X8482325Y-14928984D02*
X8463277Y-14938508D01*
X8463277Y-14938508D02*
X8453753Y-14948031D01*
X8453753Y-14948031D02*
X8434706Y-14976603D01*
X8434706Y-14976603D02*
X8425182Y-15014698D01*
X8425182Y-15014698D02*
X8425182Y-15090888D01*
X8425182Y-15090888D02*
X8434706Y-15109936D01*
X8434706Y-15109936D02*
X8444229Y-15119460D01*
X8444229Y-15119460D02*
X8463277Y-15128984D01*
X8463277Y-15128984D02*
X8501372Y-15128984D01*
X8501372Y-15128984D02*
X8520420Y-15119460D01*
X8520420Y-15119460D02*
X8529944Y-15109936D01*
X8529944Y-15109936D02*
X8539468Y-15090888D01*
X8539468Y-15090888D02*
X8539468Y-15043269D01*
X8539468Y-15043269D02*
X8529944Y-15024222D01*
X8529944Y-15024222D02*
X8520420Y-15014698D01*
X8520420Y-15014698D02*
X8501372Y-15005174D01*
X8501372Y-15005174D02*
X8463277Y-15005174D01*
X8463277Y-15005174D02*
X8444229Y-15014698D01*
X8444229Y-15014698D02*
X8434706Y-15024222D01*
X8434706Y-15024222D02*
X8425182Y-15043269D01*
X8606134Y-14928984D02*
X8729944Y-14928984D01*
X8729944Y-14928984D02*
X8663277Y-15005174D01*
X8663277Y-15005174D02*
X8691849Y-15005174D01*
X8691849Y-15005174D02*
X8710896Y-15014698D01*
X8710896Y-15014698D02*
X8720420Y-15024222D01*
X8720420Y-15024222D02*
X8729944Y-15043269D01*
X8729944Y-15043269D02*
X8729944Y-15090888D01*
X8729944Y-15090888D02*
X8720420Y-15109936D01*
X8720420Y-15109936D02*
X8710896Y-15119460D01*
X8710896Y-15119460D02*
X8691849Y-15128984D01*
X8691849Y-15128984D02*
X8634706Y-15128984D01*
X8634706Y-15128984D02*
X8615658Y-15119460D01*
X8615658Y-15119460D02*
X8606134Y-15109936D01*
X8806134Y-14928984D02*
X8806134Y-14967079D01*
X8882325Y-14928984D02*
X8882325Y-14967079D01*
X9177563Y-15205174D02*
X9168039Y-15195650D01*
X9168039Y-15195650D02*
X9148991Y-15167079D01*
X9148991Y-15167079D02*
X9139468Y-15148031D01*
X9139468Y-15148031D02*
X9129944Y-15119460D01*
X9129944Y-15119460D02*
X9120420Y-15071841D01*
X9120420Y-15071841D02*
X9120420Y-15033746D01*
X9120420Y-15033746D02*
X9129944Y-14986127D01*
X9129944Y-14986127D02*
X9139468Y-14957555D01*
X9139468Y-14957555D02*
X9148991Y-14938508D01*
X9148991Y-14938508D02*
X9168039Y-14909936D01*
X9168039Y-14909936D02*
X9177563Y-14900412D01*
X9339468Y-14995650D02*
X9339468Y-15128984D01*
X9291849Y-14919460D02*
X9244230Y-15062317D01*
X9244230Y-15062317D02*
X9368039Y-15062317D01*
X9596611Y-15128984D02*
X9596611Y-14928984D01*
X9682325Y-15128984D02*
X9682325Y-15024222D01*
X9682325Y-15024222D02*
X9672801Y-15005174D01*
X9672801Y-15005174D02*
X9653753Y-14995650D01*
X9653753Y-14995650D02*
X9625182Y-14995650D01*
X9625182Y-14995650D02*
X9606134Y-15005174D01*
X9606134Y-15005174D02*
X9596611Y-15014698D01*
X9806134Y-15128984D02*
X9787087Y-15119460D01*
X9787087Y-15119460D02*
X9777563Y-15109936D01*
X9777563Y-15109936D02*
X9768039Y-15090888D01*
X9768039Y-15090888D02*
X9768039Y-15033746D01*
X9768039Y-15033746D02*
X9777563Y-15014698D01*
X9777563Y-15014698D02*
X9787087Y-15005174D01*
X9787087Y-15005174D02*
X9806134Y-14995650D01*
X9806134Y-14995650D02*
X9834706Y-14995650D01*
X9834706Y-14995650D02*
X9853753Y-15005174D01*
X9853753Y-15005174D02*
X9863277Y-15014698D01*
X9863277Y-15014698D02*
X9872801Y-15033746D01*
X9872801Y-15033746D02*
X9872801Y-15090888D01*
X9872801Y-15090888D02*
X9863277Y-15109936D01*
X9863277Y-15109936D02*
X9853753Y-15119460D01*
X9853753Y-15119460D02*
X9834706Y-15128984D01*
X9834706Y-15128984D02*
X9806134Y-15128984D01*
X9987087Y-15128984D02*
X9968039Y-15119460D01*
X9968039Y-15119460D02*
X9958515Y-15100412D01*
X9958515Y-15100412D02*
X9958515Y-14928984D01*
X10139468Y-15119460D02*
X10120420Y-15128984D01*
X10120420Y-15128984D02*
X10082325Y-15128984D01*
X10082325Y-15128984D02*
X10063277Y-15119460D01*
X10063277Y-15119460D02*
X10053753Y-15100412D01*
X10053753Y-15100412D02*
X10053753Y-15024222D01*
X10053753Y-15024222D02*
X10063277Y-15005174D01*
X10063277Y-15005174D02*
X10082325Y-14995650D01*
X10082325Y-14995650D02*
X10120420Y-14995650D01*
X10120420Y-14995650D02*
X10139468Y-15005174D01*
X10139468Y-15005174D02*
X10148992Y-15024222D01*
X10148992Y-15024222D02*
X10148992Y-15043269D01*
X10148992Y-15043269D02*
X10053753Y-15062317D01*
X10225182Y-15119460D02*
X10244230Y-15128984D01*
X10244230Y-15128984D02*
X10282325Y-15128984D01*
X10282325Y-15128984D02*
X10301373Y-15119460D01*
X10301373Y-15119460D02*
X10310896Y-15100412D01*
X10310896Y-15100412D02*
X10310896Y-15090888D01*
X10310896Y-15090888D02*
X10301373Y-15071841D01*
X10301373Y-15071841D02*
X10282325Y-15062317D01*
X10282325Y-15062317D02*
X10253753Y-15062317D01*
X10253753Y-15062317D02*
X10234706Y-15052793D01*
X10234706Y-15052793D02*
X10225182Y-15033746D01*
X10225182Y-15033746D02*
X10225182Y-15024222D01*
X10225182Y-15024222D02*
X10234706Y-15005174D01*
X10234706Y-15005174D02*
X10253753Y-14995650D01*
X10253753Y-14995650D02*
X10282325Y-14995650D01*
X10282325Y-14995650D02*
X10301373Y-15005174D01*
X10377563Y-15205174D02*
X10387087Y-15195650D01*
X10387087Y-15195650D02*
X10406134Y-15167079D01*
X10406134Y-15167079D02*
X10415658Y-15148031D01*
X10415658Y-15148031D02*
X10425182Y-15119460D01*
X10425182Y-15119460D02*
X10434706Y-15071841D01*
X10434706Y-15071841D02*
X10434706Y-15033746D01*
X10434706Y-15033746D02*
X10425182Y-14986127D01*
X10425182Y-14986127D02*
X10415658Y-14957555D01*
X10415658Y-14957555D02*
X10406134Y-14938508D01*
X10406134Y-14938508D02*
X10387087Y-14909936D01*
X10387087Y-14909936D02*
X10377563Y-14900412D01*
X10739468Y-15205174D02*
X10729944Y-15195650D01*
X10729944Y-15195650D02*
X10710896Y-15167079D01*
X10710896Y-15167079D02*
X10701373Y-15148031D01*
X10701373Y-15148031D02*
X10691849Y-15119460D01*
X10691849Y-15119460D02*
X10682325Y-15071841D01*
X10682325Y-15071841D02*
X10682325Y-15033746D01*
X10682325Y-15033746D02*
X10691849Y-14986127D01*
X10691849Y-14986127D02*
X10701373Y-14957555D01*
X10701373Y-14957555D02*
X10710896Y-14938508D01*
X10710896Y-14938508D02*
X10729944Y-14909936D01*
X10729944Y-14909936D02*
X10739468Y-14900412D01*
X10815658Y-14995650D02*
X10815658Y-15128984D01*
X10815658Y-15014698D02*
X10825182Y-15005174D01*
X10825182Y-15005174D02*
X10844230Y-14995650D01*
X10844230Y-14995650D02*
X10872801Y-14995650D01*
X10872801Y-14995650D02*
X10891849Y-15005174D01*
X10891849Y-15005174D02*
X10901373Y-15024222D01*
X10901373Y-15024222D02*
X10901373Y-15128984D01*
X11025182Y-15128984D02*
X11006134Y-15119460D01*
X11006134Y-15119460D02*
X10996611Y-15109936D01*
X10996611Y-15109936D02*
X10987087Y-15090888D01*
X10987087Y-15090888D02*
X10987087Y-15033746D01*
X10987087Y-15033746D02*
X10996611Y-15014698D01*
X10996611Y-15014698D02*
X11006134Y-15005174D01*
X11006134Y-15005174D02*
X11025182Y-14995650D01*
X11025182Y-14995650D02*
X11053754Y-14995650D01*
X11053754Y-14995650D02*
X11072801Y-15005174D01*
X11072801Y-15005174D02*
X11082325Y-15014698D01*
X11082325Y-15014698D02*
X11091849Y-15033746D01*
X11091849Y-15033746D02*
X11091849Y-15090888D01*
X11091849Y-15090888D02*
X11082325Y-15109936D01*
X11082325Y-15109936D02*
X11072801Y-15119460D01*
X11072801Y-15119460D02*
X11053754Y-15128984D01*
X11053754Y-15128984D02*
X11025182Y-15128984D01*
X11148992Y-14995650D02*
X11225182Y-14995650D01*
X11177563Y-14928984D02*
X11177563Y-15100412D01*
X11177563Y-15100412D02*
X11187087Y-15119460D01*
X11187087Y-15119460D02*
X11206134Y-15128984D01*
X11206134Y-15128984D02*
X11225182Y-15128984D01*
X11444230Y-14995650D02*
X11444230Y-15195650D01*
X11444230Y-15005174D02*
X11463277Y-14995650D01*
X11463277Y-14995650D02*
X11501373Y-14995650D01*
X11501373Y-14995650D02*
X11520420Y-15005174D01*
X11520420Y-15005174D02*
X11529944Y-15014698D01*
X11529944Y-15014698D02*
X11539468Y-15033746D01*
X11539468Y-15033746D02*
X11539468Y-15090888D01*
X11539468Y-15090888D02*
X11529944Y-15109936D01*
X11529944Y-15109936D02*
X11520420Y-15119460D01*
X11520420Y-15119460D02*
X11501373Y-15128984D01*
X11501373Y-15128984D02*
X11463277Y-15128984D01*
X11463277Y-15128984D02*
X11444230Y-15119460D01*
X11653753Y-15128984D02*
X11634706Y-15119460D01*
X11634706Y-15119460D02*
X11625182Y-15100412D01*
X11625182Y-15100412D02*
X11625182Y-14928984D01*
X11815658Y-15128984D02*
X11815658Y-15024222D01*
X11815658Y-15024222D02*
X11806134Y-15005174D01*
X11806134Y-15005174D02*
X11787087Y-14995650D01*
X11787087Y-14995650D02*
X11748992Y-14995650D01*
X11748992Y-14995650D02*
X11729944Y-15005174D01*
X11815658Y-15119460D02*
X11796611Y-15128984D01*
X11796611Y-15128984D02*
X11748992Y-15128984D01*
X11748992Y-15128984D02*
X11729944Y-15119460D01*
X11729944Y-15119460D02*
X11720420Y-15100412D01*
X11720420Y-15100412D02*
X11720420Y-15081365D01*
X11720420Y-15081365D02*
X11729944Y-15062317D01*
X11729944Y-15062317D02*
X11748992Y-15052793D01*
X11748992Y-15052793D02*
X11796611Y-15052793D01*
X11796611Y-15052793D02*
X11815658Y-15043269D01*
X11882325Y-14995650D02*
X11958515Y-14995650D01*
X11910896Y-14928984D02*
X11910896Y-15100412D01*
X11910896Y-15100412D02*
X11920420Y-15119460D01*
X11920420Y-15119460D02*
X11939468Y-15128984D01*
X11939468Y-15128984D02*
X11958515Y-15128984D01*
X12101373Y-15119460D02*
X12082325Y-15128984D01*
X12082325Y-15128984D02*
X12044230Y-15128984D01*
X12044230Y-15128984D02*
X12025182Y-15119460D01*
X12025182Y-15119460D02*
X12015658Y-15100412D01*
X12015658Y-15100412D02*
X12015658Y-15024222D01*
X12015658Y-15024222D02*
X12025182Y-15005174D01*
X12025182Y-15005174D02*
X12044230Y-14995650D01*
X12044230Y-14995650D02*
X12082325Y-14995650D01*
X12082325Y-14995650D02*
X12101373Y-15005174D01*
X12101373Y-15005174D02*
X12110896Y-15024222D01*
X12110896Y-15024222D02*
X12110896Y-15043269D01*
X12110896Y-15043269D02*
X12015658Y-15062317D01*
X12282325Y-15128984D02*
X12282325Y-14928984D01*
X12282325Y-15119460D02*
X12263277Y-15128984D01*
X12263277Y-15128984D02*
X12225182Y-15128984D01*
X12225182Y-15128984D02*
X12206134Y-15119460D01*
X12206134Y-15119460D02*
X12196611Y-15109936D01*
X12196611Y-15109936D02*
X12187087Y-15090888D01*
X12187087Y-15090888D02*
X12187087Y-15033746D01*
X12187087Y-15033746D02*
X12196611Y-15014698D01*
X12196611Y-15014698D02*
X12206134Y-15005174D01*
X12206134Y-15005174D02*
X12225182Y-14995650D01*
X12225182Y-14995650D02*
X12263277Y-14995650D01*
X12263277Y-14995650D02*
X12282325Y-15005174D01*
X12358515Y-15205174D02*
X12368039Y-15195650D01*
X12368039Y-15195650D02*
X12387087Y-15167079D01*
X12387087Y-15167079D02*
X12396611Y-15148031D01*
X12396611Y-15148031D02*
X12406134Y-15119460D01*
X12406134Y-15119460D02*
X12415658Y-15071841D01*
X12415658Y-15071841D02*
X12415658Y-15033746D01*
X12415658Y-15033746D02*
X12406134Y-14986127D01*
X12406134Y-14986127D02*
X12396611Y-14957555D01*
X12396611Y-14957555D02*
X12387087Y-14938508D01*
X12387087Y-14938508D02*
X12368039Y-14909936D01*
X12368039Y-14909936D02*
X12358515Y-14900412D01*
X5602500Y-15357500D02*
G75*
G02*
X5402500Y-15357500I-100000J0D01*
G01*
X5402500Y-15357500D02*
G75*
G02*
X5602500Y-15357500I100000J0D01*
G01*
X5844229Y-15248984D02*
X5968039Y-15248984D01*
X5968039Y-15248984D02*
X5901372Y-15325174D01*
X5901372Y-15325174D02*
X5929943Y-15325174D01*
X5929943Y-15325174D02*
X5948991Y-15334698D01*
X5948991Y-15334698D02*
X5958515Y-15344222D01*
X5958515Y-15344222D02*
X5968039Y-15363269D01*
X5968039Y-15363269D02*
X5968039Y-15410888D01*
X5968039Y-15410888D02*
X5958515Y-15429936D01*
X5958515Y-15429936D02*
X5948991Y-15439460D01*
X5948991Y-15439460D02*
X5929943Y-15448984D01*
X5929943Y-15448984D02*
X5872801Y-15448984D01*
X5872801Y-15448984D02*
X5853753Y-15439460D01*
X5853753Y-15439460D02*
X5844229Y-15429936D01*
X6053753Y-15429936D02*
X6063277Y-15439460D01*
X6063277Y-15439460D02*
X6053753Y-15448984D01*
X6053753Y-15448984D02*
X6044229Y-15439460D01*
X6044229Y-15439460D02*
X6053753Y-15429936D01*
X6053753Y-15429936D02*
X6053753Y-15448984D01*
X6244229Y-15248984D02*
X6148991Y-15248984D01*
X6148991Y-15248984D02*
X6139467Y-15344222D01*
X6139467Y-15344222D02*
X6148991Y-15334698D01*
X6148991Y-15334698D02*
X6168039Y-15325174D01*
X6168039Y-15325174D02*
X6215658Y-15325174D01*
X6215658Y-15325174D02*
X6234705Y-15334698D01*
X6234705Y-15334698D02*
X6244229Y-15344222D01*
X6244229Y-15344222D02*
X6253753Y-15363269D01*
X6253753Y-15363269D02*
X6253753Y-15410888D01*
X6253753Y-15410888D02*
X6244229Y-15429936D01*
X6244229Y-15429936D02*
X6234705Y-15439460D01*
X6234705Y-15439460D02*
X6215658Y-15448984D01*
X6215658Y-15448984D02*
X6168039Y-15448984D01*
X6168039Y-15448984D02*
X6148991Y-15439460D01*
X6148991Y-15439460D02*
X6139467Y-15429936D01*
X6377562Y-15248984D02*
X6396610Y-15248984D01*
X6396610Y-15248984D02*
X6415658Y-15258508D01*
X6415658Y-15258508D02*
X6425182Y-15268031D01*
X6425182Y-15268031D02*
X6434705Y-15287079D01*
X6434705Y-15287079D02*
X6444229Y-15325174D01*
X6444229Y-15325174D02*
X6444229Y-15372793D01*
X6444229Y-15372793D02*
X6434705Y-15410888D01*
X6434705Y-15410888D02*
X6425182Y-15429936D01*
X6425182Y-15429936D02*
X6415658Y-15439460D01*
X6415658Y-15439460D02*
X6396610Y-15448984D01*
X6396610Y-15448984D02*
X6377562Y-15448984D01*
X6377562Y-15448984D02*
X6358515Y-15439460D01*
X6358515Y-15439460D02*
X6348991Y-15429936D01*
X6348991Y-15429936D02*
X6339467Y-15410888D01*
X6339467Y-15410888D02*
X6329943Y-15372793D01*
X6329943Y-15372793D02*
X6329943Y-15325174D01*
X6329943Y-15325174D02*
X6339467Y-15287079D01*
X6339467Y-15287079D02*
X6348991Y-15268031D01*
X6348991Y-15268031D02*
X6358515Y-15258508D01*
X6358515Y-15258508D02*
X6377562Y-15248984D01*
X6568039Y-15248984D02*
X6587086Y-15248984D01*
X6587086Y-15248984D02*
X6606134Y-15258508D01*
X6606134Y-15258508D02*
X6615658Y-15268031D01*
X6615658Y-15268031D02*
X6625182Y-15287079D01*
X6625182Y-15287079D02*
X6634705Y-15325174D01*
X6634705Y-15325174D02*
X6634705Y-15372793D01*
X6634705Y-15372793D02*
X6625182Y-15410888D01*
X6625182Y-15410888D02*
X6615658Y-15429936D01*
X6615658Y-15429936D02*
X6606134Y-15439460D01*
X6606134Y-15439460D02*
X6587086Y-15448984D01*
X6587086Y-15448984D02*
X6568039Y-15448984D01*
X6568039Y-15448984D02*
X6548991Y-15439460D01*
X6548991Y-15439460D02*
X6539467Y-15429936D01*
X6539467Y-15429936D02*
X6529943Y-15410888D01*
X6529943Y-15410888D02*
X6520420Y-15372793D01*
X6520420Y-15372793D02*
X6520420Y-15325174D01*
X6520420Y-15325174D02*
X6529943Y-15287079D01*
X6529943Y-15287079D02*
X6539467Y-15268031D01*
X6539467Y-15268031D02*
X6548991Y-15258508D01*
X6548991Y-15258508D02*
X6568039Y-15248984D01*
X6720420Y-15448984D02*
X6720420Y-15315650D01*
X6720420Y-15334698D02*
X6729943Y-15325174D01*
X6729943Y-15325174D02*
X6748991Y-15315650D01*
X6748991Y-15315650D02*
X6777563Y-15315650D01*
X6777563Y-15315650D02*
X6796610Y-15325174D01*
X6796610Y-15325174D02*
X6806134Y-15344222D01*
X6806134Y-15344222D02*
X6806134Y-15448984D01*
X6806134Y-15344222D02*
X6815658Y-15325174D01*
X6815658Y-15325174D02*
X6834705Y-15315650D01*
X6834705Y-15315650D02*
X6863277Y-15315650D01*
X6863277Y-15315650D02*
X6882324Y-15325174D01*
X6882324Y-15325174D02*
X6891848Y-15344222D01*
X6891848Y-15344222D02*
X6891848Y-15448984D01*
X6987086Y-15448984D02*
X6987086Y-15315650D01*
X6987086Y-15334698D02*
X6996610Y-15325174D01*
X6996610Y-15325174D02*
X7015658Y-15315650D01*
X7015658Y-15315650D02*
X7044229Y-15315650D01*
X7044229Y-15315650D02*
X7063277Y-15325174D01*
X7063277Y-15325174D02*
X7072801Y-15344222D01*
X7072801Y-15344222D02*
X7072801Y-15448984D01*
X7072801Y-15344222D02*
X7082324Y-15325174D01*
X7082324Y-15325174D02*
X7101372Y-15315650D01*
X7101372Y-15315650D02*
X7129943Y-15315650D01*
X7129943Y-15315650D02*
X7148991Y-15325174D01*
X7148991Y-15325174D02*
X7158515Y-15344222D01*
X7158515Y-15344222D02*
X7158515Y-15448984D01*
X7548991Y-15239460D02*
X7377563Y-15496603D01*
X7806134Y-15248984D02*
X7825182Y-15248984D01*
X7825182Y-15248984D02*
X7844229Y-15258508D01*
X7844229Y-15258508D02*
X7853753Y-15268031D01*
X7853753Y-15268031D02*
X7863277Y-15287079D01*
X7863277Y-15287079D02*
X7872801Y-15325174D01*
X7872801Y-15325174D02*
X7872801Y-15372793D01*
X7872801Y-15372793D02*
X7863277Y-15410888D01*
X7863277Y-15410888D02*
X7853753Y-15429936D01*
X7853753Y-15429936D02*
X7844229Y-15439460D01*
X7844229Y-15439460D02*
X7825182Y-15448984D01*
X7825182Y-15448984D02*
X7806134Y-15448984D01*
X7806134Y-15448984D02*
X7787086Y-15439460D01*
X7787086Y-15439460D02*
X7777563Y-15429936D01*
X7777563Y-15429936D02*
X7768039Y-15410888D01*
X7768039Y-15410888D02*
X7758515Y-15372793D01*
X7758515Y-15372793D02*
X7758515Y-15325174D01*
X7758515Y-15325174D02*
X7768039Y-15287079D01*
X7768039Y-15287079D02*
X7777563Y-15268031D01*
X7777563Y-15268031D02*
X7787086Y-15258508D01*
X7787086Y-15258508D02*
X7806134Y-15248984D01*
X7958515Y-15429936D02*
X7968039Y-15439460D01*
X7968039Y-15439460D02*
X7958515Y-15448984D01*
X7958515Y-15448984D02*
X7948991Y-15439460D01*
X7948991Y-15439460D02*
X7958515Y-15429936D01*
X7958515Y-15429936D02*
X7958515Y-15448984D01*
X8158515Y-15448984D02*
X8044229Y-15448984D01*
X8101372Y-15448984D02*
X8101372Y-15248984D01*
X8101372Y-15248984D02*
X8082325Y-15277555D01*
X8082325Y-15277555D02*
X8063277Y-15296603D01*
X8063277Y-15296603D02*
X8044229Y-15306127D01*
X8225182Y-15248984D02*
X8348991Y-15248984D01*
X8348991Y-15248984D02*
X8282325Y-15325174D01*
X8282325Y-15325174D02*
X8310896Y-15325174D01*
X8310896Y-15325174D02*
X8329944Y-15334698D01*
X8329944Y-15334698D02*
X8339467Y-15344222D01*
X8339467Y-15344222D02*
X8348991Y-15363269D01*
X8348991Y-15363269D02*
X8348991Y-15410888D01*
X8348991Y-15410888D02*
X8339467Y-15429936D01*
X8339467Y-15429936D02*
X8329944Y-15439460D01*
X8329944Y-15439460D02*
X8310896Y-15448984D01*
X8310896Y-15448984D02*
X8253753Y-15448984D01*
X8253753Y-15448984D02*
X8234706Y-15439460D01*
X8234706Y-15439460D02*
X8225182Y-15429936D01*
X8415658Y-15248984D02*
X8548991Y-15248984D01*
X8548991Y-15248984D02*
X8463277Y-15448984D01*
X8653753Y-15334698D02*
X8634706Y-15325174D01*
X8634706Y-15325174D02*
X8625182Y-15315650D01*
X8625182Y-15315650D02*
X8615658Y-15296603D01*
X8615658Y-15296603D02*
X8615658Y-15287079D01*
X8615658Y-15287079D02*
X8625182Y-15268031D01*
X8625182Y-15268031D02*
X8634706Y-15258508D01*
X8634706Y-15258508D02*
X8653753Y-15248984D01*
X8653753Y-15248984D02*
X8691849Y-15248984D01*
X8691849Y-15248984D02*
X8710896Y-15258508D01*
X8710896Y-15258508D02*
X8720420Y-15268031D01*
X8720420Y-15268031D02*
X8729944Y-15287079D01*
X8729944Y-15287079D02*
X8729944Y-15296603D01*
X8729944Y-15296603D02*
X8720420Y-15315650D01*
X8720420Y-15315650D02*
X8710896Y-15325174D01*
X8710896Y-15325174D02*
X8691849Y-15334698D01*
X8691849Y-15334698D02*
X8653753Y-15334698D01*
X8653753Y-15334698D02*
X8634706Y-15344222D01*
X8634706Y-15344222D02*
X8625182Y-15353746D01*
X8625182Y-15353746D02*
X8615658Y-15372793D01*
X8615658Y-15372793D02*
X8615658Y-15410888D01*
X8615658Y-15410888D02*
X8625182Y-15429936D01*
X8625182Y-15429936D02*
X8634706Y-15439460D01*
X8634706Y-15439460D02*
X8653753Y-15448984D01*
X8653753Y-15448984D02*
X8691849Y-15448984D01*
X8691849Y-15448984D02*
X8710896Y-15439460D01*
X8710896Y-15439460D02*
X8720420Y-15429936D01*
X8720420Y-15429936D02*
X8729944Y-15410888D01*
X8729944Y-15410888D02*
X8729944Y-15372793D01*
X8729944Y-15372793D02*
X8720420Y-15353746D01*
X8720420Y-15353746D02*
X8710896Y-15344222D01*
X8710896Y-15344222D02*
X8691849Y-15334698D01*
X8806134Y-15248984D02*
X8806134Y-15287079D01*
X8882325Y-15248984D02*
X8882325Y-15287079D01*
X9177563Y-15525174D02*
X9168039Y-15515650D01*
X9168039Y-15515650D02*
X9148991Y-15487079D01*
X9148991Y-15487079D02*
X9139468Y-15468031D01*
X9139468Y-15468031D02*
X9129944Y-15439460D01*
X9129944Y-15439460D02*
X9120420Y-15391841D01*
X9120420Y-15391841D02*
X9120420Y-15353746D01*
X9120420Y-15353746D02*
X9129944Y-15306127D01*
X9129944Y-15306127D02*
X9139468Y-15277555D01*
X9139468Y-15277555D02*
X9148991Y-15258508D01*
X9148991Y-15258508D02*
X9168039Y-15229936D01*
X9168039Y-15229936D02*
X9177563Y-15220412D01*
X9244230Y-15268031D02*
X9253753Y-15258508D01*
X9253753Y-15258508D02*
X9272801Y-15248984D01*
X9272801Y-15248984D02*
X9320420Y-15248984D01*
X9320420Y-15248984D02*
X9339468Y-15258508D01*
X9339468Y-15258508D02*
X9348991Y-15268031D01*
X9348991Y-15268031D02*
X9358515Y-15287079D01*
X9358515Y-15287079D02*
X9358515Y-15306127D01*
X9358515Y-15306127D02*
X9348991Y-15334698D01*
X9348991Y-15334698D02*
X9234706Y-15448984D01*
X9234706Y-15448984D02*
X9358515Y-15448984D01*
X9596611Y-15448984D02*
X9596611Y-15248984D01*
X9682325Y-15448984D02*
X9682325Y-15344222D01*
X9682325Y-15344222D02*
X9672801Y-15325174D01*
X9672801Y-15325174D02*
X9653753Y-15315650D01*
X9653753Y-15315650D02*
X9625182Y-15315650D01*
X9625182Y-15315650D02*
X9606134Y-15325174D01*
X9606134Y-15325174D02*
X9596611Y-15334698D01*
X9806134Y-15448984D02*
X9787087Y-15439460D01*
X9787087Y-15439460D02*
X9777563Y-15429936D01*
X9777563Y-15429936D02*
X9768039Y-15410888D01*
X9768039Y-15410888D02*
X9768039Y-15353746D01*
X9768039Y-15353746D02*
X9777563Y-15334698D01*
X9777563Y-15334698D02*
X9787087Y-15325174D01*
X9787087Y-15325174D02*
X9806134Y-15315650D01*
X9806134Y-15315650D02*
X9834706Y-15315650D01*
X9834706Y-15315650D02*
X9853753Y-15325174D01*
X9853753Y-15325174D02*
X9863277Y-15334698D01*
X9863277Y-15334698D02*
X9872801Y-15353746D01*
X9872801Y-15353746D02*
X9872801Y-15410888D01*
X9872801Y-15410888D02*
X9863277Y-15429936D01*
X9863277Y-15429936D02*
X9853753Y-15439460D01*
X9853753Y-15439460D02*
X9834706Y-15448984D01*
X9834706Y-15448984D02*
X9806134Y-15448984D01*
X9987087Y-15448984D02*
X9968039Y-15439460D01*
X9968039Y-15439460D02*
X9958515Y-15420412D01*
X9958515Y-15420412D02*
X9958515Y-15248984D01*
X10139468Y-15439460D02*
X10120420Y-15448984D01*
X10120420Y-15448984D02*
X10082325Y-15448984D01*
X10082325Y-15448984D02*
X10063277Y-15439460D01*
X10063277Y-15439460D02*
X10053753Y-15420412D01*
X10053753Y-15420412D02*
X10053753Y-15344222D01*
X10053753Y-15344222D02*
X10063277Y-15325174D01*
X10063277Y-15325174D02*
X10082325Y-15315650D01*
X10082325Y-15315650D02*
X10120420Y-15315650D01*
X10120420Y-15315650D02*
X10139468Y-15325174D01*
X10139468Y-15325174D02*
X10148992Y-15344222D01*
X10148992Y-15344222D02*
X10148992Y-15363269D01*
X10148992Y-15363269D02*
X10053753Y-15382317D01*
X10225182Y-15439460D02*
X10244230Y-15448984D01*
X10244230Y-15448984D02*
X10282325Y-15448984D01*
X10282325Y-15448984D02*
X10301373Y-15439460D01*
X10301373Y-15439460D02*
X10310896Y-15420412D01*
X10310896Y-15420412D02*
X10310896Y-15410888D01*
X10310896Y-15410888D02*
X10301373Y-15391841D01*
X10301373Y-15391841D02*
X10282325Y-15382317D01*
X10282325Y-15382317D02*
X10253753Y-15382317D01*
X10253753Y-15382317D02*
X10234706Y-15372793D01*
X10234706Y-15372793D02*
X10225182Y-15353746D01*
X10225182Y-15353746D02*
X10225182Y-15344222D01*
X10225182Y-15344222D02*
X10234706Y-15325174D01*
X10234706Y-15325174D02*
X10253753Y-15315650D01*
X10253753Y-15315650D02*
X10282325Y-15315650D01*
X10282325Y-15315650D02*
X10301373Y-15325174D01*
X10377563Y-15525174D02*
X10387087Y-15515650D01*
X10387087Y-15515650D02*
X10406134Y-15487079D01*
X10406134Y-15487079D02*
X10415658Y-15468031D01*
X10415658Y-15468031D02*
X10425182Y-15439460D01*
X10425182Y-15439460D02*
X10434706Y-15391841D01*
X10434706Y-15391841D02*
X10434706Y-15353746D01*
X10434706Y-15353746D02*
X10425182Y-15306127D01*
X10425182Y-15306127D02*
X10415658Y-15277555D01*
X10415658Y-15277555D02*
X10406134Y-15258508D01*
X10406134Y-15258508D02*
X10387087Y-15229936D01*
X10387087Y-15229936D02*
X10377563Y-15220412D01*
X10739468Y-15525174D02*
X10729944Y-15515650D01*
X10729944Y-15515650D02*
X10710896Y-15487079D01*
X10710896Y-15487079D02*
X10701373Y-15468031D01*
X10701373Y-15468031D02*
X10691849Y-15439460D01*
X10691849Y-15439460D02*
X10682325Y-15391841D01*
X10682325Y-15391841D02*
X10682325Y-15353746D01*
X10682325Y-15353746D02*
X10691849Y-15306127D01*
X10691849Y-15306127D02*
X10701373Y-15277555D01*
X10701373Y-15277555D02*
X10710896Y-15258508D01*
X10710896Y-15258508D02*
X10729944Y-15229936D01*
X10729944Y-15229936D02*
X10739468Y-15220412D01*
X10815658Y-15315650D02*
X10815658Y-15448984D01*
X10815658Y-15334698D02*
X10825182Y-15325174D01*
X10825182Y-15325174D02*
X10844230Y-15315650D01*
X10844230Y-15315650D02*
X10872801Y-15315650D01*
X10872801Y-15315650D02*
X10891849Y-15325174D01*
X10891849Y-15325174D02*
X10901373Y-15344222D01*
X10901373Y-15344222D02*
X10901373Y-15448984D01*
X11025182Y-15448984D02*
X11006134Y-15439460D01*
X11006134Y-15439460D02*
X10996611Y-15429936D01*
X10996611Y-15429936D02*
X10987087Y-15410888D01*
X10987087Y-15410888D02*
X10987087Y-15353746D01*
X10987087Y-15353746D02*
X10996611Y-15334698D01*
X10996611Y-15334698D02*
X11006134Y-15325174D01*
X11006134Y-15325174D02*
X11025182Y-15315650D01*
X11025182Y-15315650D02*
X11053754Y-15315650D01*
X11053754Y-15315650D02*
X11072801Y-15325174D01*
X11072801Y-15325174D02*
X11082325Y-15334698D01*
X11082325Y-15334698D02*
X11091849Y-15353746D01*
X11091849Y-15353746D02*
X11091849Y-15410888D01*
X11091849Y-15410888D02*
X11082325Y-15429936D01*
X11082325Y-15429936D02*
X11072801Y-15439460D01*
X11072801Y-15439460D02*
X11053754Y-15448984D01*
X11053754Y-15448984D02*
X11025182Y-15448984D01*
X11148992Y-15315650D02*
X11225182Y-15315650D01*
X11177563Y-15248984D02*
X11177563Y-15420412D01*
X11177563Y-15420412D02*
X11187087Y-15439460D01*
X11187087Y-15439460D02*
X11206134Y-15448984D01*
X11206134Y-15448984D02*
X11225182Y-15448984D01*
X11444230Y-15315650D02*
X11444230Y-15515650D01*
X11444230Y-15325174D02*
X11463277Y-15315650D01*
X11463277Y-15315650D02*
X11501373Y-15315650D01*
X11501373Y-15315650D02*
X11520420Y-15325174D01*
X11520420Y-15325174D02*
X11529944Y-15334698D01*
X11529944Y-15334698D02*
X11539468Y-15353746D01*
X11539468Y-15353746D02*
X11539468Y-15410888D01*
X11539468Y-15410888D02*
X11529944Y-15429936D01*
X11529944Y-15429936D02*
X11520420Y-15439460D01*
X11520420Y-15439460D02*
X11501373Y-15448984D01*
X11501373Y-15448984D02*
X11463277Y-15448984D01*
X11463277Y-15448984D02*
X11444230Y-15439460D01*
X11653753Y-15448984D02*
X11634706Y-15439460D01*
X11634706Y-15439460D02*
X11625182Y-15420412D01*
X11625182Y-15420412D02*
X11625182Y-15248984D01*
X11815658Y-15448984D02*
X11815658Y-15344222D01*
X11815658Y-15344222D02*
X11806134Y-15325174D01*
X11806134Y-15325174D02*
X11787087Y-15315650D01*
X11787087Y-15315650D02*
X11748992Y-15315650D01*
X11748992Y-15315650D02*
X11729944Y-15325174D01*
X11815658Y-15439460D02*
X11796611Y-15448984D01*
X11796611Y-15448984D02*
X11748992Y-15448984D01*
X11748992Y-15448984D02*
X11729944Y-15439460D01*
X11729944Y-15439460D02*
X11720420Y-15420412D01*
X11720420Y-15420412D02*
X11720420Y-15401365D01*
X11720420Y-15401365D02*
X11729944Y-15382317D01*
X11729944Y-15382317D02*
X11748992Y-15372793D01*
X11748992Y-15372793D02*
X11796611Y-15372793D01*
X11796611Y-15372793D02*
X11815658Y-15363269D01*
X11882325Y-15315650D02*
X11958515Y-15315650D01*
X11910896Y-15248984D02*
X11910896Y-15420412D01*
X11910896Y-15420412D02*
X11920420Y-15439460D01*
X11920420Y-15439460D02*
X11939468Y-15448984D01*
X11939468Y-15448984D02*
X11958515Y-15448984D01*
X12101373Y-15439460D02*
X12082325Y-15448984D01*
X12082325Y-15448984D02*
X12044230Y-15448984D01*
X12044230Y-15448984D02*
X12025182Y-15439460D01*
X12025182Y-15439460D02*
X12015658Y-15420412D01*
X12015658Y-15420412D02*
X12015658Y-15344222D01*
X12015658Y-15344222D02*
X12025182Y-15325174D01*
X12025182Y-15325174D02*
X12044230Y-15315650D01*
X12044230Y-15315650D02*
X12082325Y-15315650D01*
X12082325Y-15315650D02*
X12101373Y-15325174D01*
X12101373Y-15325174D02*
X12110896Y-15344222D01*
X12110896Y-15344222D02*
X12110896Y-15363269D01*
X12110896Y-15363269D02*
X12015658Y-15382317D01*
X12282325Y-15448984D02*
X12282325Y-15248984D01*
X12282325Y-15439460D02*
X12263277Y-15448984D01*
X12263277Y-15448984D02*
X12225182Y-15448984D01*
X12225182Y-15448984D02*
X12206134Y-15439460D01*
X12206134Y-15439460D02*
X12196611Y-15429936D01*
X12196611Y-15429936D02*
X12187087Y-15410888D01*
X12187087Y-15410888D02*
X12187087Y-15353746D01*
X12187087Y-15353746D02*
X12196611Y-15334698D01*
X12196611Y-15334698D02*
X12206134Y-15325174D01*
X12206134Y-15325174D02*
X12225182Y-15315650D01*
X12225182Y-15315650D02*
X12263277Y-15315650D01*
X12263277Y-15315650D02*
X12282325Y-15325174D01*
X12358515Y-15525174D02*
X12368039Y-15515650D01*
X12368039Y-15515650D02*
X12387087Y-15487079D01*
X12387087Y-15487079D02*
X12396611Y-15468031D01*
X12396611Y-15468031D02*
X12406134Y-15439460D01*
X12406134Y-15439460D02*
X12415658Y-15391841D01*
X12415658Y-15391841D02*
X12415658Y-15353746D01*
X12415658Y-15353746D02*
X12406134Y-15306127D01*
X12406134Y-15306127D02*
X12396611Y-15277555D01*
X12396611Y-15277555D02*
X12387087Y-15258508D01*
X12387087Y-15258508D02*
X12368039Y-15229936D01*
X12368039Y-15229936D02*
X12358515Y-15220412D01*
M02*
