%TF.GenerationSoftware,KiCad,Pcbnew,8.0.8*%
%TF.CreationDate,2025-01-21T13:57:37+00:00*%
%TF.ProjectId,X6800 PicoPSU v2.kicad_pcb_24pinATX,58363830-3020-4506-9963-6f5053552076,rev?*%
%TF.SameCoordinates,Original*%
%TF.FileFunction,Drillmap*%
%TF.FilePolarity,Positive*%
%FSLAX45Y45*%
G04 Gerber Fmt 4.5, Leading zero omitted, Abs format (unit mm)*
G04 Created by KiCad (PCBNEW 8.0.8) date 2025-01-21 13:57:37*
%MOMM*%
%LPD*%
G01*
G04 APERTURE LIST*
%ADD10C,0.150000*%
%ADD11C,0.200000*%
%ADD12C,0.100000*%
%ADD13C,0.102000*%
%ADD14C,0.130000*%
%ADD15C,0.140000*%
%ADD16C,0.350000*%
G04 APERTURE END LIST*
D10*
X12000000Y-11790000D02*
X12000000Y-14390000D01*
X5610000Y-11790000D02*
X12000000Y-11790000D01*
X18100000Y-9900000D02*
X23000000Y-9900000D01*
X23590000Y-10100000D02*
X23590000Y-14000000D01*
X21000000Y-14000000D02*
X23590000Y-14000000D01*
X23000000Y-9900000D02*
X23000000Y-10100000D01*
X23000000Y-10100000D02*
X23590000Y-10100000D01*
X17900000Y-14300000D02*
X21000000Y-14300000D01*
X17900000Y-14300000D02*
X17900000Y-14390000D01*
X21000000Y-14000000D02*
X21000000Y-14300000D01*
X5610000Y-5010000D02*
X18100000Y-5010000D01*
X18100000Y-5010000D02*
X18100000Y-9900000D01*
X12000000Y-14390000D02*
X17900000Y-14390000D01*
X5610000Y-5010000D02*
X5610000Y-11790000D01*
D11*
D12*
X6130000Y-6492500D02*
X6180000Y-6542500D01*
X6180000Y-6492500D02*
X6130000Y-6542500D01*
X6206884Y-6306884D02*
X6256884Y-6356884D01*
X6256884Y-6306884D02*
X6206884Y-6356884D01*
X6206884Y-6678115D02*
X6256884Y-6728115D01*
X6256884Y-6678115D02*
X6206884Y-6728115D01*
X6392500Y-6230000D02*
X6442500Y-6280000D01*
X6442500Y-6230000D02*
X6392500Y-6280000D01*
X6392500Y-6755000D02*
X6442500Y-6805000D01*
X6442500Y-6755000D02*
X6392500Y-6805000D01*
X6578115Y-6306884D02*
X6628115Y-6356884D01*
X6628115Y-6306884D02*
X6578115Y-6356884D01*
X6578115Y-6678115D02*
X6628115Y-6728115D01*
X6628115Y-6678115D02*
X6578115Y-6728115D01*
X6655000Y-6492500D02*
X6705000Y-6542500D01*
X6705000Y-6492500D02*
X6655000Y-6542500D01*
X13115000Y-6492500D02*
X13165000Y-6542500D01*
X13165000Y-6492500D02*
X13115000Y-6542500D01*
X13191884Y-6306884D02*
X13241884Y-6356884D01*
X13241884Y-6306884D02*
X13191884Y-6356884D01*
X13191884Y-6678115D02*
X13241884Y-6728115D01*
X13241884Y-6678115D02*
X13191884Y-6728115D01*
X13377500Y-6230000D02*
X13427500Y-6280000D01*
X13427500Y-6230000D02*
X13377500Y-6280000D01*
X13377500Y-6755000D02*
X13427500Y-6805000D01*
X13427500Y-6755000D02*
X13377500Y-6805000D01*
X13563115Y-6306884D02*
X13613115Y-6356884D01*
X13613115Y-6306884D02*
X13563115Y-6356884D01*
X13563115Y-6678115D02*
X13613115Y-6728115D01*
X13613115Y-6678115D02*
X13563115Y-6728115D01*
X13640000Y-6492500D02*
X13690000Y-6542500D01*
X13690000Y-6492500D02*
X13640000Y-6542500D01*
X19462356Y-11427056D02*
G75*
G02*
X19382356Y-11427056I-40000J0D01*
G01*
X19382356Y-11427056D02*
G75*
G02*
X19462356Y-11427056I40000J0D01*
G01*
X19462356Y-12189056D02*
G75*
G02*
X19382356Y-12189056I-40000J0D01*
G01*
X19382356Y-12189056D02*
G75*
G02*
X19462356Y-12189056I40000J0D01*
G01*
X20130000Y-11428000D02*
G75*
G02*
X20050000Y-11428000I-40000J0D01*
G01*
X20050000Y-11428000D02*
G75*
G02*
X20130000Y-11428000I40000J0D01*
G01*
X20130000Y-11682000D02*
G75*
G02*
X20050000Y-11682000I-40000J0D01*
G01*
X20050000Y-11682000D02*
G75*
G02*
X20130000Y-11682000I40000J0D01*
G01*
X20130000Y-11936000D02*
G75*
G02*
X20050000Y-11936000I-40000J0D01*
G01*
X20050000Y-11936000D02*
G75*
G02*
X20130000Y-11936000I40000J0D01*
G01*
X20130000Y-12190000D02*
G75*
G02*
X20050000Y-12190000I-40000J0D01*
G01*
X20050000Y-12190000D02*
G75*
G02*
X20130000Y-12190000I40000J0D01*
G01*
X20130000Y-12444000D02*
G75*
G02*
X20050000Y-12444000I-40000J0D01*
G01*
X20050000Y-12444000D02*
G75*
G02*
X20130000Y-12444000I40000J0D01*
G01*
X20130000Y-12698000D02*
G75*
G02*
X20050000Y-12698000I-40000J0D01*
G01*
X20050000Y-12698000D02*
G75*
G02*
X20130000Y-12698000I40000J0D01*
G01*
X20130000Y-12952000D02*
G75*
G02*
X20050000Y-12952000I-40000J0D01*
G01*
X20050000Y-12952000D02*
G75*
G02*
X20130000Y-12952000I40000J0D01*
G01*
X20892000Y-11428000D02*
G75*
G02*
X20812000Y-11428000I-40000J0D01*
G01*
X20812000Y-11428000D02*
G75*
G02*
X20892000Y-11428000I40000J0D01*
G01*
X20892000Y-11682000D02*
G75*
G02*
X20812000Y-11682000I-40000J0D01*
G01*
X20812000Y-11682000D02*
G75*
G02*
X20892000Y-11682000I40000J0D01*
G01*
X20892000Y-11936000D02*
G75*
G02*
X20812000Y-11936000I-40000J0D01*
G01*
X20812000Y-11936000D02*
G75*
G02*
X20892000Y-11936000I40000J0D01*
G01*
X20892000Y-12190000D02*
G75*
G02*
X20812000Y-12190000I-40000J0D01*
G01*
X20812000Y-12190000D02*
G75*
G02*
X20892000Y-12190000I40000J0D01*
G01*
X20892000Y-12444000D02*
G75*
G02*
X20812000Y-12444000I-40000J0D01*
G01*
X20812000Y-12444000D02*
G75*
G02*
X20892000Y-12444000I40000J0D01*
G01*
X20892000Y-12698000D02*
G75*
G02*
X20812000Y-12698000I-40000J0D01*
G01*
X20812000Y-12698000D02*
G75*
G02*
X20892000Y-12698000I40000J0D01*
G01*
X20892000Y-12952000D02*
G75*
G02*
X20812000Y-12952000I-40000J0D01*
G01*
X20812000Y-12952000D02*
G75*
G02*
X20892000Y-12952000I40000J0D01*
G01*
D13*
X10039757Y-5505906D02*
X10039757Y-5607906D01*
X9988757Y-5556906D02*
X10090757Y-5556906D01*
X10293757Y-5505906D02*
X10293757Y-5607906D01*
X10242757Y-5556906D02*
X10344757Y-5556906D01*
X10547757Y-5505906D02*
X10547757Y-5607906D01*
X10496757Y-5556906D02*
X10598757Y-5556906D01*
D14*
X14745962Y-6245962D02*
X14745962Y-6154038D01*
X14654038Y-6154038D01*
X14654038Y-6245962D01*
X14745962Y-6245962D01*
X14745962Y-9245962D02*
X14745962Y-9154038D01*
X14654038Y-9154038D01*
X14654038Y-9245962D01*
X14745962Y-9245962D01*
X15245962Y-6245962D02*
X15245962Y-6154038D01*
X15154038Y-6154038D01*
X15154038Y-6245962D01*
X15245962Y-6245962D01*
X15245962Y-9245962D02*
X15245962Y-9154038D01*
X15154038Y-9154038D01*
X15154038Y-9245962D01*
X15245962Y-9245962D01*
X15745962Y-6245962D02*
X15745962Y-6154038D01*
X15654038Y-6154038D01*
X15654038Y-6245962D01*
X15745962Y-6245962D01*
X15745962Y-9245962D02*
X15745962Y-9154038D01*
X15654038Y-9154038D01*
X15654038Y-9245962D01*
X15745962Y-9245962D01*
X16245962Y-6245962D02*
X16245962Y-6154038D01*
X16154038Y-6154038D01*
X16154038Y-6245962D01*
X16245962Y-6245962D01*
X16245962Y-9245962D02*
X16245962Y-9154038D01*
X16154038Y-9154038D01*
X16154038Y-9245962D01*
X16245962Y-9245962D01*
X16745962Y-6245962D02*
X16745962Y-6154038D01*
X16654038Y-6154038D01*
X16654038Y-6245962D01*
X16745962Y-6245962D01*
X16745962Y-9245962D02*
X16745962Y-9154038D01*
X16654038Y-9154038D01*
X16654038Y-9245962D01*
X16745962Y-9245962D01*
X17245962Y-6245962D02*
X17245962Y-6154038D01*
X17154038Y-6154038D01*
X17154038Y-6245962D01*
X17245962Y-6245962D01*
X17245962Y-9245962D02*
X17245962Y-9154038D01*
X17154038Y-9154038D01*
X17154038Y-9245962D01*
X17245962Y-9245962D01*
X17745962Y-6245962D02*
X17745962Y-6154038D01*
X17654038Y-6154038D01*
X17654038Y-6245962D01*
X17745962Y-6245962D01*
X17745962Y-9245962D02*
X17745962Y-9154038D01*
X17654038Y-9154038D01*
X17654038Y-9245962D01*
X17745962Y-9245962D01*
D15*
X14067610Y-12323979D02*
X14137610Y-12253979D01*
X14067610Y-12183979D01*
X13997610Y-12253979D01*
X14067610Y-12323979D01*
X14067610Y-12873979D02*
X14137610Y-12803979D01*
X14067610Y-12733979D01*
X13997610Y-12803979D01*
X14067610Y-12873979D01*
X14487610Y-12323979D02*
X14557610Y-12253979D01*
X14487610Y-12183979D01*
X14417610Y-12253979D01*
X14487610Y-12323979D01*
X14487610Y-12873979D02*
X14557610Y-12803979D01*
X14487610Y-12733979D01*
X14417610Y-12803979D01*
X14487610Y-12873979D01*
X14907610Y-12323979D02*
X14977610Y-12253979D01*
X14907610Y-12183979D01*
X14837610Y-12253979D01*
X14907610Y-12323979D01*
X14907610Y-12873979D02*
X14977610Y-12803979D01*
X14907610Y-12733979D01*
X14837610Y-12803979D01*
X14907610Y-12873979D01*
X15327610Y-12323979D02*
X15397610Y-12253979D01*
X15327610Y-12183979D01*
X15257610Y-12253979D01*
X15327610Y-12323979D01*
X15327610Y-12873979D02*
X15397610Y-12803979D01*
X15327610Y-12733979D01*
X15257610Y-12803979D01*
X15327610Y-12873979D01*
X15747610Y-12323979D02*
X15817610Y-12253979D01*
X15747610Y-12183979D01*
X15677610Y-12253979D01*
X15747610Y-12323979D01*
X15747610Y-12873979D02*
X15817610Y-12803979D01*
X15747610Y-12733979D01*
X15677610Y-12803979D01*
X15747610Y-12873979D01*
X16167610Y-12323979D02*
X16237610Y-12253979D01*
X16167610Y-12183979D01*
X16097610Y-12253979D01*
X16167610Y-12323979D01*
X16167610Y-12873979D02*
X16237610Y-12803979D01*
X16167610Y-12733979D01*
X16097610Y-12803979D01*
X16167610Y-12873979D01*
X16587610Y-12323979D02*
X16657610Y-12253979D01*
X16587610Y-12183979D01*
X16517610Y-12253979D01*
X16587610Y-12323979D01*
X16587610Y-12873979D02*
X16657610Y-12803979D01*
X16587610Y-12733979D01*
X16517610Y-12803979D01*
X16587610Y-12873979D01*
X17007610Y-12323979D02*
X17077610Y-12253979D01*
X17007610Y-12183979D01*
X16937610Y-12253979D01*
X17007610Y-12323979D01*
X17007610Y-12873979D02*
X17077610Y-12803979D01*
X17007610Y-12733979D01*
X16937610Y-12803979D01*
X17007610Y-12873979D01*
X17427610Y-12323979D02*
X17497610Y-12253979D01*
X17427610Y-12183979D01*
X17357610Y-12253979D01*
X17427610Y-12323979D01*
X17427610Y-12873979D02*
X17497610Y-12803979D01*
X17427610Y-12733979D01*
X17357610Y-12803979D01*
X17427610Y-12873979D01*
X17847610Y-12323979D02*
X17917610Y-12253979D01*
X17847610Y-12183979D01*
X17777610Y-12253979D01*
X17847610Y-12323979D01*
X17847610Y-12873979D02*
X17917610Y-12803979D01*
X17847610Y-12733979D01*
X17777610Y-12803979D01*
X17847610Y-12873979D01*
X18267610Y-12323979D02*
X18337610Y-12253979D01*
X18267610Y-12183979D01*
X18197610Y-12253979D01*
X18267610Y-12323979D01*
X18267610Y-12873979D02*
X18337610Y-12803979D01*
X18267610Y-12733979D01*
X18197610Y-12803979D01*
X18267610Y-12873979D01*
X18687610Y-12323979D02*
X18757610Y-12253979D01*
X18687610Y-12183979D01*
X18617610Y-12253979D01*
X18687610Y-12323979D01*
X18687610Y-12873979D02*
X18757610Y-12803979D01*
X18687610Y-12733979D01*
X18617610Y-12803979D01*
X18687610Y-12873979D01*
D16*
X6242500Y-6342500D02*
X6592500Y-6692500D01*
X6592500Y-6342500D02*
X6242500Y-6692500D01*
X6592500Y-6517500D02*
G75*
G02*
X6242500Y-6517500I-175000J0D01*
G01*
X6242500Y-6517500D02*
G75*
G02*
X6592500Y-6517500I175000J0D01*
G01*
X13227500Y-6342500D02*
X13577500Y-6692500D01*
X13577500Y-6342500D02*
X13227500Y-6692500D01*
X13577500Y-6517500D02*
G75*
G02*
X13227500Y-6517500I-175000J0D01*
G01*
X13227500Y-6517500D02*
G75*
G02*
X13577500Y-6517500I175000J0D01*
G01*
D11*
X5863277Y-14708984D02*
X5863277Y-14508984D01*
X5863277Y-14508984D02*
X5910896Y-14508984D01*
X5910896Y-14508984D02*
X5939467Y-14518508D01*
X5939467Y-14518508D02*
X5958515Y-14537555D01*
X5958515Y-14537555D02*
X5968039Y-14556603D01*
X5968039Y-14556603D02*
X5977562Y-14594698D01*
X5977562Y-14594698D02*
X5977562Y-14623269D01*
X5977562Y-14623269D02*
X5968039Y-14661365D01*
X5968039Y-14661365D02*
X5958515Y-14680412D01*
X5958515Y-14680412D02*
X5939467Y-14699460D01*
X5939467Y-14699460D02*
X5910896Y-14708984D01*
X5910896Y-14708984D02*
X5863277Y-14708984D01*
X6063277Y-14708984D02*
X6063277Y-14575650D01*
X6063277Y-14613746D02*
X6072801Y-14594698D01*
X6072801Y-14594698D02*
X6082324Y-14585174D01*
X6082324Y-14585174D02*
X6101372Y-14575650D01*
X6101372Y-14575650D02*
X6120420Y-14575650D01*
X6187086Y-14708984D02*
X6187086Y-14575650D01*
X6187086Y-14508984D02*
X6177562Y-14518508D01*
X6177562Y-14518508D02*
X6187086Y-14528031D01*
X6187086Y-14528031D02*
X6196610Y-14518508D01*
X6196610Y-14518508D02*
X6187086Y-14508984D01*
X6187086Y-14508984D02*
X6187086Y-14528031D01*
X6310896Y-14708984D02*
X6291848Y-14699460D01*
X6291848Y-14699460D02*
X6282324Y-14680412D01*
X6282324Y-14680412D02*
X6282324Y-14508984D01*
X6415658Y-14708984D02*
X6396610Y-14699460D01*
X6396610Y-14699460D02*
X6387086Y-14680412D01*
X6387086Y-14680412D02*
X6387086Y-14508984D01*
X6644229Y-14708984D02*
X6644229Y-14508984D01*
X6644229Y-14508984D02*
X6710896Y-14651841D01*
X6710896Y-14651841D02*
X6777562Y-14508984D01*
X6777562Y-14508984D02*
X6777562Y-14708984D01*
X6958515Y-14708984D02*
X6958515Y-14604222D01*
X6958515Y-14604222D02*
X6948991Y-14585174D01*
X6948991Y-14585174D02*
X6929943Y-14575650D01*
X6929943Y-14575650D02*
X6891848Y-14575650D01*
X6891848Y-14575650D02*
X6872801Y-14585174D01*
X6958515Y-14699460D02*
X6939467Y-14708984D01*
X6939467Y-14708984D02*
X6891848Y-14708984D01*
X6891848Y-14708984D02*
X6872801Y-14699460D01*
X6872801Y-14699460D02*
X6863277Y-14680412D01*
X6863277Y-14680412D02*
X6863277Y-14661365D01*
X6863277Y-14661365D02*
X6872801Y-14642317D01*
X6872801Y-14642317D02*
X6891848Y-14632793D01*
X6891848Y-14632793D02*
X6939467Y-14632793D01*
X6939467Y-14632793D02*
X6958515Y-14623269D01*
X7053753Y-14575650D02*
X7053753Y-14775650D01*
X7053753Y-14585174D02*
X7072801Y-14575650D01*
X7072801Y-14575650D02*
X7110896Y-14575650D01*
X7110896Y-14575650D02*
X7129943Y-14585174D01*
X7129943Y-14585174D02*
X7139467Y-14594698D01*
X7139467Y-14594698D02*
X7148991Y-14613746D01*
X7148991Y-14613746D02*
X7148991Y-14670888D01*
X7148991Y-14670888D02*
X7139467Y-14689936D01*
X7139467Y-14689936D02*
X7129943Y-14699460D01*
X7129943Y-14699460D02*
X7110896Y-14708984D01*
X7110896Y-14708984D02*
X7072801Y-14708984D01*
X7072801Y-14708984D02*
X7053753Y-14699460D01*
X7234705Y-14689936D02*
X7244229Y-14699460D01*
X7244229Y-14699460D02*
X7234705Y-14708984D01*
X7234705Y-14708984D02*
X7225182Y-14699460D01*
X7225182Y-14699460D02*
X7234705Y-14689936D01*
X7234705Y-14689936D02*
X7234705Y-14708984D01*
X7234705Y-14585174D02*
X7244229Y-14594698D01*
X7244229Y-14594698D02*
X7234705Y-14604222D01*
X7234705Y-14604222D02*
X7225182Y-14594698D01*
X7225182Y-14594698D02*
X7234705Y-14585174D01*
X7234705Y-14585174D02*
X7234705Y-14604222D01*
D12*
X5552500Y-15012500D02*
X5602500Y-15062500D01*
X5602500Y-15012500D02*
X5552500Y-15062500D01*
D11*
X5901372Y-14928984D02*
X5920420Y-14928984D01*
X5920420Y-14928984D02*
X5939467Y-14938508D01*
X5939467Y-14938508D02*
X5948991Y-14948031D01*
X5948991Y-14948031D02*
X5958515Y-14967079D01*
X5958515Y-14967079D02*
X5968039Y-15005174D01*
X5968039Y-15005174D02*
X5968039Y-15052793D01*
X5968039Y-15052793D02*
X5958515Y-15090888D01*
X5958515Y-15090888D02*
X5948991Y-15109936D01*
X5948991Y-15109936D02*
X5939467Y-15119460D01*
X5939467Y-15119460D02*
X5920420Y-15128984D01*
X5920420Y-15128984D02*
X5901372Y-15128984D01*
X5901372Y-15128984D02*
X5882324Y-15119460D01*
X5882324Y-15119460D02*
X5872801Y-15109936D01*
X5872801Y-15109936D02*
X5863277Y-15090888D01*
X5863277Y-15090888D02*
X5853753Y-15052793D01*
X5853753Y-15052793D02*
X5853753Y-15005174D01*
X5853753Y-15005174D02*
X5863277Y-14967079D01*
X5863277Y-14967079D02*
X5872801Y-14948031D01*
X5872801Y-14948031D02*
X5882324Y-14938508D01*
X5882324Y-14938508D02*
X5901372Y-14928984D01*
X6053753Y-15109936D02*
X6063277Y-15119460D01*
X6063277Y-15119460D02*
X6053753Y-15128984D01*
X6053753Y-15128984D02*
X6044229Y-15119460D01*
X6044229Y-15119460D02*
X6053753Y-15109936D01*
X6053753Y-15109936D02*
X6053753Y-15128984D01*
X6244229Y-14928984D02*
X6148991Y-14928984D01*
X6148991Y-14928984D02*
X6139467Y-15024222D01*
X6139467Y-15024222D02*
X6148991Y-15014698D01*
X6148991Y-15014698D02*
X6168039Y-15005174D01*
X6168039Y-15005174D02*
X6215658Y-15005174D01*
X6215658Y-15005174D02*
X6234705Y-15014698D01*
X6234705Y-15014698D02*
X6244229Y-15024222D01*
X6244229Y-15024222D02*
X6253753Y-15043269D01*
X6253753Y-15043269D02*
X6253753Y-15090888D01*
X6253753Y-15090888D02*
X6244229Y-15109936D01*
X6244229Y-15109936D02*
X6234705Y-15119460D01*
X6234705Y-15119460D02*
X6215658Y-15128984D01*
X6215658Y-15128984D02*
X6168039Y-15128984D01*
X6168039Y-15128984D02*
X6148991Y-15119460D01*
X6148991Y-15119460D02*
X6139467Y-15109936D01*
X6377562Y-14928984D02*
X6396610Y-14928984D01*
X6396610Y-14928984D02*
X6415658Y-14938508D01*
X6415658Y-14938508D02*
X6425182Y-14948031D01*
X6425182Y-14948031D02*
X6434705Y-14967079D01*
X6434705Y-14967079D02*
X6444229Y-15005174D01*
X6444229Y-15005174D02*
X6444229Y-15052793D01*
X6444229Y-15052793D02*
X6434705Y-15090888D01*
X6434705Y-15090888D02*
X6425182Y-15109936D01*
X6425182Y-15109936D02*
X6415658Y-15119460D01*
X6415658Y-15119460D02*
X6396610Y-15128984D01*
X6396610Y-15128984D02*
X6377562Y-15128984D01*
X6377562Y-15128984D02*
X6358515Y-15119460D01*
X6358515Y-15119460D02*
X6348991Y-15109936D01*
X6348991Y-15109936D02*
X6339467Y-15090888D01*
X6339467Y-15090888D02*
X6329943Y-15052793D01*
X6329943Y-15052793D02*
X6329943Y-15005174D01*
X6329943Y-15005174D02*
X6339467Y-14967079D01*
X6339467Y-14967079D02*
X6348991Y-14948031D01*
X6348991Y-14948031D02*
X6358515Y-14938508D01*
X6358515Y-14938508D02*
X6377562Y-14928984D01*
X6568039Y-14928984D02*
X6587086Y-14928984D01*
X6587086Y-14928984D02*
X6606134Y-14938508D01*
X6606134Y-14938508D02*
X6615658Y-14948031D01*
X6615658Y-14948031D02*
X6625182Y-14967079D01*
X6625182Y-14967079D02*
X6634705Y-15005174D01*
X6634705Y-15005174D02*
X6634705Y-15052793D01*
X6634705Y-15052793D02*
X6625182Y-15090888D01*
X6625182Y-15090888D02*
X6615658Y-15109936D01*
X6615658Y-15109936D02*
X6606134Y-15119460D01*
X6606134Y-15119460D02*
X6587086Y-15128984D01*
X6587086Y-15128984D02*
X6568039Y-15128984D01*
X6568039Y-15128984D02*
X6548991Y-15119460D01*
X6548991Y-15119460D02*
X6539467Y-15109936D01*
X6539467Y-15109936D02*
X6529943Y-15090888D01*
X6529943Y-15090888D02*
X6520420Y-15052793D01*
X6520420Y-15052793D02*
X6520420Y-15005174D01*
X6520420Y-15005174D02*
X6529943Y-14967079D01*
X6529943Y-14967079D02*
X6539467Y-14948031D01*
X6539467Y-14948031D02*
X6548991Y-14938508D01*
X6548991Y-14938508D02*
X6568039Y-14928984D01*
X6720420Y-15128984D02*
X6720420Y-14995650D01*
X6720420Y-15014698D02*
X6729943Y-15005174D01*
X6729943Y-15005174D02*
X6748991Y-14995650D01*
X6748991Y-14995650D02*
X6777563Y-14995650D01*
X6777563Y-14995650D02*
X6796610Y-15005174D01*
X6796610Y-15005174D02*
X6806134Y-15024222D01*
X6806134Y-15024222D02*
X6806134Y-15128984D01*
X6806134Y-15024222D02*
X6815658Y-15005174D01*
X6815658Y-15005174D02*
X6834705Y-14995650D01*
X6834705Y-14995650D02*
X6863277Y-14995650D01*
X6863277Y-14995650D02*
X6882324Y-15005174D01*
X6882324Y-15005174D02*
X6891848Y-15024222D01*
X6891848Y-15024222D02*
X6891848Y-15128984D01*
X6987086Y-15128984D02*
X6987086Y-14995650D01*
X6987086Y-15014698D02*
X6996610Y-15005174D01*
X6996610Y-15005174D02*
X7015658Y-14995650D01*
X7015658Y-14995650D02*
X7044229Y-14995650D01*
X7044229Y-14995650D02*
X7063277Y-15005174D01*
X7063277Y-15005174D02*
X7072801Y-15024222D01*
X7072801Y-15024222D02*
X7072801Y-15128984D01*
X7072801Y-15024222D02*
X7082324Y-15005174D01*
X7082324Y-15005174D02*
X7101372Y-14995650D01*
X7101372Y-14995650D02*
X7129943Y-14995650D01*
X7129943Y-14995650D02*
X7148991Y-15005174D01*
X7148991Y-15005174D02*
X7158515Y-15024222D01*
X7158515Y-15024222D02*
X7158515Y-15128984D01*
X7548991Y-14919460D02*
X7377563Y-15176603D01*
X7806134Y-14928984D02*
X7825182Y-14928984D01*
X7825182Y-14928984D02*
X7844229Y-14938508D01*
X7844229Y-14938508D02*
X7853753Y-14948031D01*
X7853753Y-14948031D02*
X7863277Y-14967079D01*
X7863277Y-14967079D02*
X7872801Y-15005174D01*
X7872801Y-15005174D02*
X7872801Y-15052793D01*
X7872801Y-15052793D02*
X7863277Y-15090888D01*
X7863277Y-15090888D02*
X7853753Y-15109936D01*
X7853753Y-15109936D02*
X7844229Y-15119460D01*
X7844229Y-15119460D02*
X7825182Y-15128984D01*
X7825182Y-15128984D02*
X7806134Y-15128984D01*
X7806134Y-15128984D02*
X7787086Y-15119460D01*
X7787086Y-15119460D02*
X7777563Y-15109936D01*
X7777563Y-15109936D02*
X7768039Y-15090888D01*
X7768039Y-15090888D02*
X7758515Y-15052793D01*
X7758515Y-15052793D02*
X7758515Y-15005174D01*
X7758515Y-15005174D02*
X7768039Y-14967079D01*
X7768039Y-14967079D02*
X7777563Y-14948031D01*
X7777563Y-14948031D02*
X7787086Y-14938508D01*
X7787086Y-14938508D02*
X7806134Y-14928984D01*
X7958515Y-15109936D02*
X7968039Y-15119460D01*
X7968039Y-15119460D02*
X7958515Y-15128984D01*
X7958515Y-15128984D02*
X7948991Y-15119460D01*
X7948991Y-15119460D02*
X7958515Y-15109936D01*
X7958515Y-15109936D02*
X7958515Y-15128984D01*
X8091848Y-14928984D02*
X8110896Y-14928984D01*
X8110896Y-14928984D02*
X8129944Y-14938508D01*
X8129944Y-14938508D02*
X8139467Y-14948031D01*
X8139467Y-14948031D02*
X8148991Y-14967079D01*
X8148991Y-14967079D02*
X8158515Y-15005174D01*
X8158515Y-15005174D02*
X8158515Y-15052793D01*
X8158515Y-15052793D02*
X8148991Y-15090888D01*
X8148991Y-15090888D02*
X8139467Y-15109936D01*
X8139467Y-15109936D02*
X8129944Y-15119460D01*
X8129944Y-15119460D02*
X8110896Y-15128984D01*
X8110896Y-15128984D02*
X8091848Y-15128984D01*
X8091848Y-15128984D02*
X8072801Y-15119460D01*
X8072801Y-15119460D02*
X8063277Y-15109936D01*
X8063277Y-15109936D02*
X8053753Y-15090888D01*
X8053753Y-15090888D02*
X8044229Y-15052793D01*
X8044229Y-15052793D02*
X8044229Y-15005174D01*
X8044229Y-15005174D02*
X8053753Y-14967079D01*
X8053753Y-14967079D02*
X8063277Y-14948031D01*
X8063277Y-14948031D02*
X8072801Y-14938508D01*
X8072801Y-14938508D02*
X8091848Y-14928984D01*
X8348991Y-15128984D02*
X8234706Y-15128984D01*
X8291848Y-15128984D02*
X8291848Y-14928984D01*
X8291848Y-14928984D02*
X8272801Y-14957555D01*
X8272801Y-14957555D02*
X8253753Y-14976603D01*
X8253753Y-14976603D02*
X8234706Y-14986127D01*
X8444229Y-15128984D02*
X8482325Y-15128984D01*
X8482325Y-15128984D02*
X8501372Y-15119460D01*
X8501372Y-15119460D02*
X8510896Y-15109936D01*
X8510896Y-15109936D02*
X8529944Y-15081365D01*
X8529944Y-15081365D02*
X8539468Y-15043269D01*
X8539468Y-15043269D02*
X8539468Y-14967079D01*
X8539468Y-14967079D02*
X8529944Y-14948031D01*
X8529944Y-14948031D02*
X8520420Y-14938508D01*
X8520420Y-14938508D02*
X8501372Y-14928984D01*
X8501372Y-14928984D02*
X8463277Y-14928984D01*
X8463277Y-14928984D02*
X8444229Y-14938508D01*
X8444229Y-14938508D02*
X8434706Y-14948031D01*
X8434706Y-14948031D02*
X8425182Y-14967079D01*
X8425182Y-14967079D02*
X8425182Y-15014698D01*
X8425182Y-15014698D02*
X8434706Y-15033746D01*
X8434706Y-15033746D02*
X8444229Y-15043269D01*
X8444229Y-15043269D02*
X8463277Y-15052793D01*
X8463277Y-15052793D02*
X8501372Y-15052793D01*
X8501372Y-15052793D02*
X8520420Y-15043269D01*
X8520420Y-15043269D02*
X8529944Y-15033746D01*
X8529944Y-15033746D02*
X8539468Y-15014698D01*
X8606134Y-14928984D02*
X8739468Y-14928984D01*
X8739468Y-14928984D02*
X8653753Y-15128984D01*
X8806134Y-14928984D02*
X8806134Y-14967079D01*
X8882325Y-14928984D02*
X8882325Y-14967079D01*
X9177563Y-15205174D02*
X9168039Y-15195650D01*
X9168039Y-15195650D02*
X9148991Y-15167079D01*
X9148991Y-15167079D02*
X9139468Y-15148031D01*
X9139468Y-15148031D02*
X9129944Y-15119460D01*
X9129944Y-15119460D02*
X9120420Y-15071841D01*
X9120420Y-15071841D02*
X9120420Y-15033746D01*
X9120420Y-15033746D02*
X9129944Y-14986127D01*
X9129944Y-14986127D02*
X9139468Y-14957555D01*
X9139468Y-14957555D02*
X9148991Y-14938508D01*
X9148991Y-14938508D02*
X9168039Y-14909936D01*
X9168039Y-14909936D02*
X9177563Y-14900412D01*
X9358515Y-15128984D02*
X9244230Y-15128984D01*
X9301372Y-15128984D02*
X9301372Y-14928984D01*
X9301372Y-14928984D02*
X9282325Y-14957555D01*
X9282325Y-14957555D02*
X9263277Y-14976603D01*
X9263277Y-14976603D02*
X9244230Y-14986127D01*
X9529944Y-14928984D02*
X9491849Y-14928984D01*
X9491849Y-14928984D02*
X9472801Y-14938508D01*
X9472801Y-14938508D02*
X9463277Y-14948031D01*
X9463277Y-14948031D02*
X9444230Y-14976603D01*
X9444230Y-14976603D02*
X9434706Y-15014698D01*
X9434706Y-15014698D02*
X9434706Y-15090888D01*
X9434706Y-15090888D02*
X9444230Y-15109936D01*
X9444230Y-15109936D02*
X9453753Y-15119460D01*
X9453753Y-15119460D02*
X9472801Y-15128984D01*
X9472801Y-15128984D02*
X9510896Y-15128984D01*
X9510896Y-15128984D02*
X9529944Y-15119460D01*
X9529944Y-15119460D02*
X9539468Y-15109936D01*
X9539468Y-15109936D02*
X9548991Y-15090888D01*
X9548991Y-15090888D02*
X9548991Y-15043269D01*
X9548991Y-15043269D02*
X9539468Y-15024222D01*
X9539468Y-15024222D02*
X9529944Y-15014698D01*
X9529944Y-15014698D02*
X9510896Y-15005174D01*
X9510896Y-15005174D02*
X9472801Y-15005174D01*
X9472801Y-15005174D02*
X9453753Y-15014698D01*
X9453753Y-15014698D02*
X9444230Y-15024222D01*
X9444230Y-15024222D02*
X9434706Y-15043269D01*
X9787087Y-15128984D02*
X9787087Y-14928984D01*
X9872801Y-15128984D02*
X9872801Y-15024222D01*
X9872801Y-15024222D02*
X9863277Y-15005174D01*
X9863277Y-15005174D02*
X9844230Y-14995650D01*
X9844230Y-14995650D02*
X9815658Y-14995650D01*
X9815658Y-14995650D02*
X9796611Y-15005174D01*
X9796611Y-15005174D02*
X9787087Y-15014698D01*
X9996611Y-15128984D02*
X9977563Y-15119460D01*
X9977563Y-15119460D02*
X9968039Y-15109936D01*
X9968039Y-15109936D02*
X9958515Y-15090888D01*
X9958515Y-15090888D02*
X9958515Y-15033746D01*
X9958515Y-15033746D02*
X9968039Y-15014698D01*
X9968039Y-15014698D02*
X9977563Y-15005174D01*
X9977563Y-15005174D02*
X9996611Y-14995650D01*
X9996611Y-14995650D02*
X10025182Y-14995650D01*
X10025182Y-14995650D02*
X10044230Y-15005174D01*
X10044230Y-15005174D02*
X10053753Y-15014698D01*
X10053753Y-15014698D02*
X10063277Y-15033746D01*
X10063277Y-15033746D02*
X10063277Y-15090888D01*
X10063277Y-15090888D02*
X10053753Y-15109936D01*
X10053753Y-15109936D02*
X10044230Y-15119460D01*
X10044230Y-15119460D02*
X10025182Y-15128984D01*
X10025182Y-15128984D02*
X9996611Y-15128984D01*
X10177563Y-15128984D02*
X10158515Y-15119460D01*
X10158515Y-15119460D02*
X10148992Y-15100412D01*
X10148992Y-15100412D02*
X10148992Y-14928984D01*
X10329944Y-15119460D02*
X10310896Y-15128984D01*
X10310896Y-15128984D02*
X10272801Y-15128984D01*
X10272801Y-15128984D02*
X10253753Y-15119460D01*
X10253753Y-15119460D02*
X10244230Y-15100412D01*
X10244230Y-15100412D02*
X10244230Y-15024222D01*
X10244230Y-15024222D02*
X10253753Y-15005174D01*
X10253753Y-15005174D02*
X10272801Y-14995650D01*
X10272801Y-14995650D02*
X10310896Y-14995650D01*
X10310896Y-14995650D02*
X10329944Y-15005174D01*
X10329944Y-15005174D02*
X10339468Y-15024222D01*
X10339468Y-15024222D02*
X10339468Y-15043269D01*
X10339468Y-15043269D02*
X10244230Y-15062317D01*
X10415658Y-15119460D02*
X10434706Y-15128984D01*
X10434706Y-15128984D02*
X10472801Y-15128984D01*
X10472801Y-15128984D02*
X10491849Y-15119460D01*
X10491849Y-15119460D02*
X10501373Y-15100412D01*
X10501373Y-15100412D02*
X10501373Y-15090888D01*
X10501373Y-15090888D02*
X10491849Y-15071841D01*
X10491849Y-15071841D02*
X10472801Y-15062317D01*
X10472801Y-15062317D02*
X10444230Y-15062317D01*
X10444230Y-15062317D02*
X10425182Y-15052793D01*
X10425182Y-15052793D02*
X10415658Y-15033746D01*
X10415658Y-15033746D02*
X10415658Y-15024222D01*
X10415658Y-15024222D02*
X10425182Y-15005174D01*
X10425182Y-15005174D02*
X10444230Y-14995650D01*
X10444230Y-14995650D02*
X10472801Y-14995650D01*
X10472801Y-14995650D02*
X10491849Y-15005174D01*
X10568039Y-15205174D02*
X10577563Y-15195650D01*
X10577563Y-15195650D02*
X10596611Y-15167079D01*
X10596611Y-15167079D02*
X10606134Y-15148031D01*
X10606134Y-15148031D02*
X10615658Y-15119460D01*
X10615658Y-15119460D02*
X10625182Y-15071841D01*
X10625182Y-15071841D02*
X10625182Y-15033746D01*
X10625182Y-15033746D02*
X10615658Y-14986127D01*
X10615658Y-14986127D02*
X10606134Y-14957555D01*
X10606134Y-14957555D02*
X10596611Y-14938508D01*
X10596611Y-14938508D02*
X10577563Y-14909936D01*
X10577563Y-14909936D02*
X10568039Y-14900412D01*
D12*
X5602500Y-15301500D02*
G75*
G02*
X5522500Y-15301500I-40000J0D01*
G01*
X5522500Y-15301500D02*
G75*
G02*
X5602500Y-15301500I40000J0D01*
G01*
D11*
X5901372Y-15192984D02*
X5920420Y-15192984D01*
X5920420Y-15192984D02*
X5939467Y-15202508D01*
X5939467Y-15202508D02*
X5948991Y-15212031D01*
X5948991Y-15212031D02*
X5958515Y-15231079D01*
X5958515Y-15231079D02*
X5968039Y-15269174D01*
X5968039Y-15269174D02*
X5968039Y-15316793D01*
X5968039Y-15316793D02*
X5958515Y-15354888D01*
X5958515Y-15354888D02*
X5948991Y-15373936D01*
X5948991Y-15373936D02*
X5939467Y-15383460D01*
X5939467Y-15383460D02*
X5920420Y-15392984D01*
X5920420Y-15392984D02*
X5901372Y-15392984D01*
X5901372Y-15392984D02*
X5882324Y-15383460D01*
X5882324Y-15383460D02*
X5872801Y-15373936D01*
X5872801Y-15373936D02*
X5863277Y-15354888D01*
X5863277Y-15354888D02*
X5853753Y-15316793D01*
X5853753Y-15316793D02*
X5853753Y-15269174D01*
X5853753Y-15269174D02*
X5863277Y-15231079D01*
X5863277Y-15231079D02*
X5872801Y-15212031D01*
X5872801Y-15212031D02*
X5882324Y-15202508D01*
X5882324Y-15202508D02*
X5901372Y-15192984D01*
X6053753Y-15373936D02*
X6063277Y-15383460D01*
X6063277Y-15383460D02*
X6053753Y-15392984D01*
X6053753Y-15392984D02*
X6044229Y-15383460D01*
X6044229Y-15383460D02*
X6053753Y-15373936D01*
X6053753Y-15373936D02*
X6053753Y-15392984D01*
X6177562Y-15278698D02*
X6158515Y-15269174D01*
X6158515Y-15269174D02*
X6148991Y-15259650D01*
X6148991Y-15259650D02*
X6139467Y-15240603D01*
X6139467Y-15240603D02*
X6139467Y-15231079D01*
X6139467Y-15231079D02*
X6148991Y-15212031D01*
X6148991Y-15212031D02*
X6158515Y-15202508D01*
X6158515Y-15202508D02*
X6177562Y-15192984D01*
X6177562Y-15192984D02*
X6215658Y-15192984D01*
X6215658Y-15192984D02*
X6234705Y-15202508D01*
X6234705Y-15202508D02*
X6244229Y-15212031D01*
X6244229Y-15212031D02*
X6253753Y-15231079D01*
X6253753Y-15231079D02*
X6253753Y-15240603D01*
X6253753Y-15240603D02*
X6244229Y-15259650D01*
X6244229Y-15259650D02*
X6234705Y-15269174D01*
X6234705Y-15269174D02*
X6215658Y-15278698D01*
X6215658Y-15278698D02*
X6177562Y-15278698D01*
X6177562Y-15278698D02*
X6158515Y-15288222D01*
X6158515Y-15288222D02*
X6148991Y-15297746D01*
X6148991Y-15297746D02*
X6139467Y-15316793D01*
X6139467Y-15316793D02*
X6139467Y-15354888D01*
X6139467Y-15354888D02*
X6148991Y-15373936D01*
X6148991Y-15373936D02*
X6158515Y-15383460D01*
X6158515Y-15383460D02*
X6177562Y-15392984D01*
X6177562Y-15392984D02*
X6215658Y-15392984D01*
X6215658Y-15392984D02*
X6234705Y-15383460D01*
X6234705Y-15383460D02*
X6244229Y-15373936D01*
X6244229Y-15373936D02*
X6253753Y-15354888D01*
X6253753Y-15354888D02*
X6253753Y-15316793D01*
X6253753Y-15316793D02*
X6244229Y-15297746D01*
X6244229Y-15297746D02*
X6234705Y-15288222D01*
X6234705Y-15288222D02*
X6215658Y-15278698D01*
X6377562Y-15192984D02*
X6396610Y-15192984D01*
X6396610Y-15192984D02*
X6415658Y-15202508D01*
X6415658Y-15202508D02*
X6425182Y-15212031D01*
X6425182Y-15212031D02*
X6434705Y-15231079D01*
X6434705Y-15231079D02*
X6444229Y-15269174D01*
X6444229Y-15269174D02*
X6444229Y-15316793D01*
X6444229Y-15316793D02*
X6434705Y-15354888D01*
X6434705Y-15354888D02*
X6425182Y-15373936D01*
X6425182Y-15373936D02*
X6415658Y-15383460D01*
X6415658Y-15383460D02*
X6396610Y-15392984D01*
X6396610Y-15392984D02*
X6377562Y-15392984D01*
X6377562Y-15392984D02*
X6358515Y-15383460D01*
X6358515Y-15383460D02*
X6348991Y-15373936D01*
X6348991Y-15373936D02*
X6339467Y-15354888D01*
X6339467Y-15354888D02*
X6329943Y-15316793D01*
X6329943Y-15316793D02*
X6329943Y-15269174D01*
X6329943Y-15269174D02*
X6339467Y-15231079D01*
X6339467Y-15231079D02*
X6348991Y-15212031D01*
X6348991Y-15212031D02*
X6358515Y-15202508D01*
X6358515Y-15202508D02*
X6377562Y-15192984D01*
X6568039Y-15192984D02*
X6587086Y-15192984D01*
X6587086Y-15192984D02*
X6606134Y-15202508D01*
X6606134Y-15202508D02*
X6615658Y-15212031D01*
X6615658Y-15212031D02*
X6625182Y-15231079D01*
X6625182Y-15231079D02*
X6634705Y-15269174D01*
X6634705Y-15269174D02*
X6634705Y-15316793D01*
X6634705Y-15316793D02*
X6625182Y-15354888D01*
X6625182Y-15354888D02*
X6615658Y-15373936D01*
X6615658Y-15373936D02*
X6606134Y-15383460D01*
X6606134Y-15383460D02*
X6587086Y-15392984D01*
X6587086Y-15392984D02*
X6568039Y-15392984D01*
X6568039Y-15392984D02*
X6548991Y-15383460D01*
X6548991Y-15383460D02*
X6539467Y-15373936D01*
X6539467Y-15373936D02*
X6529943Y-15354888D01*
X6529943Y-15354888D02*
X6520420Y-15316793D01*
X6520420Y-15316793D02*
X6520420Y-15269174D01*
X6520420Y-15269174D02*
X6529943Y-15231079D01*
X6529943Y-15231079D02*
X6539467Y-15212031D01*
X6539467Y-15212031D02*
X6548991Y-15202508D01*
X6548991Y-15202508D02*
X6568039Y-15192984D01*
X6720420Y-15392984D02*
X6720420Y-15259650D01*
X6720420Y-15278698D02*
X6729943Y-15269174D01*
X6729943Y-15269174D02*
X6748991Y-15259650D01*
X6748991Y-15259650D02*
X6777563Y-15259650D01*
X6777563Y-15259650D02*
X6796610Y-15269174D01*
X6796610Y-15269174D02*
X6806134Y-15288222D01*
X6806134Y-15288222D02*
X6806134Y-15392984D01*
X6806134Y-15288222D02*
X6815658Y-15269174D01*
X6815658Y-15269174D02*
X6834705Y-15259650D01*
X6834705Y-15259650D02*
X6863277Y-15259650D01*
X6863277Y-15259650D02*
X6882324Y-15269174D01*
X6882324Y-15269174D02*
X6891848Y-15288222D01*
X6891848Y-15288222D02*
X6891848Y-15392984D01*
X6987086Y-15392984D02*
X6987086Y-15259650D01*
X6987086Y-15278698D02*
X6996610Y-15269174D01*
X6996610Y-15269174D02*
X7015658Y-15259650D01*
X7015658Y-15259650D02*
X7044229Y-15259650D01*
X7044229Y-15259650D02*
X7063277Y-15269174D01*
X7063277Y-15269174D02*
X7072801Y-15288222D01*
X7072801Y-15288222D02*
X7072801Y-15392984D01*
X7072801Y-15288222D02*
X7082324Y-15269174D01*
X7082324Y-15269174D02*
X7101372Y-15259650D01*
X7101372Y-15259650D02*
X7129943Y-15259650D01*
X7129943Y-15259650D02*
X7148991Y-15269174D01*
X7148991Y-15269174D02*
X7158515Y-15288222D01*
X7158515Y-15288222D02*
X7158515Y-15392984D01*
X7548991Y-15183460D02*
X7377563Y-15440603D01*
X7806134Y-15192984D02*
X7825182Y-15192984D01*
X7825182Y-15192984D02*
X7844229Y-15202508D01*
X7844229Y-15202508D02*
X7853753Y-15212031D01*
X7853753Y-15212031D02*
X7863277Y-15231079D01*
X7863277Y-15231079D02*
X7872801Y-15269174D01*
X7872801Y-15269174D02*
X7872801Y-15316793D01*
X7872801Y-15316793D02*
X7863277Y-15354888D01*
X7863277Y-15354888D02*
X7853753Y-15373936D01*
X7853753Y-15373936D02*
X7844229Y-15383460D01*
X7844229Y-15383460D02*
X7825182Y-15392984D01*
X7825182Y-15392984D02*
X7806134Y-15392984D01*
X7806134Y-15392984D02*
X7787086Y-15383460D01*
X7787086Y-15383460D02*
X7777563Y-15373936D01*
X7777563Y-15373936D02*
X7768039Y-15354888D01*
X7768039Y-15354888D02*
X7758515Y-15316793D01*
X7758515Y-15316793D02*
X7758515Y-15269174D01*
X7758515Y-15269174D02*
X7768039Y-15231079D01*
X7768039Y-15231079D02*
X7777563Y-15212031D01*
X7777563Y-15212031D02*
X7787086Y-15202508D01*
X7787086Y-15202508D02*
X7806134Y-15192984D01*
X7958515Y-15373936D02*
X7968039Y-15383460D01*
X7968039Y-15383460D02*
X7958515Y-15392984D01*
X7958515Y-15392984D02*
X7948991Y-15383460D01*
X7948991Y-15383460D02*
X7958515Y-15373936D01*
X7958515Y-15373936D02*
X7958515Y-15392984D01*
X8091848Y-15192984D02*
X8110896Y-15192984D01*
X8110896Y-15192984D02*
X8129944Y-15202508D01*
X8129944Y-15202508D02*
X8139467Y-15212031D01*
X8139467Y-15212031D02*
X8148991Y-15231079D01*
X8148991Y-15231079D02*
X8158515Y-15269174D01*
X8158515Y-15269174D02*
X8158515Y-15316793D01*
X8158515Y-15316793D02*
X8148991Y-15354888D01*
X8148991Y-15354888D02*
X8139467Y-15373936D01*
X8139467Y-15373936D02*
X8129944Y-15383460D01*
X8129944Y-15383460D02*
X8110896Y-15392984D01*
X8110896Y-15392984D02*
X8091848Y-15392984D01*
X8091848Y-15392984D02*
X8072801Y-15383460D01*
X8072801Y-15383460D02*
X8063277Y-15373936D01*
X8063277Y-15373936D02*
X8053753Y-15354888D01*
X8053753Y-15354888D02*
X8044229Y-15316793D01*
X8044229Y-15316793D02*
X8044229Y-15269174D01*
X8044229Y-15269174D02*
X8053753Y-15231079D01*
X8053753Y-15231079D02*
X8063277Y-15212031D01*
X8063277Y-15212031D02*
X8072801Y-15202508D01*
X8072801Y-15202508D02*
X8091848Y-15192984D01*
X8225182Y-15192984D02*
X8348991Y-15192984D01*
X8348991Y-15192984D02*
X8282325Y-15269174D01*
X8282325Y-15269174D02*
X8310896Y-15269174D01*
X8310896Y-15269174D02*
X8329944Y-15278698D01*
X8329944Y-15278698D02*
X8339467Y-15288222D01*
X8339467Y-15288222D02*
X8348991Y-15307269D01*
X8348991Y-15307269D02*
X8348991Y-15354888D01*
X8348991Y-15354888D02*
X8339467Y-15373936D01*
X8339467Y-15373936D02*
X8329944Y-15383460D01*
X8329944Y-15383460D02*
X8310896Y-15392984D01*
X8310896Y-15392984D02*
X8253753Y-15392984D01*
X8253753Y-15392984D02*
X8234706Y-15383460D01*
X8234706Y-15383460D02*
X8225182Y-15373936D01*
X8539468Y-15392984D02*
X8425182Y-15392984D01*
X8482325Y-15392984D02*
X8482325Y-15192984D01*
X8482325Y-15192984D02*
X8463277Y-15221555D01*
X8463277Y-15221555D02*
X8444229Y-15240603D01*
X8444229Y-15240603D02*
X8425182Y-15250127D01*
X8720420Y-15192984D02*
X8625182Y-15192984D01*
X8625182Y-15192984D02*
X8615658Y-15288222D01*
X8615658Y-15288222D02*
X8625182Y-15278698D01*
X8625182Y-15278698D02*
X8644229Y-15269174D01*
X8644229Y-15269174D02*
X8691849Y-15269174D01*
X8691849Y-15269174D02*
X8710896Y-15278698D01*
X8710896Y-15278698D02*
X8720420Y-15288222D01*
X8720420Y-15288222D02*
X8729944Y-15307269D01*
X8729944Y-15307269D02*
X8729944Y-15354888D01*
X8729944Y-15354888D02*
X8720420Y-15373936D01*
X8720420Y-15373936D02*
X8710896Y-15383460D01*
X8710896Y-15383460D02*
X8691849Y-15392984D01*
X8691849Y-15392984D02*
X8644229Y-15392984D01*
X8644229Y-15392984D02*
X8625182Y-15383460D01*
X8625182Y-15383460D02*
X8615658Y-15373936D01*
X8806134Y-15192984D02*
X8806134Y-15231079D01*
X8882325Y-15192984D02*
X8882325Y-15231079D01*
X9177563Y-15469174D02*
X9168039Y-15459650D01*
X9168039Y-15459650D02*
X9148991Y-15431079D01*
X9148991Y-15431079D02*
X9139468Y-15412031D01*
X9139468Y-15412031D02*
X9129944Y-15383460D01*
X9129944Y-15383460D02*
X9120420Y-15335841D01*
X9120420Y-15335841D02*
X9120420Y-15297746D01*
X9120420Y-15297746D02*
X9129944Y-15250127D01*
X9129944Y-15250127D02*
X9139468Y-15221555D01*
X9139468Y-15221555D02*
X9148991Y-15202508D01*
X9148991Y-15202508D02*
X9168039Y-15173936D01*
X9168039Y-15173936D02*
X9177563Y-15164412D01*
X9358515Y-15392984D02*
X9244230Y-15392984D01*
X9301372Y-15392984D02*
X9301372Y-15192984D01*
X9301372Y-15192984D02*
X9282325Y-15221555D01*
X9282325Y-15221555D02*
X9263277Y-15240603D01*
X9263277Y-15240603D02*
X9244230Y-15250127D01*
X9529944Y-15192984D02*
X9491849Y-15192984D01*
X9491849Y-15192984D02*
X9472801Y-15202508D01*
X9472801Y-15202508D02*
X9463277Y-15212031D01*
X9463277Y-15212031D02*
X9444230Y-15240603D01*
X9444230Y-15240603D02*
X9434706Y-15278698D01*
X9434706Y-15278698D02*
X9434706Y-15354888D01*
X9434706Y-15354888D02*
X9444230Y-15373936D01*
X9444230Y-15373936D02*
X9453753Y-15383460D01*
X9453753Y-15383460D02*
X9472801Y-15392984D01*
X9472801Y-15392984D02*
X9510896Y-15392984D01*
X9510896Y-15392984D02*
X9529944Y-15383460D01*
X9529944Y-15383460D02*
X9539468Y-15373936D01*
X9539468Y-15373936D02*
X9548991Y-15354888D01*
X9548991Y-15354888D02*
X9548991Y-15307269D01*
X9548991Y-15307269D02*
X9539468Y-15288222D01*
X9539468Y-15288222D02*
X9529944Y-15278698D01*
X9529944Y-15278698D02*
X9510896Y-15269174D01*
X9510896Y-15269174D02*
X9472801Y-15269174D01*
X9472801Y-15269174D02*
X9453753Y-15278698D01*
X9453753Y-15278698D02*
X9444230Y-15288222D01*
X9444230Y-15288222D02*
X9434706Y-15307269D01*
X9787087Y-15392984D02*
X9787087Y-15192984D01*
X9872801Y-15392984D02*
X9872801Y-15288222D01*
X9872801Y-15288222D02*
X9863277Y-15269174D01*
X9863277Y-15269174D02*
X9844230Y-15259650D01*
X9844230Y-15259650D02*
X9815658Y-15259650D01*
X9815658Y-15259650D02*
X9796611Y-15269174D01*
X9796611Y-15269174D02*
X9787087Y-15278698D01*
X9996611Y-15392984D02*
X9977563Y-15383460D01*
X9977563Y-15383460D02*
X9968039Y-15373936D01*
X9968039Y-15373936D02*
X9958515Y-15354888D01*
X9958515Y-15354888D02*
X9958515Y-15297746D01*
X9958515Y-15297746D02*
X9968039Y-15278698D01*
X9968039Y-15278698D02*
X9977563Y-15269174D01*
X9977563Y-15269174D02*
X9996611Y-15259650D01*
X9996611Y-15259650D02*
X10025182Y-15259650D01*
X10025182Y-15259650D02*
X10044230Y-15269174D01*
X10044230Y-15269174D02*
X10053753Y-15278698D01*
X10053753Y-15278698D02*
X10063277Y-15297746D01*
X10063277Y-15297746D02*
X10063277Y-15354888D01*
X10063277Y-15354888D02*
X10053753Y-15373936D01*
X10053753Y-15373936D02*
X10044230Y-15383460D01*
X10044230Y-15383460D02*
X10025182Y-15392984D01*
X10025182Y-15392984D02*
X9996611Y-15392984D01*
X10177563Y-15392984D02*
X10158515Y-15383460D01*
X10158515Y-15383460D02*
X10148992Y-15364412D01*
X10148992Y-15364412D02*
X10148992Y-15192984D01*
X10329944Y-15383460D02*
X10310896Y-15392984D01*
X10310896Y-15392984D02*
X10272801Y-15392984D01*
X10272801Y-15392984D02*
X10253753Y-15383460D01*
X10253753Y-15383460D02*
X10244230Y-15364412D01*
X10244230Y-15364412D02*
X10244230Y-15288222D01*
X10244230Y-15288222D02*
X10253753Y-15269174D01*
X10253753Y-15269174D02*
X10272801Y-15259650D01*
X10272801Y-15259650D02*
X10310896Y-15259650D01*
X10310896Y-15259650D02*
X10329944Y-15269174D01*
X10329944Y-15269174D02*
X10339468Y-15288222D01*
X10339468Y-15288222D02*
X10339468Y-15307269D01*
X10339468Y-15307269D02*
X10244230Y-15326317D01*
X10415658Y-15383460D02*
X10434706Y-15392984D01*
X10434706Y-15392984D02*
X10472801Y-15392984D01*
X10472801Y-15392984D02*
X10491849Y-15383460D01*
X10491849Y-15383460D02*
X10501373Y-15364412D01*
X10501373Y-15364412D02*
X10501373Y-15354888D01*
X10501373Y-15354888D02*
X10491849Y-15335841D01*
X10491849Y-15335841D02*
X10472801Y-15326317D01*
X10472801Y-15326317D02*
X10444230Y-15326317D01*
X10444230Y-15326317D02*
X10425182Y-15316793D01*
X10425182Y-15316793D02*
X10415658Y-15297746D01*
X10415658Y-15297746D02*
X10415658Y-15288222D01*
X10415658Y-15288222D02*
X10425182Y-15269174D01*
X10425182Y-15269174D02*
X10444230Y-15259650D01*
X10444230Y-15259650D02*
X10472801Y-15259650D01*
X10472801Y-15259650D02*
X10491849Y-15269174D01*
X10568039Y-15469174D02*
X10577563Y-15459650D01*
X10577563Y-15459650D02*
X10596611Y-15431079D01*
X10596611Y-15431079D02*
X10606134Y-15412031D01*
X10606134Y-15412031D02*
X10615658Y-15383460D01*
X10615658Y-15383460D02*
X10625182Y-15335841D01*
X10625182Y-15335841D02*
X10625182Y-15297746D01*
X10625182Y-15297746D02*
X10615658Y-15250127D01*
X10615658Y-15250127D02*
X10606134Y-15221555D01*
X10606134Y-15221555D02*
X10596611Y-15202508D01*
X10596611Y-15202508D02*
X10577563Y-15173936D01*
X10577563Y-15173936D02*
X10568039Y-15164412D01*
D13*
X5551500Y-15514500D02*
X5551500Y-15616500D01*
X5500500Y-15565500D02*
X5602500Y-15565500D01*
D11*
X5968039Y-15656984D02*
X5853753Y-15656984D01*
X5910896Y-15656984D02*
X5910896Y-15456984D01*
X5910896Y-15456984D02*
X5891848Y-15485555D01*
X5891848Y-15485555D02*
X5872801Y-15504603D01*
X5872801Y-15504603D02*
X5853753Y-15514127D01*
X6053753Y-15637936D02*
X6063277Y-15647460D01*
X6063277Y-15647460D02*
X6053753Y-15656984D01*
X6053753Y-15656984D02*
X6044229Y-15647460D01*
X6044229Y-15647460D02*
X6053753Y-15637936D01*
X6053753Y-15637936D02*
X6053753Y-15656984D01*
X6187086Y-15456984D02*
X6206134Y-15456984D01*
X6206134Y-15456984D02*
X6225182Y-15466508D01*
X6225182Y-15466508D02*
X6234705Y-15476031D01*
X6234705Y-15476031D02*
X6244229Y-15495079D01*
X6244229Y-15495079D02*
X6253753Y-15533174D01*
X6253753Y-15533174D02*
X6253753Y-15580793D01*
X6253753Y-15580793D02*
X6244229Y-15618888D01*
X6244229Y-15618888D02*
X6234705Y-15637936D01*
X6234705Y-15637936D02*
X6225182Y-15647460D01*
X6225182Y-15647460D02*
X6206134Y-15656984D01*
X6206134Y-15656984D02*
X6187086Y-15656984D01*
X6187086Y-15656984D02*
X6168039Y-15647460D01*
X6168039Y-15647460D02*
X6158515Y-15637936D01*
X6158515Y-15637936D02*
X6148991Y-15618888D01*
X6148991Y-15618888D02*
X6139467Y-15580793D01*
X6139467Y-15580793D02*
X6139467Y-15533174D01*
X6139467Y-15533174D02*
X6148991Y-15495079D01*
X6148991Y-15495079D02*
X6158515Y-15476031D01*
X6158515Y-15476031D02*
X6168039Y-15466508D01*
X6168039Y-15466508D02*
X6187086Y-15456984D01*
X6329943Y-15476031D02*
X6339467Y-15466508D01*
X6339467Y-15466508D02*
X6358515Y-15456984D01*
X6358515Y-15456984D02*
X6406134Y-15456984D01*
X6406134Y-15456984D02*
X6425182Y-15466508D01*
X6425182Y-15466508D02*
X6434705Y-15476031D01*
X6434705Y-15476031D02*
X6444229Y-15495079D01*
X6444229Y-15495079D02*
X6444229Y-15514127D01*
X6444229Y-15514127D02*
X6434705Y-15542698D01*
X6434705Y-15542698D02*
X6320420Y-15656984D01*
X6320420Y-15656984D02*
X6444229Y-15656984D01*
X6568039Y-15456984D02*
X6587086Y-15456984D01*
X6587086Y-15456984D02*
X6606134Y-15466508D01*
X6606134Y-15466508D02*
X6615658Y-15476031D01*
X6615658Y-15476031D02*
X6625182Y-15495079D01*
X6625182Y-15495079D02*
X6634705Y-15533174D01*
X6634705Y-15533174D02*
X6634705Y-15580793D01*
X6634705Y-15580793D02*
X6625182Y-15618888D01*
X6625182Y-15618888D02*
X6615658Y-15637936D01*
X6615658Y-15637936D02*
X6606134Y-15647460D01*
X6606134Y-15647460D02*
X6587086Y-15656984D01*
X6587086Y-15656984D02*
X6568039Y-15656984D01*
X6568039Y-15656984D02*
X6548991Y-15647460D01*
X6548991Y-15647460D02*
X6539467Y-15637936D01*
X6539467Y-15637936D02*
X6529943Y-15618888D01*
X6529943Y-15618888D02*
X6520420Y-15580793D01*
X6520420Y-15580793D02*
X6520420Y-15533174D01*
X6520420Y-15533174D02*
X6529943Y-15495079D01*
X6529943Y-15495079D02*
X6539467Y-15476031D01*
X6539467Y-15476031D02*
X6548991Y-15466508D01*
X6548991Y-15466508D02*
X6568039Y-15456984D01*
X6720420Y-15656984D02*
X6720420Y-15523650D01*
X6720420Y-15542698D02*
X6729943Y-15533174D01*
X6729943Y-15533174D02*
X6748991Y-15523650D01*
X6748991Y-15523650D02*
X6777563Y-15523650D01*
X6777563Y-15523650D02*
X6796610Y-15533174D01*
X6796610Y-15533174D02*
X6806134Y-15552222D01*
X6806134Y-15552222D02*
X6806134Y-15656984D01*
X6806134Y-15552222D02*
X6815658Y-15533174D01*
X6815658Y-15533174D02*
X6834705Y-15523650D01*
X6834705Y-15523650D02*
X6863277Y-15523650D01*
X6863277Y-15523650D02*
X6882324Y-15533174D01*
X6882324Y-15533174D02*
X6891848Y-15552222D01*
X6891848Y-15552222D02*
X6891848Y-15656984D01*
X6987086Y-15656984D02*
X6987086Y-15523650D01*
X6987086Y-15542698D02*
X6996610Y-15533174D01*
X6996610Y-15533174D02*
X7015658Y-15523650D01*
X7015658Y-15523650D02*
X7044229Y-15523650D01*
X7044229Y-15523650D02*
X7063277Y-15533174D01*
X7063277Y-15533174D02*
X7072801Y-15552222D01*
X7072801Y-15552222D02*
X7072801Y-15656984D01*
X7072801Y-15552222D02*
X7082324Y-15533174D01*
X7082324Y-15533174D02*
X7101372Y-15523650D01*
X7101372Y-15523650D02*
X7129943Y-15523650D01*
X7129943Y-15523650D02*
X7148991Y-15533174D01*
X7148991Y-15533174D02*
X7158515Y-15552222D01*
X7158515Y-15552222D02*
X7158515Y-15656984D01*
X7548991Y-15447460D02*
X7377563Y-15704603D01*
X7806134Y-15456984D02*
X7825182Y-15456984D01*
X7825182Y-15456984D02*
X7844229Y-15466508D01*
X7844229Y-15466508D02*
X7853753Y-15476031D01*
X7853753Y-15476031D02*
X7863277Y-15495079D01*
X7863277Y-15495079D02*
X7872801Y-15533174D01*
X7872801Y-15533174D02*
X7872801Y-15580793D01*
X7872801Y-15580793D02*
X7863277Y-15618888D01*
X7863277Y-15618888D02*
X7853753Y-15637936D01*
X7853753Y-15637936D02*
X7844229Y-15647460D01*
X7844229Y-15647460D02*
X7825182Y-15656984D01*
X7825182Y-15656984D02*
X7806134Y-15656984D01*
X7806134Y-15656984D02*
X7787086Y-15647460D01*
X7787086Y-15647460D02*
X7777563Y-15637936D01*
X7777563Y-15637936D02*
X7768039Y-15618888D01*
X7768039Y-15618888D02*
X7758515Y-15580793D01*
X7758515Y-15580793D02*
X7758515Y-15533174D01*
X7758515Y-15533174D02*
X7768039Y-15495079D01*
X7768039Y-15495079D02*
X7777563Y-15476031D01*
X7777563Y-15476031D02*
X7787086Y-15466508D01*
X7787086Y-15466508D02*
X7806134Y-15456984D01*
X7958515Y-15637936D02*
X7968039Y-15647460D01*
X7968039Y-15647460D02*
X7958515Y-15656984D01*
X7958515Y-15656984D02*
X7948991Y-15647460D01*
X7948991Y-15647460D02*
X7958515Y-15637936D01*
X7958515Y-15637936D02*
X7958515Y-15656984D01*
X8091848Y-15456984D02*
X8110896Y-15456984D01*
X8110896Y-15456984D02*
X8129944Y-15466508D01*
X8129944Y-15466508D02*
X8139467Y-15476031D01*
X8139467Y-15476031D02*
X8148991Y-15495079D01*
X8148991Y-15495079D02*
X8158515Y-15533174D01*
X8158515Y-15533174D02*
X8158515Y-15580793D01*
X8158515Y-15580793D02*
X8148991Y-15618888D01*
X8148991Y-15618888D02*
X8139467Y-15637936D01*
X8139467Y-15637936D02*
X8129944Y-15647460D01*
X8129944Y-15647460D02*
X8110896Y-15656984D01*
X8110896Y-15656984D02*
X8091848Y-15656984D01*
X8091848Y-15656984D02*
X8072801Y-15647460D01*
X8072801Y-15647460D02*
X8063277Y-15637936D01*
X8063277Y-15637936D02*
X8053753Y-15618888D01*
X8053753Y-15618888D02*
X8044229Y-15580793D01*
X8044229Y-15580793D02*
X8044229Y-15533174D01*
X8044229Y-15533174D02*
X8053753Y-15495079D01*
X8053753Y-15495079D02*
X8063277Y-15476031D01*
X8063277Y-15476031D02*
X8072801Y-15466508D01*
X8072801Y-15466508D02*
X8091848Y-15456984D01*
X8329944Y-15523650D02*
X8329944Y-15656984D01*
X8282325Y-15447460D02*
X8234706Y-15590317D01*
X8234706Y-15590317D02*
X8358515Y-15590317D01*
X8472801Y-15456984D02*
X8491849Y-15456984D01*
X8491849Y-15456984D02*
X8510896Y-15466508D01*
X8510896Y-15466508D02*
X8520420Y-15476031D01*
X8520420Y-15476031D02*
X8529944Y-15495079D01*
X8529944Y-15495079D02*
X8539468Y-15533174D01*
X8539468Y-15533174D02*
X8539468Y-15580793D01*
X8539468Y-15580793D02*
X8529944Y-15618888D01*
X8529944Y-15618888D02*
X8520420Y-15637936D01*
X8520420Y-15637936D02*
X8510896Y-15647460D01*
X8510896Y-15647460D02*
X8491849Y-15656984D01*
X8491849Y-15656984D02*
X8472801Y-15656984D01*
X8472801Y-15656984D02*
X8453753Y-15647460D01*
X8453753Y-15647460D02*
X8444229Y-15637936D01*
X8444229Y-15637936D02*
X8434706Y-15618888D01*
X8434706Y-15618888D02*
X8425182Y-15580793D01*
X8425182Y-15580793D02*
X8425182Y-15533174D01*
X8425182Y-15533174D02*
X8434706Y-15495079D01*
X8434706Y-15495079D02*
X8444229Y-15476031D01*
X8444229Y-15476031D02*
X8453753Y-15466508D01*
X8453753Y-15466508D02*
X8472801Y-15456984D01*
X8615658Y-15476031D02*
X8625182Y-15466508D01*
X8625182Y-15466508D02*
X8644229Y-15456984D01*
X8644229Y-15456984D02*
X8691849Y-15456984D01*
X8691849Y-15456984D02*
X8710896Y-15466508D01*
X8710896Y-15466508D02*
X8720420Y-15476031D01*
X8720420Y-15476031D02*
X8729944Y-15495079D01*
X8729944Y-15495079D02*
X8729944Y-15514127D01*
X8729944Y-15514127D02*
X8720420Y-15542698D01*
X8720420Y-15542698D02*
X8606134Y-15656984D01*
X8606134Y-15656984D02*
X8729944Y-15656984D01*
X8806134Y-15456984D02*
X8806134Y-15495079D01*
X8882325Y-15456984D02*
X8882325Y-15495079D01*
X9177563Y-15733174D02*
X9168039Y-15723650D01*
X9168039Y-15723650D02*
X9148991Y-15695079D01*
X9148991Y-15695079D02*
X9139468Y-15676031D01*
X9139468Y-15676031D02*
X9129944Y-15647460D01*
X9129944Y-15647460D02*
X9120420Y-15599841D01*
X9120420Y-15599841D02*
X9120420Y-15561746D01*
X9120420Y-15561746D02*
X9129944Y-15514127D01*
X9129944Y-15514127D02*
X9139468Y-15485555D01*
X9139468Y-15485555D02*
X9148991Y-15466508D01*
X9148991Y-15466508D02*
X9168039Y-15437936D01*
X9168039Y-15437936D02*
X9177563Y-15428412D01*
X9234706Y-15456984D02*
X9358515Y-15456984D01*
X9358515Y-15456984D02*
X9291849Y-15533174D01*
X9291849Y-15533174D02*
X9320420Y-15533174D01*
X9320420Y-15533174D02*
X9339468Y-15542698D01*
X9339468Y-15542698D02*
X9348991Y-15552222D01*
X9348991Y-15552222D02*
X9358515Y-15571269D01*
X9358515Y-15571269D02*
X9358515Y-15618888D01*
X9358515Y-15618888D02*
X9348991Y-15637936D01*
X9348991Y-15637936D02*
X9339468Y-15647460D01*
X9339468Y-15647460D02*
X9320420Y-15656984D01*
X9320420Y-15656984D02*
X9263277Y-15656984D01*
X9263277Y-15656984D02*
X9244230Y-15647460D01*
X9244230Y-15647460D02*
X9234706Y-15637936D01*
X9596611Y-15656984D02*
X9596611Y-15456984D01*
X9682325Y-15656984D02*
X9682325Y-15552222D01*
X9682325Y-15552222D02*
X9672801Y-15533174D01*
X9672801Y-15533174D02*
X9653753Y-15523650D01*
X9653753Y-15523650D02*
X9625182Y-15523650D01*
X9625182Y-15523650D02*
X9606134Y-15533174D01*
X9606134Y-15533174D02*
X9596611Y-15542698D01*
X9806134Y-15656984D02*
X9787087Y-15647460D01*
X9787087Y-15647460D02*
X9777563Y-15637936D01*
X9777563Y-15637936D02*
X9768039Y-15618888D01*
X9768039Y-15618888D02*
X9768039Y-15561746D01*
X9768039Y-15561746D02*
X9777563Y-15542698D01*
X9777563Y-15542698D02*
X9787087Y-15533174D01*
X9787087Y-15533174D02*
X9806134Y-15523650D01*
X9806134Y-15523650D02*
X9834706Y-15523650D01*
X9834706Y-15523650D02*
X9853753Y-15533174D01*
X9853753Y-15533174D02*
X9863277Y-15542698D01*
X9863277Y-15542698D02*
X9872801Y-15561746D01*
X9872801Y-15561746D02*
X9872801Y-15618888D01*
X9872801Y-15618888D02*
X9863277Y-15637936D01*
X9863277Y-15637936D02*
X9853753Y-15647460D01*
X9853753Y-15647460D02*
X9834706Y-15656984D01*
X9834706Y-15656984D02*
X9806134Y-15656984D01*
X9987087Y-15656984D02*
X9968039Y-15647460D01*
X9968039Y-15647460D02*
X9958515Y-15628412D01*
X9958515Y-15628412D02*
X9958515Y-15456984D01*
X10139468Y-15647460D02*
X10120420Y-15656984D01*
X10120420Y-15656984D02*
X10082325Y-15656984D01*
X10082325Y-15656984D02*
X10063277Y-15647460D01*
X10063277Y-15647460D02*
X10053753Y-15628412D01*
X10053753Y-15628412D02*
X10053753Y-15552222D01*
X10053753Y-15552222D02*
X10063277Y-15533174D01*
X10063277Y-15533174D02*
X10082325Y-15523650D01*
X10082325Y-15523650D02*
X10120420Y-15523650D01*
X10120420Y-15523650D02*
X10139468Y-15533174D01*
X10139468Y-15533174D02*
X10148992Y-15552222D01*
X10148992Y-15552222D02*
X10148992Y-15571269D01*
X10148992Y-15571269D02*
X10053753Y-15590317D01*
X10225182Y-15647460D02*
X10244230Y-15656984D01*
X10244230Y-15656984D02*
X10282325Y-15656984D01*
X10282325Y-15656984D02*
X10301373Y-15647460D01*
X10301373Y-15647460D02*
X10310896Y-15628412D01*
X10310896Y-15628412D02*
X10310896Y-15618888D01*
X10310896Y-15618888D02*
X10301373Y-15599841D01*
X10301373Y-15599841D02*
X10282325Y-15590317D01*
X10282325Y-15590317D02*
X10253753Y-15590317D01*
X10253753Y-15590317D02*
X10234706Y-15580793D01*
X10234706Y-15580793D02*
X10225182Y-15561746D01*
X10225182Y-15561746D02*
X10225182Y-15552222D01*
X10225182Y-15552222D02*
X10234706Y-15533174D01*
X10234706Y-15533174D02*
X10253753Y-15523650D01*
X10253753Y-15523650D02*
X10282325Y-15523650D01*
X10282325Y-15523650D02*
X10301373Y-15533174D01*
X10377563Y-15733174D02*
X10387087Y-15723650D01*
X10387087Y-15723650D02*
X10406134Y-15695079D01*
X10406134Y-15695079D02*
X10415658Y-15676031D01*
X10415658Y-15676031D02*
X10425182Y-15647460D01*
X10425182Y-15647460D02*
X10434706Y-15599841D01*
X10434706Y-15599841D02*
X10434706Y-15561746D01*
X10434706Y-15561746D02*
X10425182Y-15514127D01*
X10425182Y-15514127D02*
X10415658Y-15485555D01*
X10415658Y-15485555D02*
X10406134Y-15466508D01*
X10406134Y-15466508D02*
X10387087Y-15437936D01*
X10387087Y-15437936D02*
X10377563Y-15428412D01*
D14*
X5583462Y-15875462D02*
X5583462Y-15783538D01*
X5491538Y-15783538D01*
X5491538Y-15875462D01*
X5583462Y-15875462D01*
D11*
X5968039Y-15920984D02*
X5853753Y-15920984D01*
X5910896Y-15920984D02*
X5910896Y-15720984D01*
X5910896Y-15720984D02*
X5891848Y-15749555D01*
X5891848Y-15749555D02*
X5872801Y-15768603D01*
X5872801Y-15768603D02*
X5853753Y-15778127D01*
X6053753Y-15901936D02*
X6063277Y-15911460D01*
X6063277Y-15911460D02*
X6053753Y-15920984D01*
X6053753Y-15920984D02*
X6044229Y-15911460D01*
X6044229Y-15911460D02*
X6053753Y-15901936D01*
X6053753Y-15901936D02*
X6053753Y-15920984D01*
X6129943Y-15720984D02*
X6253753Y-15720984D01*
X6253753Y-15720984D02*
X6187086Y-15797174D01*
X6187086Y-15797174D02*
X6215658Y-15797174D01*
X6215658Y-15797174D02*
X6234705Y-15806698D01*
X6234705Y-15806698D02*
X6244229Y-15816222D01*
X6244229Y-15816222D02*
X6253753Y-15835269D01*
X6253753Y-15835269D02*
X6253753Y-15882888D01*
X6253753Y-15882888D02*
X6244229Y-15901936D01*
X6244229Y-15901936D02*
X6234705Y-15911460D01*
X6234705Y-15911460D02*
X6215658Y-15920984D01*
X6215658Y-15920984D02*
X6158515Y-15920984D01*
X6158515Y-15920984D02*
X6139467Y-15911460D01*
X6139467Y-15911460D02*
X6129943Y-15901936D01*
X6377562Y-15720984D02*
X6396610Y-15720984D01*
X6396610Y-15720984D02*
X6415658Y-15730508D01*
X6415658Y-15730508D02*
X6425182Y-15740031D01*
X6425182Y-15740031D02*
X6434705Y-15759079D01*
X6434705Y-15759079D02*
X6444229Y-15797174D01*
X6444229Y-15797174D02*
X6444229Y-15844793D01*
X6444229Y-15844793D02*
X6434705Y-15882888D01*
X6434705Y-15882888D02*
X6425182Y-15901936D01*
X6425182Y-15901936D02*
X6415658Y-15911460D01*
X6415658Y-15911460D02*
X6396610Y-15920984D01*
X6396610Y-15920984D02*
X6377562Y-15920984D01*
X6377562Y-15920984D02*
X6358515Y-15911460D01*
X6358515Y-15911460D02*
X6348991Y-15901936D01*
X6348991Y-15901936D02*
X6339467Y-15882888D01*
X6339467Y-15882888D02*
X6329943Y-15844793D01*
X6329943Y-15844793D02*
X6329943Y-15797174D01*
X6329943Y-15797174D02*
X6339467Y-15759079D01*
X6339467Y-15759079D02*
X6348991Y-15740031D01*
X6348991Y-15740031D02*
X6358515Y-15730508D01*
X6358515Y-15730508D02*
X6377562Y-15720984D01*
X6568039Y-15720984D02*
X6587086Y-15720984D01*
X6587086Y-15720984D02*
X6606134Y-15730508D01*
X6606134Y-15730508D02*
X6615658Y-15740031D01*
X6615658Y-15740031D02*
X6625182Y-15759079D01*
X6625182Y-15759079D02*
X6634705Y-15797174D01*
X6634705Y-15797174D02*
X6634705Y-15844793D01*
X6634705Y-15844793D02*
X6625182Y-15882888D01*
X6625182Y-15882888D02*
X6615658Y-15901936D01*
X6615658Y-15901936D02*
X6606134Y-15911460D01*
X6606134Y-15911460D02*
X6587086Y-15920984D01*
X6587086Y-15920984D02*
X6568039Y-15920984D01*
X6568039Y-15920984D02*
X6548991Y-15911460D01*
X6548991Y-15911460D02*
X6539467Y-15901936D01*
X6539467Y-15901936D02*
X6529943Y-15882888D01*
X6529943Y-15882888D02*
X6520420Y-15844793D01*
X6520420Y-15844793D02*
X6520420Y-15797174D01*
X6520420Y-15797174D02*
X6529943Y-15759079D01*
X6529943Y-15759079D02*
X6539467Y-15740031D01*
X6539467Y-15740031D02*
X6548991Y-15730508D01*
X6548991Y-15730508D02*
X6568039Y-15720984D01*
X6720420Y-15920984D02*
X6720420Y-15787650D01*
X6720420Y-15806698D02*
X6729943Y-15797174D01*
X6729943Y-15797174D02*
X6748991Y-15787650D01*
X6748991Y-15787650D02*
X6777563Y-15787650D01*
X6777563Y-15787650D02*
X6796610Y-15797174D01*
X6796610Y-15797174D02*
X6806134Y-15816222D01*
X6806134Y-15816222D02*
X6806134Y-15920984D01*
X6806134Y-15816222D02*
X6815658Y-15797174D01*
X6815658Y-15797174D02*
X6834705Y-15787650D01*
X6834705Y-15787650D02*
X6863277Y-15787650D01*
X6863277Y-15787650D02*
X6882324Y-15797174D01*
X6882324Y-15797174D02*
X6891848Y-15816222D01*
X6891848Y-15816222D02*
X6891848Y-15920984D01*
X6987086Y-15920984D02*
X6987086Y-15787650D01*
X6987086Y-15806698D02*
X6996610Y-15797174D01*
X6996610Y-15797174D02*
X7015658Y-15787650D01*
X7015658Y-15787650D02*
X7044229Y-15787650D01*
X7044229Y-15787650D02*
X7063277Y-15797174D01*
X7063277Y-15797174D02*
X7072801Y-15816222D01*
X7072801Y-15816222D02*
X7072801Y-15920984D01*
X7072801Y-15816222D02*
X7082324Y-15797174D01*
X7082324Y-15797174D02*
X7101372Y-15787650D01*
X7101372Y-15787650D02*
X7129943Y-15787650D01*
X7129943Y-15787650D02*
X7148991Y-15797174D01*
X7148991Y-15797174D02*
X7158515Y-15816222D01*
X7158515Y-15816222D02*
X7158515Y-15920984D01*
X7548991Y-15711460D02*
X7377563Y-15968603D01*
X7806134Y-15720984D02*
X7825182Y-15720984D01*
X7825182Y-15720984D02*
X7844229Y-15730508D01*
X7844229Y-15730508D02*
X7853753Y-15740031D01*
X7853753Y-15740031D02*
X7863277Y-15759079D01*
X7863277Y-15759079D02*
X7872801Y-15797174D01*
X7872801Y-15797174D02*
X7872801Y-15844793D01*
X7872801Y-15844793D02*
X7863277Y-15882888D01*
X7863277Y-15882888D02*
X7853753Y-15901936D01*
X7853753Y-15901936D02*
X7844229Y-15911460D01*
X7844229Y-15911460D02*
X7825182Y-15920984D01*
X7825182Y-15920984D02*
X7806134Y-15920984D01*
X7806134Y-15920984D02*
X7787086Y-15911460D01*
X7787086Y-15911460D02*
X7777563Y-15901936D01*
X7777563Y-15901936D02*
X7768039Y-15882888D01*
X7768039Y-15882888D02*
X7758515Y-15844793D01*
X7758515Y-15844793D02*
X7758515Y-15797174D01*
X7758515Y-15797174D02*
X7768039Y-15759079D01*
X7768039Y-15759079D02*
X7777563Y-15740031D01*
X7777563Y-15740031D02*
X7787086Y-15730508D01*
X7787086Y-15730508D02*
X7806134Y-15720984D01*
X7958515Y-15901936D02*
X7968039Y-15911460D01*
X7968039Y-15911460D02*
X7958515Y-15920984D01*
X7958515Y-15920984D02*
X7948991Y-15911460D01*
X7948991Y-15911460D02*
X7958515Y-15901936D01*
X7958515Y-15901936D02*
X7958515Y-15920984D01*
X8091848Y-15720984D02*
X8110896Y-15720984D01*
X8110896Y-15720984D02*
X8129944Y-15730508D01*
X8129944Y-15730508D02*
X8139467Y-15740031D01*
X8139467Y-15740031D02*
X8148991Y-15759079D01*
X8148991Y-15759079D02*
X8158515Y-15797174D01*
X8158515Y-15797174D02*
X8158515Y-15844793D01*
X8158515Y-15844793D02*
X8148991Y-15882888D01*
X8148991Y-15882888D02*
X8139467Y-15901936D01*
X8139467Y-15901936D02*
X8129944Y-15911460D01*
X8129944Y-15911460D02*
X8110896Y-15920984D01*
X8110896Y-15920984D02*
X8091848Y-15920984D01*
X8091848Y-15920984D02*
X8072801Y-15911460D01*
X8072801Y-15911460D02*
X8063277Y-15901936D01*
X8063277Y-15901936D02*
X8053753Y-15882888D01*
X8053753Y-15882888D02*
X8044229Y-15844793D01*
X8044229Y-15844793D02*
X8044229Y-15797174D01*
X8044229Y-15797174D02*
X8053753Y-15759079D01*
X8053753Y-15759079D02*
X8063277Y-15740031D01*
X8063277Y-15740031D02*
X8072801Y-15730508D01*
X8072801Y-15730508D02*
X8091848Y-15720984D01*
X8339467Y-15720984D02*
X8244229Y-15720984D01*
X8244229Y-15720984D02*
X8234706Y-15816222D01*
X8234706Y-15816222D02*
X8244229Y-15806698D01*
X8244229Y-15806698D02*
X8263277Y-15797174D01*
X8263277Y-15797174D02*
X8310896Y-15797174D01*
X8310896Y-15797174D02*
X8329944Y-15806698D01*
X8329944Y-15806698D02*
X8339467Y-15816222D01*
X8339467Y-15816222D02*
X8348991Y-15835269D01*
X8348991Y-15835269D02*
X8348991Y-15882888D01*
X8348991Y-15882888D02*
X8339467Y-15901936D01*
X8339467Y-15901936D02*
X8329944Y-15911460D01*
X8329944Y-15911460D02*
X8310896Y-15920984D01*
X8310896Y-15920984D02*
X8263277Y-15920984D01*
X8263277Y-15920984D02*
X8244229Y-15911460D01*
X8244229Y-15911460D02*
X8234706Y-15901936D01*
X8539468Y-15920984D02*
X8425182Y-15920984D01*
X8482325Y-15920984D02*
X8482325Y-15720984D01*
X8482325Y-15720984D02*
X8463277Y-15749555D01*
X8463277Y-15749555D02*
X8444229Y-15768603D01*
X8444229Y-15768603D02*
X8425182Y-15778127D01*
X8615658Y-15740031D02*
X8625182Y-15730508D01*
X8625182Y-15730508D02*
X8644229Y-15720984D01*
X8644229Y-15720984D02*
X8691849Y-15720984D01*
X8691849Y-15720984D02*
X8710896Y-15730508D01*
X8710896Y-15730508D02*
X8720420Y-15740031D01*
X8720420Y-15740031D02*
X8729944Y-15759079D01*
X8729944Y-15759079D02*
X8729944Y-15778127D01*
X8729944Y-15778127D02*
X8720420Y-15806698D01*
X8720420Y-15806698D02*
X8606134Y-15920984D01*
X8606134Y-15920984D02*
X8729944Y-15920984D01*
X8806134Y-15720984D02*
X8806134Y-15759079D01*
X8882325Y-15720984D02*
X8882325Y-15759079D01*
X9177563Y-15997174D02*
X9168039Y-15987650D01*
X9168039Y-15987650D02*
X9148991Y-15959079D01*
X9148991Y-15959079D02*
X9139468Y-15940031D01*
X9139468Y-15940031D02*
X9129944Y-15911460D01*
X9129944Y-15911460D02*
X9120420Y-15863841D01*
X9120420Y-15863841D02*
X9120420Y-15825746D01*
X9120420Y-15825746D02*
X9129944Y-15778127D01*
X9129944Y-15778127D02*
X9139468Y-15749555D01*
X9139468Y-15749555D02*
X9148991Y-15730508D01*
X9148991Y-15730508D02*
X9168039Y-15701936D01*
X9168039Y-15701936D02*
X9177563Y-15692412D01*
X9358515Y-15920984D02*
X9244230Y-15920984D01*
X9301372Y-15920984D02*
X9301372Y-15720984D01*
X9301372Y-15720984D02*
X9282325Y-15749555D01*
X9282325Y-15749555D02*
X9263277Y-15768603D01*
X9263277Y-15768603D02*
X9244230Y-15778127D01*
X9529944Y-15787650D02*
X9529944Y-15920984D01*
X9482325Y-15711460D02*
X9434706Y-15854317D01*
X9434706Y-15854317D02*
X9558515Y-15854317D01*
X9787087Y-15920984D02*
X9787087Y-15720984D01*
X9872801Y-15920984D02*
X9872801Y-15816222D01*
X9872801Y-15816222D02*
X9863277Y-15797174D01*
X9863277Y-15797174D02*
X9844230Y-15787650D01*
X9844230Y-15787650D02*
X9815658Y-15787650D01*
X9815658Y-15787650D02*
X9796611Y-15797174D01*
X9796611Y-15797174D02*
X9787087Y-15806698D01*
X9996611Y-15920984D02*
X9977563Y-15911460D01*
X9977563Y-15911460D02*
X9968039Y-15901936D01*
X9968039Y-15901936D02*
X9958515Y-15882888D01*
X9958515Y-15882888D02*
X9958515Y-15825746D01*
X9958515Y-15825746D02*
X9968039Y-15806698D01*
X9968039Y-15806698D02*
X9977563Y-15797174D01*
X9977563Y-15797174D02*
X9996611Y-15787650D01*
X9996611Y-15787650D02*
X10025182Y-15787650D01*
X10025182Y-15787650D02*
X10044230Y-15797174D01*
X10044230Y-15797174D02*
X10053753Y-15806698D01*
X10053753Y-15806698D02*
X10063277Y-15825746D01*
X10063277Y-15825746D02*
X10063277Y-15882888D01*
X10063277Y-15882888D02*
X10053753Y-15901936D01*
X10053753Y-15901936D02*
X10044230Y-15911460D01*
X10044230Y-15911460D02*
X10025182Y-15920984D01*
X10025182Y-15920984D02*
X9996611Y-15920984D01*
X10177563Y-15920984D02*
X10158515Y-15911460D01*
X10158515Y-15911460D02*
X10148992Y-15892412D01*
X10148992Y-15892412D02*
X10148992Y-15720984D01*
X10329944Y-15911460D02*
X10310896Y-15920984D01*
X10310896Y-15920984D02*
X10272801Y-15920984D01*
X10272801Y-15920984D02*
X10253753Y-15911460D01*
X10253753Y-15911460D02*
X10244230Y-15892412D01*
X10244230Y-15892412D02*
X10244230Y-15816222D01*
X10244230Y-15816222D02*
X10253753Y-15797174D01*
X10253753Y-15797174D02*
X10272801Y-15787650D01*
X10272801Y-15787650D02*
X10310896Y-15787650D01*
X10310896Y-15787650D02*
X10329944Y-15797174D01*
X10329944Y-15797174D02*
X10339468Y-15816222D01*
X10339468Y-15816222D02*
X10339468Y-15835269D01*
X10339468Y-15835269D02*
X10244230Y-15854317D01*
X10415658Y-15911460D02*
X10434706Y-15920984D01*
X10434706Y-15920984D02*
X10472801Y-15920984D01*
X10472801Y-15920984D02*
X10491849Y-15911460D01*
X10491849Y-15911460D02*
X10501373Y-15892412D01*
X10501373Y-15892412D02*
X10501373Y-15882888D01*
X10501373Y-15882888D02*
X10491849Y-15863841D01*
X10491849Y-15863841D02*
X10472801Y-15854317D01*
X10472801Y-15854317D02*
X10444230Y-15854317D01*
X10444230Y-15854317D02*
X10425182Y-15844793D01*
X10425182Y-15844793D02*
X10415658Y-15825746D01*
X10415658Y-15825746D02*
X10415658Y-15816222D01*
X10415658Y-15816222D02*
X10425182Y-15797174D01*
X10425182Y-15797174D02*
X10444230Y-15787650D01*
X10444230Y-15787650D02*
X10472801Y-15787650D01*
X10472801Y-15787650D02*
X10491849Y-15797174D01*
X10568039Y-15997174D02*
X10577563Y-15987650D01*
X10577563Y-15987650D02*
X10596611Y-15959079D01*
X10596611Y-15959079D02*
X10606134Y-15940031D01*
X10606134Y-15940031D02*
X10615658Y-15911460D01*
X10615658Y-15911460D02*
X10625182Y-15863841D01*
X10625182Y-15863841D02*
X10625182Y-15825746D01*
X10625182Y-15825746D02*
X10615658Y-15778127D01*
X10615658Y-15778127D02*
X10606134Y-15749555D01*
X10606134Y-15749555D02*
X10596611Y-15730508D01*
X10596611Y-15730508D02*
X10577563Y-15701936D01*
X10577563Y-15701936D02*
X10568039Y-15692412D01*
D15*
X5532500Y-16163500D02*
X5602500Y-16093500D01*
X5532500Y-16023500D01*
X5462500Y-16093500D01*
X5532500Y-16163500D01*
D11*
X5968039Y-16184984D02*
X5853753Y-16184984D01*
X5910896Y-16184984D02*
X5910896Y-15984984D01*
X5910896Y-15984984D02*
X5891848Y-16013555D01*
X5891848Y-16013555D02*
X5872801Y-16032603D01*
X5872801Y-16032603D02*
X5853753Y-16042127D01*
X6053753Y-16165936D02*
X6063277Y-16175460D01*
X6063277Y-16175460D02*
X6053753Y-16184984D01*
X6053753Y-16184984D02*
X6044229Y-16175460D01*
X6044229Y-16175460D02*
X6053753Y-16165936D01*
X6053753Y-16165936D02*
X6053753Y-16184984D01*
X6234705Y-16051650D02*
X6234705Y-16184984D01*
X6187086Y-15975460D02*
X6139467Y-16118317D01*
X6139467Y-16118317D02*
X6263277Y-16118317D01*
X6377562Y-15984984D02*
X6396610Y-15984984D01*
X6396610Y-15984984D02*
X6415658Y-15994508D01*
X6415658Y-15994508D02*
X6425182Y-16004031D01*
X6425182Y-16004031D02*
X6434705Y-16023079D01*
X6434705Y-16023079D02*
X6444229Y-16061174D01*
X6444229Y-16061174D02*
X6444229Y-16108793D01*
X6444229Y-16108793D02*
X6434705Y-16146888D01*
X6434705Y-16146888D02*
X6425182Y-16165936D01*
X6425182Y-16165936D02*
X6415658Y-16175460D01*
X6415658Y-16175460D02*
X6396610Y-16184984D01*
X6396610Y-16184984D02*
X6377562Y-16184984D01*
X6377562Y-16184984D02*
X6358515Y-16175460D01*
X6358515Y-16175460D02*
X6348991Y-16165936D01*
X6348991Y-16165936D02*
X6339467Y-16146888D01*
X6339467Y-16146888D02*
X6329943Y-16108793D01*
X6329943Y-16108793D02*
X6329943Y-16061174D01*
X6329943Y-16061174D02*
X6339467Y-16023079D01*
X6339467Y-16023079D02*
X6348991Y-16004031D01*
X6348991Y-16004031D02*
X6358515Y-15994508D01*
X6358515Y-15994508D02*
X6377562Y-15984984D01*
X6568039Y-15984984D02*
X6587086Y-15984984D01*
X6587086Y-15984984D02*
X6606134Y-15994508D01*
X6606134Y-15994508D02*
X6615658Y-16004031D01*
X6615658Y-16004031D02*
X6625182Y-16023079D01*
X6625182Y-16023079D02*
X6634705Y-16061174D01*
X6634705Y-16061174D02*
X6634705Y-16108793D01*
X6634705Y-16108793D02*
X6625182Y-16146888D01*
X6625182Y-16146888D02*
X6615658Y-16165936D01*
X6615658Y-16165936D02*
X6606134Y-16175460D01*
X6606134Y-16175460D02*
X6587086Y-16184984D01*
X6587086Y-16184984D02*
X6568039Y-16184984D01*
X6568039Y-16184984D02*
X6548991Y-16175460D01*
X6548991Y-16175460D02*
X6539467Y-16165936D01*
X6539467Y-16165936D02*
X6529943Y-16146888D01*
X6529943Y-16146888D02*
X6520420Y-16108793D01*
X6520420Y-16108793D02*
X6520420Y-16061174D01*
X6520420Y-16061174D02*
X6529943Y-16023079D01*
X6529943Y-16023079D02*
X6539467Y-16004031D01*
X6539467Y-16004031D02*
X6548991Y-15994508D01*
X6548991Y-15994508D02*
X6568039Y-15984984D01*
X6720420Y-16184984D02*
X6720420Y-16051650D01*
X6720420Y-16070698D02*
X6729943Y-16061174D01*
X6729943Y-16061174D02*
X6748991Y-16051650D01*
X6748991Y-16051650D02*
X6777563Y-16051650D01*
X6777563Y-16051650D02*
X6796610Y-16061174D01*
X6796610Y-16061174D02*
X6806134Y-16080222D01*
X6806134Y-16080222D02*
X6806134Y-16184984D01*
X6806134Y-16080222D02*
X6815658Y-16061174D01*
X6815658Y-16061174D02*
X6834705Y-16051650D01*
X6834705Y-16051650D02*
X6863277Y-16051650D01*
X6863277Y-16051650D02*
X6882324Y-16061174D01*
X6882324Y-16061174D02*
X6891848Y-16080222D01*
X6891848Y-16080222D02*
X6891848Y-16184984D01*
X6987086Y-16184984D02*
X6987086Y-16051650D01*
X6987086Y-16070698D02*
X6996610Y-16061174D01*
X6996610Y-16061174D02*
X7015658Y-16051650D01*
X7015658Y-16051650D02*
X7044229Y-16051650D01*
X7044229Y-16051650D02*
X7063277Y-16061174D01*
X7063277Y-16061174D02*
X7072801Y-16080222D01*
X7072801Y-16080222D02*
X7072801Y-16184984D01*
X7072801Y-16080222D02*
X7082324Y-16061174D01*
X7082324Y-16061174D02*
X7101372Y-16051650D01*
X7101372Y-16051650D02*
X7129943Y-16051650D01*
X7129943Y-16051650D02*
X7148991Y-16061174D01*
X7148991Y-16061174D02*
X7158515Y-16080222D01*
X7158515Y-16080222D02*
X7158515Y-16184984D01*
X7548991Y-15975460D02*
X7377563Y-16232603D01*
X7806134Y-15984984D02*
X7825182Y-15984984D01*
X7825182Y-15984984D02*
X7844229Y-15994508D01*
X7844229Y-15994508D02*
X7853753Y-16004031D01*
X7853753Y-16004031D02*
X7863277Y-16023079D01*
X7863277Y-16023079D02*
X7872801Y-16061174D01*
X7872801Y-16061174D02*
X7872801Y-16108793D01*
X7872801Y-16108793D02*
X7863277Y-16146888D01*
X7863277Y-16146888D02*
X7853753Y-16165936D01*
X7853753Y-16165936D02*
X7844229Y-16175460D01*
X7844229Y-16175460D02*
X7825182Y-16184984D01*
X7825182Y-16184984D02*
X7806134Y-16184984D01*
X7806134Y-16184984D02*
X7787086Y-16175460D01*
X7787086Y-16175460D02*
X7777563Y-16165936D01*
X7777563Y-16165936D02*
X7768039Y-16146888D01*
X7768039Y-16146888D02*
X7758515Y-16108793D01*
X7758515Y-16108793D02*
X7758515Y-16061174D01*
X7758515Y-16061174D02*
X7768039Y-16023079D01*
X7768039Y-16023079D02*
X7777563Y-16004031D01*
X7777563Y-16004031D02*
X7787086Y-15994508D01*
X7787086Y-15994508D02*
X7806134Y-15984984D01*
X7958515Y-16165936D02*
X7968039Y-16175460D01*
X7968039Y-16175460D02*
X7958515Y-16184984D01*
X7958515Y-16184984D02*
X7948991Y-16175460D01*
X7948991Y-16175460D02*
X7958515Y-16165936D01*
X7958515Y-16165936D02*
X7958515Y-16184984D01*
X8091848Y-15984984D02*
X8110896Y-15984984D01*
X8110896Y-15984984D02*
X8129944Y-15994508D01*
X8129944Y-15994508D02*
X8139467Y-16004031D01*
X8139467Y-16004031D02*
X8148991Y-16023079D01*
X8148991Y-16023079D02*
X8158515Y-16061174D01*
X8158515Y-16061174D02*
X8158515Y-16108793D01*
X8158515Y-16108793D02*
X8148991Y-16146888D01*
X8148991Y-16146888D02*
X8139467Y-16165936D01*
X8139467Y-16165936D02*
X8129944Y-16175460D01*
X8129944Y-16175460D02*
X8110896Y-16184984D01*
X8110896Y-16184984D02*
X8091848Y-16184984D01*
X8091848Y-16184984D02*
X8072801Y-16175460D01*
X8072801Y-16175460D02*
X8063277Y-16165936D01*
X8063277Y-16165936D02*
X8053753Y-16146888D01*
X8053753Y-16146888D02*
X8044229Y-16108793D01*
X8044229Y-16108793D02*
X8044229Y-16061174D01*
X8044229Y-16061174D02*
X8053753Y-16023079D01*
X8053753Y-16023079D02*
X8063277Y-16004031D01*
X8063277Y-16004031D02*
X8072801Y-15994508D01*
X8072801Y-15994508D02*
X8091848Y-15984984D01*
X8339467Y-15984984D02*
X8244229Y-15984984D01*
X8244229Y-15984984D02*
X8234706Y-16080222D01*
X8234706Y-16080222D02*
X8244229Y-16070698D01*
X8244229Y-16070698D02*
X8263277Y-16061174D01*
X8263277Y-16061174D02*
X8310896Y-16061174D01*
X8310896Y-16061174D02*
X8329944Y-16070698D01*
X8329944Y-16070698D02*
X8339467Y-16080222D01*
X8339467Y-16080222D02*
X8348991Y-16099269D01*
X8348991Y-16099269D02*
X8348991Y-16146888D01*
X8348991Y-16146888D02*
X8339467Y-16165936D01*
X8339467Y-16165936D02*
X8329944Y-16175460D01*
X8329944Y-16175460D02*
X8310896Y-16184984D01*
X8310896Y-16184984D02*
X8263277Y-16184984D01*
X8263277Y-16184984D02*
X8244229Y-16175460D01*
X8244229Y-16175460D02*
X8234706Y-16165936D01*
X8529944Y-15984984D02*
X8434706Y-15984984D01*
X8434706Y-15984984D02*
X8425182Y-16080222D01*
X8425182Y-16080222D02*
X8434706Y-16070698D01*
X8434706Y-16070698D02*
X8453753Y-16061174D01*
X8453753Y-16061174D02*
X8501372Y-16061174D01*
X8501372Y-16061174D02*
X8520420Y-16070698D01*
X8520420Y-16070698D02*
X8529944Y-16080222D01*
X8529944Y-16080222D02*
X8539468Y-16099269D01*
X8539468Y-16099269D02*
X8539468Y-16146888D01*
X8539468Y-16146888D02*
X8529944Y-16165936D01*
X8529944Y-16165936D02*
X8520420Y-16175460D01*
X8520420Y-16175460D02*
X8501372Y-16184984D01*
X8501372Y-16184984D02*
X8453753Y-16184984D01*
X8453753Y-16184984D02*
X8434706Y-16175460D01*
X8434706Y-16175460D02*
X8425182Y-16165936D01*
X8729944Y-16184984D02*
X8615658Y-16184984D01*
X8672801Y-16184984D02*
X8672801Y-15984984D01*
X8672801Y-15984984D02*
X8653753Y-16013555D01*
X8653753Y-16013555D02*
X8634706Y-16032603D01*
X8634706Y-16032603D02*
X8615658Y-16042127D01*
X8806134Y-15984984D02*
X8806134Y-16023079D01*
X8882325Y-15984984D02*
X8882325Y-16023079D01*
X9177563Y-16261174D02*
X9168039Y-16251650D01*
X9168039Y-16251650D02*
X9148991Y-16223079D01*
X9148991Y-16223079D02*
X9139468Y-16204031D01*
X9139468Y-16204031D02*
X9129944Y-16175460D01*
X9129944Y-16175460D02*
X9120420Y-16127841D01*
X9120420Y-16127841D02*
X9120420Y-16089746D01*
X9120420Y-16089746D02*
X9129944Y-16042127D01*
X9129944Y-16042127D02*
X9139468Y-16013555D01*
X9139468Y-16013555D02*
X9148991Y-15994508D01*
X9148991Y-15994508D02*
X9168039Y-15965936D01*
X9168039Y-15965936D02*
X9177563Y-15956412D01*
X9244230Y-16004031D02*
X9253753Y-15994508D01*
X9253753Y-15994508D02*
X9272801Y-15984984D01*
X9272801Y-15984984D02*
X9320420Y-15984984D01*
X9320420Y-15984984D02*
X9339468Y-15994508D01*
X9339468Y-15994508D02*
X9348991Y-16004031D01*
X9348991Y-16004031D02*
X9358515Y-16023079D01*
X9358515Y-16023079D02*
X9358515Y-16042127D01*
X9358515Y-16042127D02*
X9348991Y-16070698D01*
X9348991Y-16070698D02*
X9234706Y-16184984D01*
X9234706Y-16184984D02*
X9358515Y-16184984D01*
X9529944Y-16051650D02*
X9529944Y-16184984D01*
X9482325Y-15975460D02*
X9434706Y-16118317D01*
X9434706Y-16118317D02*
X9558515Y-16118317D01*
X9787087Y-16184984D02*
X9787087Y-15984984D01*
X9872801Y-16184984D02*
X9872801Y-16080222D01*
X9872801Y-16080222D02*
X9863277Y-16061174D01*
X9863277Y-16061174D02*
X9844230Y-16051650D01*
X9844230Y-16051650D02*
X9815658Y-16051650D01*
X9815658Y-16051650D02*
X9796611Y-16061174D01*
X9796611Y-16061174D02*
X9787087Y-16070698D01*
X9996611Y-16184984D02*
X9977563Y-16175460D01*
X9977563Y-16175460D02*
X9968039Y-16165936D01*
X9968039Y-16165936D02*
X9958515Y-16146888D01*
X9958515Y-16146888D02*
X9958515Y-16089746D01*
X9958515Y-16089746D02*
X9968039Y-16070698D01*
X9968039Y-16070698D02*
X9977563Y-16061174D01*
X9977563Y-16061174D02*
X9996611Y-16051650D01*
X9996611Y-16051650D02*
X10025182Y-16051650D01*
X10025182Y-16051650D02*
X10044230Y-16061174D01*
X10044230Y-16061174D02*
X10053753Y-16070698D01*
X10053753Y-16070698D02*
X10063277Y-16089746D01*
X10063277Y-16089746D02*
X10063277Y-16146888D01*
X10063277Y-16146888D02*
X10053753Y-16165936D01*
X10053753Y-16165936D02*
X10044230Y-16175460D01*
X10044230Y-16175460D02*
X10025182Y-16184984D01*
X10025182Y-16184984D02*
X9996611Y-16184984D01*
X10177563Y-16184984D02*
X10158515Y-16175460D01*
X10158515Y-16175460D02*
X10148992Y-16156412D01*
X10148992Y-16156412D02*
X10148992Y-15984984D01*
X10329944Y-16175460D02*
X10310896Y-16184984D01*
X10310896Y-16184984D02*
X10272801Y-16184984D01*
X10272801Y-16184984D02*
X10253753Y-16175460D01*
X10253753Y-16175460D02*
X10244230Y-16156412D01*
X10244230Y-16156412D02*
X10244230Y-16080222D01*
X10244230Y-16080222D02*
X10253753Y-16061174D01*
X10253753Y-16061174D02*
X10272801Y-16051650D01*
X10272801Y-16051650D02*
X10310896Y-16051650D01*
X10310896Y-16051650D02*
X10329944Y-16061174D01*
X10329944Y-16061174D02*
X10339468Y-16080222D01*
X10339468Y-16080222D02*
X10339468Y-16099269D01*
X10339468Y-16099269D02*
X10244230Y-16118317D01*
X10415658Y-16175460D02*
X10434706Y-16184984D01*
X10434706Y-16184984D02*
X10472801Y-16184984D01*
X10472801Y-16184984D02*
X10491849Y-16175460D01*
X10491849Y-16175460D02*
X10501373Y-16156412D01*
X10501373Y-16156412D02*
X10501373Y-16146888D01*
X10501373Y-16146888D02*
X10491849Y-16127841D01*
X10491849Y-16127841D02*
X10472801Y-16118317D01*
X10472801Y-16118317D02*
X10444230Y-16118317D01*
X10444230Y-16118317D02*
X10425182Y-16108793D01*
X10425182Y-16108793D02*
X10415658Y-16089746D01*
X10415658Y-16089746D02*
X10415658Y-16080222D01*
X10415658Y-16080222D02*
X10425182Y-16061174D01*
X10425182Y-16061174D02*
X10444230Y-16051650D01*
X10444230Y-16051650D02*
X10472801Y-16051650D01*
X10472801Y-16051650D02*
X10491849Y-16061174D01*
X10568039Y-16261174D02*
X10577563Y-16251650D01*
X10577563Y-16251650D02*
X10596611Y-16223079D01*
X10596611Y-16223079D02*
X10606134Y-16204031D01*
X10606134Y-16204031D02*
X10615658Y-16175460D01*
X10615658Y-16175460D02*
X10625182Y-16127841D01*
X10625182Y-16127841D02*
X10625182Y-16089746D01*
X10625182Y-16089746D02*
X10615658Y-16042127D01*
X10615658Y-16042127D02*
X10606134Y-16013555D01*
X10606134Y-16013555D02*
X10596611Y-15994508D01*
X10596611Y-15994508D02*
X10577563Y-15965936D01*
X10577563Y-15965936D02*
X10568039Y-15956412D01*
X5402500Y-16257500D02*
X5602500Y-16457500D01*
X5602500Y-16257500D02*
X5402500Y-16457500D01*
X5602500Y-16357500D02*
G75*
G02*
X5402500Y-16357500I-100000J0D01*
G01*
X5402500Y-16357500D02*
G75*
G02*
X5602500Y-16357500I100000J0D01*
G01*
X5844229Y-16248984D02*
X5968039Y-16248984D01*
X5968039Y-16248984D02*
X5901372Y-16325174D01*
X5901372Y-16325174D02*
X5929943Y-16325174D01*
X5929943Y-16325174D02*
X5948991Y-16334698D01*
X5948991Y-16334698D02*
X5958515Y-16344222D01*
X5958515Y-16344222D02*
X5968039Y-16363269D01*
X5968039Y-16363269D02*
X5968039Y-16410888D01*
X5968039Y-16410888D02*
X5958515Y-16429936D01*
X5958515Y-16429936D02*
X5948991Y-16439460D01*
X5948991Y-16439460D02*
X5929943Y-16448984D01*
X5929943Y-16448984D02*
X5872801Y-16448984D01*
X5872801Y-16448984D02*
X5853753Y-16439460D01*
X5853753Y-16439460D02*
X5844229Y-16429936D01*
X6053753Y-16429936D02*
X6063277Y-16439460D01*
X6063277Y-16439460D02*
X6053753Y-16448984D01*
X6053753Y-16448984D02*
X6044229Y-16439460D01*
X6044229Y-16439460D02*
X6053753Y-16429936D01*
X6053753Y-16429936D02*
X6053753Y-16448984D01*
X6244229Y-16248984D02*
X6148991Y-16248984D01*
X6148991Y-16248984D02*
X6139467Y-16344222D01*
X6139467Y-16344222D02*
X6148991Y-16334698D01*
X6148991Y-16334698D02*
X6168039Y-16325174D01*
X6168039Y-16325174D02*
X6215658Y-16325174D01*
X6215658Y-16325174D02*
X6234705Y-16334698D01*
X6234705Y-16334698D02*
X6244229Y-16344222D01*
X6244229Y-16344222D02*
X6253753Y-16363269D01*
X6253753Y-16363269D02*
X6253753Y-16410888D01*
X6253753Y-16410888D02*
X6244229Y-16429936D01*
X6244229Y-16429936D02*
X6234705Y-16439460D01*
X6234705Y-16439460D02*
X6215658Y-16448984D01*
X6215658Y-16448984D02*
X6168039Y-16448984D01*
X6168039Y-16448984D02*
X6148991Y-16439460D01*
X6148991Y-16439460D02*
X6139467Y-16429936D01*
X6377562Y-16248984D02*
X6396610Y-16248984D01*
X6396610Y-16248984D02*
X6415658Y-16258508D01*
X6415658Y-16258508D02*
X6425182Y-16268031D01*
X6425182Y-16268031D02*
X6434705Y-16287079D01*
X6434705Y-16287079D02*
X6444229Y-16325174D01*
X6444229Y-16325174D02*
X6444229Y-16372793D01*
X6444229Y-16372793D02*
X6434705Y-16410888D01*
X6434705Y-16410888D02*
X6425182Y-16429936D01*
X6425182Y-16429936D02*
X6415658Y-16439460D01*
X6415658Y-16439460D02*
X6396610Y-16448984D01*
X6396610Y-16448984D02*
X6377562Y-16448984D01*
X6377562Y-16448984D02*
X6358515Y-16439460D01*
X6358515Y-16439460D02*
X6348991Y-16429936D01*
X6348991Y-16429936D02*
X6339467Y-16410888D01*
X6339467Y-16410888D02*
X6329943Y-16372793D01*
X6329943Y-16372793D02*
X6329943Y-16325174D01*
X6329943Y-16325174D02*
X6339467Y-16287079D01*
X6339467Y-16287079D02*
X6348991Y-16268031D01*
X6348991Y-16268031D02*
X6358515Y-16258508D01*
X6358515Y-16258508D02*
X6377562Y-16248984D01*
X6568039Y-16248984D02*
X6587086Y-16248984D01*
X6587086Y-16248984D02*
X6606134Y-16258508D01*
X6606134Y-16258508D02*
X6615658Y-16268031D01*
X6615658Y-16268031D02*
X6625182Y-16287079D01*
X6625182Y-16287079D02*
X6634705Y-16325174D01*
X6634705Y-16325174D02*
X6634705Y-16372793D01*
X6634705Y-16372793D02*
X6625182Y-16410888D01*
X6625182Y-16410888D02*
X6615658Y-16429936D01*
X6615658Y-16429936D02*
X6606134Y-16439460D01*
X6606134Y-16439460D02*
X6587086Y-16448984D01*
X6587086Y-16448984D02*
X6568039Y-16448984D01*
X6568039Y-16448984D02*
X6548991Y-16439460D01*
X6548991Y-16439460D02*
X6539467Y-16429936D01*
X6539467Y-16429936D02*
X6529943Y-16410888D01*
X6529943Y-16410888D02*
X6520420Y-16372793D01*
X6520420Y-16372793D02*
X6520420Y-16325174D01*
X6520420Y-16325174D02*
X6529943Y-16287079D01*
X6529943Y-16287079D02*
X6539467Y-16268031D01*
X6539467Y-16268031D02*
X6548991Y-16258508D01*
X6548991Y-16258508D02*
X6568039Y-16248984D01*
X6720420Y-16448984D02*
X6720420Y-16315650D01*
X6720420Y-16334698D02*
X6729943Y-16325174D01*
X6729943Y-16325174D02*
X6748991Y-16315650D01*
X6748991Y-16315650D02*
X6777563Y-16315650D01*
X6777563Y-16315650D02*
X6796610Y-16325174D01*
X6796610Y-16325174D02*
X6806134Y-16344222D01*
X6806134Y-16344222D02*
X6806134Y-16448984D01*
X6806134Y-16344222D02*
X6815658Y-16325174D01*
X6815658Y-16325174D02*
X6834705Y-16315650D01*
X6834705Y-16315650D02*
X6863277Y-16315650D01*
X6863277Y-16315650D02*
X6882324Y-16325174D01*
X6882324Y-16325174D02*
X6891848Y-16344222D01*
X6891848Y-16344222D02*
X6891848Y-16448984D01*
X6987086Y-16448984D02*
X6987086Y-16315650D01*
X6987086Y-16334698D02*
X6996610Y-16325174D01*
X6996610Y-16325174D02*
X7015658Y-16315650D01*
X7015658Y-16315650D02*
X7044229Y-16315650D01*
X7044229Y-16315650D02*
X7063277Y-16325174D01*
X7063277Y-16325174D02*
X7072801Y-16344222D01*
X7072801Y-16344222D02*
X7072801Y-16448984D01*
X7072801Y-16344222D02*
X7082324Y-16325174D01*
X7082324Y-16325174D02*
X7101372Y-16315650D01*
X7101372Y-16315650D02*
X7129943Y-16315650D01*
X7129943Y-16315650D02*
X7148991Y-16325174D01*
X7148991Y-16325174D02*
X7158515Y-16344222D01*
X7158515Y-16344222D02*
X7158515Y-16448984D01*
X7548991Y-16239460D02*
X7377563Y-16496603D01*
X7806134Y-16248984D02*
X7825182Y-16248984D01*
X7825182Y-16248984D02*
X7844229Y-16258508D01*
X7844229Y-16258508D02*
X7853753Y-16268031D01*
X7853753Y-16268031D02*
X7863277Y-16287079D01*
X7863277Y-16287079D02*
X7872801Y-16325174D01*
X7872801Y-16325174D02*
X7872801Y-16372793D01*
X7872801Y-16372793D02*
X7863277Y-16410888D01*
X7863277Y-16410888D02*
X7853753Y-16429936D01*
X7853753Y-16429936D02*
X7844229Y-16439460D01*
X7844229Y-16439460D02*
X7825182Y-16448984D01*
X7825182Y-16448984D02*
X7806134Y-16448984D01*
X7806134Y-16448984D02*
X7787086Y-16439460D01*
X7787086Y-16439460D02*
X7777563Y-16429936D01*
X7777563Y-16429936D02*
X7768039Y-16410888D01*
X7768039Y-16410888D02*
X7758515Y-16372793D01*
X7758515Y-16372793D02*
X7758515Y-16325174D01*
X7758515Y-16325174D02*
X7768039Y-16287079D01*
X7768039Y-16287079D02*
X7777563Y-16268031D01*
X7777563Y-16268031D02*
X7787086Y-16258508D01*
X7787086Y-16258508D02*
X7806134Y-16248984D01*
X7958515Y-16429936D02*
X7968039Y-16439460D01*
X7968039Y-16439460D02*
X7958515Y-16448984D01*
X7958515Y-16448984D02*
X7948991Y-16439460D01*
X7948991Y-16439460D02*
X7958515Y-16429936D01*
X7958515Y-16429936D02*
X7958515Y-16448984D01*
X8158515Y-16448984D02*
X8044229Y-16448984D01*
X8101372Y-16448984D02*
X8101372Y-16248984D01*
X8101372Y-16248984D02*
X8082325Y-16277555D01*
X8082325Y-16277555D02*
X8063277Y-16296603D01*
X8063277Y-16296603D02*
X8044229Y-16306127D01*
X8225182Y-16248984D02*
X8348991Y-16248984D01*
X8348991Y-16248984D02*
X8282325Y-16325174D01*
X8282325Y-16325174D02*
X8310896Y-16325174D01*
X8310896Y-16325174D02*
X8329944Y-16334698D01*
X8329944Y-16334698D02*
X8339467Y-16344222D01*
X8339467Y-16344222D02*
X8348991Y-16363269D01*
X8348991Y-16363269D02*
X8348991Y-16410888D01*
X8348991Y-16410888D02*
X8339467Y-16429936D01*
X8339467Y-16429936D02*
X8329944Y-16439460D01*
X8329944Y-16439460D02*
X8310896Y-16448984D01*
X8310896Y-16448984D02*
X8253753Y-16448984D01*
X8253753Y-16448984D02*
X8234706Y-16439460D01*
X8234706Y-16439460D02*
X8225182Y-16429936D01*
X8415658Y-16248984D02*
X8548991Y-16248984D01*
X8548991Y-16248984D02*
X8463277Y-16448984D01*
X8653753Y-16334698D02*
X8634706Y-16325174D01*
X8634706Y-16325174D02*
X8625182Y-16315650D01*
X8625182Y-16315650D02*
X8615658Y-16296603D01*
X8615658Y-16296603D02*
X8615658Y-16287079D01*
X8615658Y-16287079D02*
X8625182Y-16268031D01*
X8625182Y-16268031D02*
X8634706Y-16258508D01*
X8634706Y-16258508D02*
X8653753Y-16248984D01*
X8653753Y-16248984D02*
X8691849Y-16248984D01*
X8691849Y-16248984D02*
X8710896Y-16258508D01*
X8710896Y-16258508D02*
X8720420Y-16268031D01*
X8720420Y-16268031D02*
X8729944Y-16287079D01*
X8729944Y-16287079D02*
X8729944Y-16296603D01*
X8729944Y-16296603D02*
X8720420Y-16315650D01*
X8720420Y-16315650D02*
X8710896Y-16325174D01*
X8710896Y-16325174D02*
X8691849Y-16334698D01*
X8691849Y-16334698D02*
X8653753Y-16334698D01*
X8653753Y-16334698D02*
X8634706Y-16344222D01*
X8634706Y-16344222D02*
X8625182Y-16353746D01*
X8625182Y-16353746D02*
X8615658Y-16372793D01*
X8615658Y-16372793D02*
X8615658Y-16410888D01*
X8615658Y-16410888D02*
X8625182Y-16429936D01*
X8625182Y-16429936D02*
X8634706Y-16439460D01*
X8634706Y-16439460D02*
X8653753Y-16448984D01*
X8653753Y-16448984D02*
X8691849Y-16448984D01*
X8691849Y-16448984D02*
X8710896Y-16439460D01*
X8710896Y-16439460D02*
X8720420Y-16429936D01*
X8720420Y-16429936D02*
X8729944Y-16410888D01*
X8729944Y-16410888D02*
X8729944Y-16372793D01*
X8729944Y-16372793D02*
X8720420Y-16353746D01*
X8720420Y-16353746D02*
X8710896Y-16344222D01*
X8710896Y-16344222D02*
X8691849Y-16334698D01*
X8806134Y-16248984D02*
X8806134Y-16287079D01*
X8882325Y-16248984D02*
X8882325Y-16287079D01*
X9177563Y-16525174D02*
X9168039Y-16515650D01*
X9168039Y-16515650D02*
X9148991Y-16487079D01*
X9148991Y-16487079D02*
X9139468Y-16468031D01*
X9139468Y-16468031D02*
X9129944Y-16439460D01*
X9129944Y-16439460D02*
X9120420Y-16391841D01*
X9120420Y-16391841D02*
X9120420Y-16353746D01*
X9120420Y-16353746D02*
X9129944Y-16306127D01*
X9129944Y-16306127D02*
X9139468Y-16277555D01*
X9139468Y-16277555D02*
X9148991Y-16258508D01*
X9148991Y-16258508D02*
X9168039Y-16229936D01*
X9168039Y-16229936D02*
X9177563Y-16220412D01*
X9244230Y-16268031D02*
X9253753Y-16258508D01*
X9253753Y-16258508D02*
X9272801Y-16248984D01*
X9272801Y-16248984D02*
X9320420Y-16248984D01*
X9320420Y-16248984D02*
X9339468Y-16258508D01*
X9339468Y-16258508D02*
X9348991Y-16268031D01*
X9348991Y-16268031D02*
X9358515Y-16287079D01*
X9358515Y-16287079D02*
X9358515Y-16306127D01*
X9358515Y-16306127D02*
X9348991Y-16334698D01*
X9348991Y-16334698D02*
X9234706Y-16448984D01*
X9234706Y-16448984D02*
X9358515Y-16448984D01*
X9596611Y-16448984D02*
X9596611Y-16248984D01*
X9682325Y-16448984D02*
X9682325Y-16344222D01*
X9682325Y-16344222D02*
X9672801Y-16325174D01*
X9672801Y-16325174D02*
X9653753Y-16315650D01*
X9653753Y-16315650D02*
X9625182Y-16315650D01*
X9625182Y-16315650D02*
X9606134Y-16325174D01*
X9606134Y-16325174D02*
X9596611Y-16334698D01*
X9806134Y-16448984D02*
X9787087Y-16439460D01*
X9787087Y-16439460D02*
X9777563Y-16429936D01*
X9777563Y-16429936D02*
X9768039Y-16410888D01*
X9768039Y-16410888D02*
X9768039Y-16353746D01*
X9768039Y-16353746D02*
X9777563Y-16334698D01*
X9777563Y-16334698D02*
X9787087Y-16325174D01*
X9787087Y-16325174D02*
X9806134Y-16315650D01*
X9806134Y-16315650D02*
X9834706Y-16315650D01*
X9834706Y-16315650D02*
X9853753Y-16325174D01*
X9853753Y-16325174D02*
X9863277Y-16334698D01*
X9863277Y-16334698D02*
X9872801Y-16353746D01*
X9872801Y-16353746D02*
X9872801Y-16410888D01*
X9872801Y-16410888D02*
X9863277Y-16429936D01*
X9863277Y-16429936D02*
X9853753Y-16439460D01*
X9853753Y-16439460D02*
X9834706Y-16448984D01*
X9834706Y-16448984D02*
X9806134Y-16448984D01*
X9987087Y-16448984D02*
X9968039Y-16439460D01*
X9968039Y-16439460D02*
X9958515Y-16420412D01*
X9958515Y-16420412D02*
X9958515Y-16248984D01*
X10139468Y-16439460D02*
X10120420Y-16448984D01*
X10120420Y-16448984D02*
X10082325Y-16448984D01*
X10082325Y-16448984D02*
X10063277Y-16439460D01*
X10063277Y-16439460D02*
X10053753Y-16420412D01*
X10053753Y-16420412D02*
X10053753Y-16344222D01*
X10053753Y-16344222D02*
X10063277Y-16325174D01*
X10063277Y-16325174D02*
X10082325Y-16315650D01*
X10082325Y-16315650D02*
X10120420Y-16315650D01*
X10120420Y-16315650D02*
X10139468Y-16325174D01*
X10139468Y-16325174D02*
X10148992Y-16344222D01*
X10148992Y-16344222D02*
X10148992Y-16363269D01*
X10148992Y-16363269D02*
X10053753Y-16382317D01*
X10225182Y-16439460D02*
X10244230Y-16448984D01*
X10244230Y-16448984D02*
X10282325Y-16448984D01*
X10282325Y-16448984D02*
X10301373Y-16439460D01*
X10301373Y-16439460D02*
X10310896Y-16420412D01*
X10310896Y-16420412D02*
X10310896Y-16410888D01*
X10310896Y-16410888D02*
X10301373Y-16391841D01*
X10301373Y-16391841D02*
X10282325Y-16382317D01*
X10282325Y-16382317D02*
X10253753Y-16382317D01*
X10253753Y-16382317D02*
X10234706Y-16372793D01*
X10234706Y-16372793D02*
X10225182Y-16353746D01*
X10225182Y-16353746D02*
X10225182Y-16344222D01*
X10225182Y-16344222D02*
X10234706Y-16325174D01*
X10234706Y-16325174D02*
X10253753Y-16315650D01*
X10253753Y-16315650D02*
X10282325Y-16315650D01*
X10282325Y-16315650D02*
X10301373Y-16325174D01*
X10377563Y-16525174D02*
X10387087Y-16515650D01*
X10387087Y-16515650D02*
X10406134Y-16487079D01*
X10406134Y-16487079D02*
X10415658Y-16468031D01*
X10415658Y-16468031D02*
X10425182Y-16439460D01*
X10425182Y-16439460D02*
X10434706Y-16391841D01*
X10434706Y-16391841D02*
X10434706Y-16353746D01*
X10434706Y-16353746D02*
X10425182Y-16306127D01*
X10425182Y-16306127D02*
X10415658Y-16277555D01*
X10415658Y-16277555D02*
X10406134Y-16258508D01*
X10406134Y-16258508D02*
X10387087Y-16229936D01*
X10387087Y-16229936D02*
X10377563Y-16220412D01*
M02*
